<mxfile host="drawio-plugin" modified="2022-10-05T13:41:36.142Z" agent="5.0 (X11; Linux x86_64) AppleWebKit/537.36 (KHTML, like Gecko) Chrome/98.0.4758.102 Safari/537.36" etag="8RjzhgtJI_m5flW_aBVf" version="15.5.4" type="embed"><diagram id="LD769O90ml6NFoTSoca9" name="Page-1"><mxGraphModel dx="662" dy="654" grid="1" gridSize="10" guides="1" tooltips="1" connect="1" arrows="1" fold="1" page="1" pageScale="1" pageWidth="850" pageHeight="1100" background="none" math="0" shadow="0"><root><mxCell id="0"/><mxCell id="1" parent="0"/><mxCell id="swFpSeQePxX08vtrjXuF-6" value="" style="shape=datastore;whiteSpace=wrap;html=1;" parent="1" vertex="1"><mxGeometry x="680.61" y="120" width="108.77" height="150" as="geometry"/></mxCell><mxCell id="07knTB4zI7Xbk9It-fin-1" value="CONTROLLER" style="rounded=1;whiteSpace=wrap;html=1;" parent="1" vertex="1"><mxGeometry x="55.31999999999999" y="500" width="99.36" height="40" as="geometry"/></mxCell><mxCell id="07knTB4zI7Xbk9It-fin-2" value="MODELS" style="rounded=1;whiteSpace=wrap;html=1;" parent="1" vertex="1"><mxGeometry x="266.32000000000005" y="500" width="85" height="40" as="geometry"/></mxCell><mxCell id="07knTB4zI7Xbk9It-fin-3" value="REPOSITORY" style="rounded=1;whiteSpace=wrap;html=1;" parent="1" vertex="1"><mxGeometry x="449.07000000000005" y="500" width="121.86" height="40" as="geometry"/></mxCell><mxCell id="07knTB4zI7Xbk9It-fin-4" value="SERVICES" style="rounded=1;whiteSpace=wrap;html=1;" parent="1" vertex="1"><mxGeometry x="687.4999999999999" y="500" width="95" height="40" as="geometry"/></mxCell><mxCell id="07knTB4zI7Xbk9It-fin-5" value="UserService" style="rounded=1;whiteSpace=wrap;html=1;" parent="1" vertex="1"><mxGeometry x="626.5899999999999" y="820" width="90" height="40" as="geometry"/></mxCell><mxCell id="07knTB4zI7Xbk9It-fin-6" value="ServiceImplement" style="rounded=1;whiteSpace=wrap;html=1;" parent="1" vertex="1"><mxGeometry x="739.9999999999999" y="820" width="100" height="40" as="geometry"/></mxCell><mxCell id="07knTB4zI7Xbk9It-fin-7" value="&lt;div style=&quot;text-align: justify&quot;&gt;&lt;span&gt;IngredientCategoryController&lt;/span&gt;&lt;br&gt;&lt;span&gt;IngredientController&lt;/span&gt;&lt;br&gt;&lt;span&gt;NewRecipePOJOController&lt;/span&gt;&lt;br&gt;&lt;span&gt;RecipeCategoryController&lt;/span&gt;&lt;br&gt;&lt;span&gt;RecipeController&lt;/span&gt;&lt;br&gt;&lt;/div&gt;" style="whiteSpace=wrap;html=1;aspect=fixed;align=center;" parent="1" vertex="1"><mxGeometry x="20" y="577.64" width="170" height="170" as="geometry"/></mxCell><mxCell id="07knTB4zI7Xbk9It-fin-9" value="&lt;div style=&quot;text-align: justify&quot;&gt;&lt;span style=&quot;font-size: 12px&quot;&gt;IngredientCategoryModel&lt;/span&gt;&lt;/div&gt;&lt;span style=&quot;font-size: 12px&quot;&gt;&lt;div style=&quot;text-align: justify&quot;&gt;&lt;span&gt;IngredietnModel&lt;/span&gt;&lt;/div&gt;&lt;/span&gt;&lt;span style=&quot;font-size: 12px&quot;&gt;&lt;div style=&quot;text-align: justify&quot;&gt;&lt;span&gt;NewRecipeModel&lt;/span&gt;&lt;/div&gt;&lt;/span&gt;&lt;span style=&quot;font-size: 12px&quot;&gt;&lt;div style=&quot;text-align: justify&quot;&gt;&lt;span&gt;NewRecipePOJOModel&lt;/span&gt;&lt;/div&gt;&lt;/span&gt;&lt;span style=&quot;font-size: 12px&quot;&gt;&lt;div style=&quot;text-align: justify&quot;&gt;&lt;span&gt;RecipeCategoriesModel&lt;/span&gt;&lt;/div&gt;&lt;/span&gt;&lt;span style=&quot;font-size: 12px&quot;&gt;&lt;div style=&quot;text-align: justify&quot;&gt;&lt;span&gt;RecipeModel&lt;/span&gt;&lt;/div&gt;&lt;/span&gt;" style="whiteSpace=wrap;html=1;aspect=fixed;fontSize=10;align=center;" parent="1" vertex="1"><mxGeometry x="232.64" y="577.64" width="152.36" height="152.36" as="geometry"/></mxCell><mxCell id="07knTB4zI7Xbk9It-fin-10" value="&lt;div style=&quot;text-align: justify&quot;&gt;&lt;span style=&quot;font-size: 12px&quot;&gt;IngredientCategoryRepository&amp;nbsp;&lt;/span&gt;&lt;/div&gt;&lt;span style=&quot;font-size: 12px&quot;&gt;&lt;div style=&quot;text-align: justify&quot;&gt;&lt;span&gt;IngredientRepository&lt;/span&gt;&lt;/div&gt;&lt;/span&gt;&lt;span style=&quot;font-size: 12px&quot;&gt;&lt;div style=&quot;text-align: justify&quot;&gt;&lt;span&gt;IngredientCategoryRepository&lt;/span&gt;&lt;/div&gt;&lt;/span&gt;&lt;span style=&quot;font-size: 12px&quot;&gt;&lt;div style=&quot;text-align: justify&quot;&gt;&lt;span&gt;RecipeCategory&lt;/span&gt;&lt;/div&gt;&lt;/span&gt;" style="whiteSpace=wrap;html=1;aspect=fixed;fontSize=10;align=center;" parent="1" vertex="1"><mxGeometry x="425" y="577.64" width="170" height="170" as="geometry"/></mxCell><mxCell id="07knTB4zI7Xbk9It-fin-12" value="&lt;div style=&quot;text-align: justify&quot;&gt;&lt;font style=&quot;font-size: 12px&quot;&gt;IngredientCategoryService&lt;br&gt;IngredientCategoryServiceImpl&lt;br&gt;IngredientService&lt;br&gt;IngredientServiceImpl&lt;br&gt;NewRecipePOJOService&lt;br&gt;NewRecipePOJOServiceImpl&lt;br&gt;RecipeCategoryService&lt;br&gt;RecipeCategoryServiceImpl&lt;br&gt;RecipeService&lt;br&gt;RecipeServiceImpl&lt;/font&gt;&lt;br&gt;&lt;/div&gt;" style="whiteSpace=wrap;html=1;aspect=fixed;fontSize=10;align=right;" parent="1" vertex="1"><mxGeometry x="650" y="577.64" width="170" height="170" as="geometry"/></mxCell><mxCell id="19" style="edgeStyle=orthogonalEdgeStyle;rounded=0;orthogonalLoop=1;jettySize=auto;html=1;exitX=1;exitY=0.5;exitDx=0;exitDy=0;entryX=0.5;entryY=1;entryDx=0;entryDy=0;fontSize=12;" edge="1" parent="1" source="07knTB4zI7Xbk9It-fin-13" target="07knTB4zI7Xbk9It-fin-6"><mxGeometry relative="1" as="geometry"/></mxCell><mxCell id="07knTB4zI7Xbk9It-fin-13" value="&lt;div style=&quot;text-align: justify&quot;&gt;&lt;span style=&quot;font-size: 12px&quot;&gt;getCategoryIngredientList&lt;/span&gt;&lt;/div&gt;&lt;span style=&quot;font-size: 12px&quot;&gt;&lt;div style=&quot;text-align: justify&quot;&gt;&lt;span&gt;addNewIngredient&lt;/span&gt;&lt;/div&gt;&lt;/span&gt;&lt;span style=&quot;font-size: 12px&quot;&gt;&lt;div style=&quot;text-align: justify&quot;&gt;&lt;span&gt;getIngredientList&lt;/span&gt;&lt;/div&gt;&lt;/span&gt;&lt;span style=&quot;font-size: 12px&quot;&gt;&lt;div style=&quot;text-align: justify&quot;&gt;&lt;span&gt;updateIngredientList&lt;/span&gt;&lt;/div&gt;&lt;/span&gt;&lt;span style=&quot;font-size: 12px&quot;&gt;&lt;div style=&quot;text-align: justify&quot;&gt;&lt;span&gt;updateIngredient&lt;/span&gt;&lt;/div&gt;&lt;/span&gt;&lt;span style=&quot;font-size: 12px&quot;&gt;&lt;div style=&quot;text-align: justify&quot;&gt;&lt;span&gt;deleteIngredientById&lt;/span&gt;&lt;/div&gt;&lt;/span&gt;&lt;span style=&quot;font-size: 12px&quot;&gt;&lt;div style=&quot;text-align: justify&quot;&gt;&lt;span&gt;getIngredientById&lt;/span&gt;&lt;/div&gt;&lt;/span&gt;&lt;span style=&quot;font-size: 12px&quot;&gt;&lt;div style=&quot;text-align: justify&quot;&gt;&lt;span&gt;getRecipeCategoryList&lt;/span&gt;&lt;/div&gt;&lt;/span&gt;&lt;span style=&quot;font-size: 12px&quot;&gt;&lt;div style=&quot;text-align: justify&quot;&gt;&lt;span&gt;getRecipeByID&lt;/span&gt;&lt;/div&gt;&lt;/span&gt;" style="whiteSpace=wrap;html=1;aspect=fixed;fontSize=10;align=left;" parent="1" vertex="1"><mxGeometry x="594.88" y="890" width="153.41" height="153.41" as="geometry"/></mxCell><mxCell id="07knTB4zI7Xbk9It-fin-14" value="&lt;font style=&quot;font-size: 12px;&quot;&gt;interfaz que se implementa en &lt;b&gt;ServiceImplement&lt;/b&gt;&lt;/font&gt;" style="whiteSpace=wrap;html=1;aspect=fixed;fontSize=10;align=left;" parent="1" vertex="1"><mxGeometry x="460" y="890" width="110" height="110" as="geometry"/></mxCell><mxCell id="swFpSeQePxX08vtrjXuF-3" value="" style="shape=image;verticalLabelPosition=bottom;labelBackgroundColor=default;verticalAlign=top;aspect=fixed;imageAspect=0;image=data:image/png,iVBORw0KGgoAAAANSUhEUgAABkAAAAQrCAYAAADUoGAXAAAABHNCSVQICAgIfAhkiAAAAJZ6VFh0UmF3IHByb2ZpbGUgdHlwZSBBUFAxAAB4nFWOQQ7DIAwE77yCJ4xtMPAcVJEqUtVW+f+hB0jb7GWlWWvX4T6e49hv8X28tv0xQowxRpEaUktNO1CZUjBBUKAs5NO91UICZPHBRRlvbi7FfF4YQJs9iYVMTQ2kz3x1fT13/jfy+dcpXZn+OrNas7rYdUtsPgFA+ADnVTV07yz91QAAIABJREFUeJzs3X2UpmV9J/jv736qobsBUQRFQQQFuqtpFKSrGtQYk0w0rypN0LxMXmazMZFuJ07MZOdsspuZ7J7Jmdkko9KNs5pNMjpJxpBuNGaTOHlRo1GoakBd7Sp5EVsURQEBRcCuuq/9o9uESUSepuupl67P55ySI+e5r+tb6B8897ev65cAAAAAAAAAAAAAAAAAAAAAAAAAAAAAAAAAAAAAAAAAAAAAAAAAAAAAAAAAAAAAAAAAAAAAAAAAAAAAAAAAAAAAAAAAAAAAAAAAAAAAAAAAAAAAAAAAAAAAAAAAAAAAAAAAAAAAAAAAAAAAAAAAAAAAAAAAAAAAAAAAAAAAAAAAAAAAAAAAAAAAAAAAAAAAAAAAAAAAAAAAAAAAAAAAAAAAAAAAAAAAAAAAAAAAAAAAAAAAAAAAAAAAAAAAAAAAAAAAAAAAAAAAAAAAAAAAAAAAAAAAAAAAAAAAAAAAAAAAAAAAAAAAAAAAAAAAAAAAAAAAAAAAAAAAAAAAAAAAAAAAAAAAAAAAAAAAAAAAAAAAAAAAAAAAAAAAAAAAAAAAAAAAAAAAAAAAAAAAAAAAAAAAAAAAAAAAAAAAAAAAAAAAAAAAAAAAAAAAAAAAAAAAAAAAAAAAAAAAAAAAAAAAAAAAAAAAAAAAAAAAAAAAAAAAAAAAAAAAAAAAAAAAAAAAAAAAAAAAAAAAAAAAAAAAAAAAAAAAAAAAAAAAAAAAAAAAAAAAAAAAAAAAAAAAAAAAAAAAAAAAAAAAAAAAAAAAAAAAAAAAAAAAAAAAAAAAAAAAAAAAAAAAAAAAAAAAAAAAAAAAAAAAAAAAAAAAAAAAAAAAAAAAAAAAAAAAAAAAAAAAAAAAAAAAAAAAAAAAAAAAAAAAAAAAAAAAAAAAAAAAAAAAAAAAAAAAAAAAAAAAAAAAAAAAAAAAAAAAAAAAAAAAAAAAAAAAAAAAAAAAAAAAAAAAAAAAAAAAAAAAAAAAAAAAAAAAAAAAAAAAAAAAAAAAAAAAAAAAAAAAAAAAAAAAAAAAAAAAAAAAAAAAAAAAAAAAAAAAAAAAAAAAAAAAAAAAAAAAAAAAAAAAAAAAAAAAAAAAAAAAAAAAAAAAAAAAAAAAAAAAAAAAAAAAAAAAAAAAAAAAAAAAAAAAAAAAAAAAAAAAAAAAAAAAAAAAAAAAAAAAAAAAAAAAAAAAAAAAAAAAAAAAAAAAAAAAAAAAAAAAAAAAAAAAAAAAAAAAAAAAAAAAAAAAAAAAAAAAAAAAAAAAAAAAAAAAAAAAAAAAAAAAAAAAAAAAAAAAAAAAAAAAAAAAAAAAAAAAAAAAAAAAAAAAAAAAAAAAAAAAAAAAAAAAAAAAAAAAAAAAAAAAAAAAAAAAAAAAAAAAAAAAAAAAAAAAAAAAAAAAAAAAAAAAAAAAAAAAAAAAAAAAAAAAAAAAAAAAAAAAAAAAAAAAAAAAAAAAAAAAAAAAAAAAAAAAAAAAAAAAAAAAAAAAAAAAAAAAAAAAAAAAAAAAAAAAAAAAAAAAAAAAAAAAAAAAAAAAAAAAAAAAAAAAAAAAAAAAAAAAAAAAAAAAAAAAAAAAAAAAAAAAAAAAAAAAAAAAAAAAAAAAAAAAAAAAAAAAAAAAAAAAAAAAAAAAAAAAAAAAAAAAAAAAAAAAAAAAAAAAAAAAAAAAAAAAAAAAAAAAAAAAAAAAAAAAAAAAAAAAAAAAAAAAAAAAAAAAAAAAAAAAAAAAAAAAAAAAAAAAAAAAAAAAAAAAAAAAAAAAAAAAAAAAAAAAAAAAAAAAAAAAAAAAAAAAAAAAAAAAAAAAAAAAAAAAAAAAAAAAAAAAAAAAAAAAAAAAAAAAAAAAAAAAAAAAAAAAAAAAAAAAAAAAAAAAAAAAAAAAAAAAAAAAAAAAAAAAAAAAAAAAAAAAAAAAAAAAAAAAAAAAAAAAAAAAAAAAAAAAAAAAAAAAAAAAAAAAAAAAAAAAAAAAAAAAAAAAAAAAAAAAAAAAAAAAAAAAAAAAAAAAAAAAAAAAAAAAAAAAAAAAAAAAAAAAAAAAAAAAAAAAAAAAAAAAAAAAAAAAAAAAAAAAAAAAAAAAAAAAAAAAAAAAAAAAAAAAAAAAAAAAAAAAAAAAAAAAAAAAAAAAAAAAAAAAAAAAAAAAAAAAAAAAAAAAAAAAAAAAAAAAAAAAAAAAAAAAAAAAAAAAAAAAAAAAAAAAAAAAAAAAAAAAAAAAAAAAAAAAAAAAAAAAAAAAAAAAAAAAAAAAAAAAAAAAAAAAAAAAAAAAAAAAAAAAAAAAAAAAAAAAAAAAAAAAAAAAAAAAAAAAAAAAAAAAAAAAAAAAAAAAAAAAAAAAAAAAAAAAAAAAAAAAAAAAAAAAAAAAAAAAAAAAAAAAAAAAAAAAAAAAAAAAAAAAAAAAAAAAAAAAAAAAAADASlVLHQAAAAAe0+WvPjE59rT0eXL6PKHr+uP6tBPTurVJGyQ1n8pDXeqrffLV1PzX0uf+9HVf1hy4M1e/5b6l/hUAAFhcChAAAACWr1dc8V0Z1HmVnJPk/LSM12DwlFT36M+0ljY/91CS/an6dNJuqXT7+/RfTMttaWtuzjVv+Pwi/QYAACwRBQgAAADLz7Ydr0pr31ldLq7Uc9INktaStEN/fSx18BtvVb7x1bf18w8m+USqPpm+faalvynzg6m868p9o/tFAABYKgoQAAAAlo9tO16Qrv1UtfqOdINnV2tJ6xdo8TpYiFQl/Xxay+2pfDKtv7113QfypcE1ef8b712gzQAAWGIKEAAAAJaHbVfsqHQ/XpXJVA150uMIfKMMaS1pbX9r7dOttZvS8o6886q/Hu3mAACMmgIEAACApXfp9n9XlZ+prnvayIuPb+YbV2W1/uGkfa61urWlXZM9u968+GEAAFgIChAAAACW1qXb/211eV1Vd+KSlB//2MFTIS3Jfa21u5J6Z9uz818vdSwAAA6PAgQAAICls23HFZX8enX1hGVRfjxSHfrK3Npca3kw6X+v7bnqXy5tKAAAhqUAAQAAYGlc9tofrNauqq47feEGnY/IoSuyWt8n1d7eDrRfy59cdctSxwIA4NEpQAAAAFh827Y/sypX1WDs+zI/v9RpDk83SPq5r7eWP2iV/5K5sY/kXW+8d6ljAQDwPxosdQAAAABWoU1bf6q6sddWv8LKjyQHr+rqBjU2uKD69op0OT3nbelyyvpbs3//Mj/KAgCweihAAAAAWFw/8OqTa6z77UqetNRRjkhrSVdrq+uelz4vrHVPeXY2TlZmp29a6mgAAChAAAAAWGTd+Rf/XAZrfrj6x3lYourQT3fwYuda4tudW0t19YQMBhOVdkHGJ87J5i13Zd/ezy9tMACA1U0BAgAAwOIan3xHJSce9nOHSo/W93cl7Za0fCZpdyd5OGnrqhsbLGUZUq2luu6UJBdXq83ZOHlGnnjmdfnsvrklCwUAsIoZgg4AAMDi2bb9Rd1g7P05nNkf1SVpaX27JdXe0/p8JF3uSF8PZZBjM18npeZPrdQpqZyRVs9NZVN1g6T1h2Z2LLKqpLX7WjLdWn43e3b+weKHAABY3RQgAAAALJq6dPsf1mDww2nDX3/VWvtkS3trMvhoBmN/l6v/04OP+uGXv+YZ6QbnJHlmVS5M8j21Zs056eeTx3vl1uN1sARpLflS0v609Qd+Jde8xbVYAACLRAECAADAoqnLdtxdVScNdSqjKq3vP93mu+/Pu67cd9ibveyXTsiaB85In/Orup9MV99TVYt/KuRgETLfWru9dfVL+eOdVy/e5gAAq5cCBAAAgMVx2Y6NXcuNqVqbDFVAPJxWv9zvufI3F2T/S39uc6p7XaVeWYPBCWntUIxFKkOq0lJJ6/9z273zNYuzKQDA6qUAAQAAYHFsu+Jnu+relOSYx/zswdMfd7U9u04ZTZYdr61qV1TLmalae+iUxki2+ifG1qTNff1D7cF2Wf7sqi8szqYAAKtPt9QBAAAAWB0q3dk5nO+h1X5/ZGH27Lyy7d41Xulf1Vp7f1r7QpK5gwPXR2zuQKobPL/W1vty6Y7vHP2GAACrkwIEAACAxdFyatrw30NbBrtHGSdJ5ve8+U/anl0v7ufaK1ranrT+5iRfO1iEjPDShL5Pdd2G6vK7uXTHT4xuIwCA1Wuw1AEAAABYHWrT5D+vauMHp4I/1ocr7aED/1tu3vuVRYiWfHL6c5mZ/uO2+aIPpa/5pHWVnJiuO2aUI0Kq6sQkW7NxYk3Ov/Dj2Xf9w6PbDQBgdVGAAAAAsChq0+Qrq9XG1BBHK6rS5ufempuuv2sRov2DfXs/n5npv8imLde1qq+kz1wqp1bXrRnVjJDq6oRULqzWPSWbt85m39S9I9kIAGCVUYAAAACwKGp8y/dU6oKhC5DB4K8zMzW7CNH+qZm9d2bf9HuzefLG9PlcWutTdXZ13UiGpVfV+mo5L2nnZXzi5sxM37HgmwAArDIKEAAAABZFjU9OVtXzM8w8yqqktS9kZvo9o0/2Leyb+mJmpv4u505+NJWPJ/3JGaw5vUZxL1ZXx1TyrFS9JJsmk5mp6xZ+EwCA1WOEE90AAADgES7d8RNd196a1DGP+dmqtL7d3PbsPHcRkg3v0p/bnOpeWlWvrcGaZ6afX/gTIVVJywOtzd9WLb+frnuwb/19qXZv0t2b9Peke+DuXP22zy3sxgAARxcFCAAAAIvjVdvP7Q7UR1O1No91guLgCZCv9umel91vunlxAh6Gl//smTVY8wuV9jMZDNam7xd4g0Nf11vrH/G3HvEPrdoj/xm2tIeSuifJ3Wn5cpJ7k3Z/Wu7PIPdX6+/rM/a5PPnKP85bcmCBwwIALEsKEAAAABZNXbb93qruxCFPTcy11r+97bnqfxp1rsftZa/ZkDWDnV3ai1LdMaMalP6Y6htf7+sR3/Qf8ZW//uG/t/kDX03qb6tvf9t33Ycy192e475+X/7gzV9evMAAAKOnAAEAAGDR1Lbt76xu8PK0IU5MVKW1/vY2N/acvOuN944+3RHYtuO1XbXXJXVWqmrJipBhVP39T0slcwe+nNS1aW2qG9Qn5ufri+nqjmV58gYA4DAoQAAAAFg03WXbX5lu7B3p54f4dCWtPdBau6pds+uXRh7uSP3I60+uhx76nerq21LdE4cqeZaDRxQiaUmbn78jyQ2pNlOtfaZvg9sy1vbl6p23LXVUAIDDoQABAABgUXWXbX846Y55zDkgyTdOgXy8zXWvyruu3Df6dEeuu2zHL7fW/ucaDM5c+Nkgi+CRhcjcfN8qN6VlX0v7bFK3pPLh7N65d6ljAgA8lsFSBwAAAGCV2bT1ouoGG4e7JqpSyfEtqcxO/cXIsy2ANjP1gYxv/UJaf1Z13dOXOs/j0trBn0pV1cnVdePVDbamtclKu6jGL/6ujE9syOaLv559U59b6rgAAN+MAgQAAIDFdd6Wu1LdT9SwczKqW5O0J2TTxKczM70y5lLMTH0i45OzSU6vtGelupV9A8OhQqS6Wl/VnVFVz6nkwvTtRTW+9fsyvuW0nP38T+Wm6x5Y6qgAAN+gAAEAAGBx7Zu+rca3vKRq8IyhrsE6OKr7yenqQM575p9n375hBogsvZnp/dk4+bEkp1bLOemqW+pIC6Md/KlaV9WdWmkbKnlextora3zLt2fDxfdldurWpU4JAKAAAQAAYPFtmkwGYy+vYQeFd1Xp25nJunsys3flzJ+Ynboz5275UAbdyZVsStVR9j38UIHVdeur6uRKbaguP5DxiVcOxifuaTPTK2JuCwBwdDrK/sULAACAFWHzlq9Vnwur684YbhZIUt1gXVKnZMPWj2V2Bc2d+OTe+zMz9c6MTxxbycWpbjDcyZcVqUvV+kqenqpXZHzyx7vxifvazPTHljoYALD6KEAAAABYfPv23p3xLZXkZcMPx2ipwdjpST+fzS/4m+y7dm50AUdgZvq9bdPW9yf991R1J6RW9liQIQyqqyenG1yajVt+tBufVIQAAItKAQIAAMDS2PS8r1a606sG40OfiGh9ktqSfv6OzExNjzTfKMxMfSYz07+ZDZMXVOX0tIyl6yqVpOqb/2SFFyWtpbrBk1s3uLQ2bnlRNm29P2duvS23TK2MWS4AwIqlAAEAAGBpzFx/T8Yn1qXlkurq+GEfq6qk5eJsfN7ezO69bZQRR2Z26h1t/KLppHtypQ3Scs8/+Undn7SHDz0xSFWX6v5RQZIVUpy0VGupwdhZ6fuX1ZqcnI0XfS2ze/cvdTIA4Oi1nP5tCAAAgNXmV9PVx3e8uZKfzuH8Ib1ukDY/d30bfPHbcvXVD44u4CL53tc+Icef9A8T4T98/3wmvj7eVfeclvnzUnVWkpOSHJvUIK2NpWosqUHSxqq1sSSH/l7WJFmTlmOTrMug6/5+3XboP4acuzISVQf/95ub+2ir/LfkwO7s/r9vXrpAAMDRSgECAADA0rp0x3dWl9+oqgsP68X8YCz9/IE/zO5dPzq6cMtS5Xtfe1qOaU9KuhNS7fjBYG596+u4VB2Xasel1XEtdWJL/+Sq7glpWZNkXZITUzklaadVNzgmLYfKkCUoRKpL6/sDSXtPS96dPbvesvghAICjmQIEAACApXfpjn/VVf7XdHXy4ZQgraVvLW/INTtfP8J0R4dLf+4p6Y45O5k/J6lzKjk9lWen5aLqBuvS2qEZK4vp4DVerW93JPmr1rq35po3fXCRQwAARykFCAAAAMtCXbb9D6rVD6Wy5jCeSku7p7X699lz5W+OLt1R6rJ/+fxk/sJqbUNSz083uOjgjJV+ca/Jqkr6dqAlt7S0t2fPrl9fvM0BgKOVIegAAAAsD+Nbbky6l1bVKYfzWKXWpdpZGZ/4bGamZ0cV76g0c93tmZmezpkn/00GT/pI0n8wyZeSnFaDsUOD6RepCKkMqqtTKtma8Yl/lo0T05mdvmtxNgcAjkZOgAAAALB8bNv+okq9p7pae1gnEKrSWvtAa2M/lT1v+NToAq4Cl7/6xHx97Kxu0D2/Vf5FVbcli3kqpCpprbWWr1X6X+v3XPUfR78pAHA0UoAAAACwrHSX7fhXqfqtw37ZXl36vr86e3a+cjTJVqkf3H5eranXJ/nR6urYJItXhFSlzc99rK0ZbMs7rrx19JsCAEcTBQgAAADLTm3bsacG3aXpD2codyVp8621N7Q9u35xVNlWs+7S7f9L6/L6anVCKmsPndYY8aZd2nw/l+TKNsiVuXrnbaPdEAA4WihAAAAAWJZq2/aZGgw2HlYJcvCqps/3ff1yrtn5u6NLt8pdtn17te5fVNqzUnnSyIuQqiSV1vobW9ob8/CB/zd/+hbzQQCAb8kQdAAAAJanDZM3JO17qxuccFiDuLuxE5L+1GycvCGz058fXcBVbGZ6OjNTb2mbJu9Lsq5a1qZywsGiYlRaquueVi0vyqA7LZu23J2ZvbePcEMAYIVTgAAAALA8zU5/NpsmH66WS9LVuqGfay3VjZ2etBMyM7VnhAmZmdqbmam3tfHJ+5LMJTmuuu7Eke3XWlK1rlLPS7K527T1hDYzde3I9gMAVjQFCAAAAMvXhslPpauTK+2CpBv+O2xLKhmvjVu+2manvSAftZmpGzMz9UfZMHF/Kl9Jy6k1NjhulFtWN3Z6WrswGycm8oxv/9t86kMPjHI/AGDlUYAAAACwfM1OP5jNF92avju7ujr3sJ6t6lK1pZ02+V/zqamvjCghjzQ7fWNmpq7JxovvTeYfSNoZ1Y2tHcl8kIOnQY6rynk5du7F2TjRMjt9w8JvBACsVAoQAAAAlrd9e+/O+MRn09qFNRicelgv07vB+hzTvi0zU789uoD8E7PX3ZCNF34obeympB+r1Nnpum5Ug9KrutMq2drGJzdlZupdI9kEAFhxFCAAAAAsfzPT+7uNW/ukXZSqE4Z+rrVU5ekZn3haZqb/dIQJ+cdmr/9qZqc+ms0X/W2b7/6/tPbMGnRPG81mLenq+Eqek00T35eNF30qs3tvG81eAMBKoQABAABgRWizUzdk48TZlZyfrsaGfrCqKjmnbZq4OTPTMyOMyDezb+9XMjv10cxMvaU2bvlia21rDQbrR7RbV9WdnnQvy6bJscxMfWBE+wAAK0AtdQAAAAA4HHXZ9vdU6iWH91Cltf621tb8s+x5w6dGFI0h1bYdb6rKzyRZm6os+NVYVWk1SOYOvLt19WvZvXPvwm4AAKwEChAAAABWnLpsx0xVbTysF+ettVb58/a1blv+/MqHR5eOoXz/a55Va7u3V3J+qjthJPNBBmNpc3O3tGq/nt27fmfhNwAAljNXYAEAALDiDDZM7E/yvelq3dAPdV1VcnIG7ZjMTr9vZOEYzs17v5yZ6d9p45MPpuWMqjwhdRhXmw2j9amuOyktP5hNk+uyYeL2zE7fvaB7AADLlgIEAACAFafNTt/UNk6sr66+/bAe7Lp1aXl6Nk1+NjNTsyOKx+GYmb42Gyf/LpV1aTmlKiemFvLCinZwDEw3eGFVf2Y2TX7dLBgAWB0UIAAAAKxMs9Pvy8bJ59TYYHzo65NaS1U9OS3rs/miG7Nvr9MAy8Hs1J2ZmfqTnLvly+nqmLScUYcz6H4I1Vqqug1p7bnZNHF8ZqY/uJDrAwDLjwIEAACAlWvzlhsyn4trMDht6BKkKpU8o1r3xTYz5SX4cvLJ6Y9k0+QNae2eVHtmdWNPWujZINV1J6flomza+qxsnvxE9k3du6AbAADLhgIEAACAlWvf9D3ZMHF/0l5QXZ0w9HPVrWlpz87GrR/J7NT+ESbkcM1M3ZXZ6ffnvK03p2/zGYw9t7LgJci6SjantQsyPvnpzEz7/wAAHIUUIAAAAKxss9OfyPiWE9Lq26rSDfdQS1X3pKRPTrvwffnU9Q+PNiSHbd/ULXn2BR9M5TNJm6zB2PoFPQ1SNVbJWam8OOdu2Z9P7jUTBgCOMgoQAAAAVr7NE9en5ayMjZ1fQ78kb0nXXZC19VfZN33bSPPx+Nx0/dcyOz2dTVvf2/r2jIyNnbPAp0GqqntSqn4o41u+nJnpqYVcHABYWrXUAQAAAGBBXH7FBdV3b6rqvi2tH+6Z6tL6/ta2Z+fZow33OPzAq0/OmvVrkv7J6eY3dKmNrbUzkzotyalJW5fUurTc0o6/7+V5+9sfWOrII3fZ9n9dqV+qqpMXdjZIJWNr0uYe/sO2e9ePLuDCAMASUoAAAABw9Ni2/TWV+pXq6ulDvyAfW5N+7qHXZ/ebf2u04Q5Pbbvit1PdpRmsOengqYeWg4cfHvHXJKlKm+9vba3fkbEvvT9XX/3gkoVeDJdtf3G1+j+rsjVVYwtahAwGafNz17U+V+SaXTcs3MIAwFJwBRYAAABHj5npvdk0eU4l5yc1NtQzrSWttmZm6j+MON1h6cYnTqnB4FXVzyetP5Tz0M8jr4FqLdV1JyXtByrHH5eNF9+Z2eu+uGTBR21m+tOZmfqdtmnizEo7LdUdt2Brt5aqwemp9t3ZNPGlzEx/fMHWBgAWnQIEAACAo8vZl+xN17+wKmcM+0h1tbZt3HJ8Zqb/cpTRDkebmb4xGydeVIPBWY99yqGlum5ttWxNtXMyPvmlzEzduihBl8rM9J+08YmH0vLUGgyevnCjQVqquiel1QszPrEmmy/+ZPZNfW2hVgcAFo8CBAAAgKPLTdc9kI2TDyb1HdXV+qGeqUpazsrGb397Zj+0fGZpbN46m/n5l1Q3eGKGecNfNaiuzk5rm7Np4o7MTN80+pBLaGZ6Kudu/XDSzqjkrHS1YO85quuOT8vzquXkbJi4JbPTdy/U2gDA4lCAAAAAcPSZnf54Nk2cUclEhpx/Wam1reaOyczUe0acbnj7pj7XbdraknZJqtYO+1h1g1PT2oZsuOT6zF73+VFGXHKfnPpinrJuT9Y/5QmV9sx0YycszFyQlupqXSWb0tWzsumSmcxcd+cCLAwALBIFCAAAAEenV37fX+TOr/14dd2Thvr8wdMDT8yBf/7buefP50cbbnjtzK0zGWsnVcvzhj/h0FJd97RU6zP5vX+dj75/brQpl9j+/XOZmX5PG5/8Slr/jBoMTl2w4ehVx1TL2Um7KJsumVaCAMDKoQABAADg6PT+97dsvPiztWbsVen7x/58Varl2PaUu1tmpz4w+oBDumXq4Zz9/Bsz6J9xcLj7kA5e6/XcfP2BP83M9B0jTLh8zExfn40Tn0jaqZU6JzXU4Z/HVtVV5fSk/55snPjvmZ2+a2EWBgBGqVvqAAAAADAy11y5px04MJVuiK+/rSVdPaG69n2jD3aY3v3GO9tD7fWttfekhvwq31pqMFhTGfz8aMMtM9dc9cF24Lgfbsl/Tuu/vjAlyMHTJFXdWdXV9XnFq5+9AIsCACOmAAEAAOCo1g70O9pwY0CSJJV6Rnfpjp8YYaTH58+u+kJ7sHtl6+c/OPRL/X4+GRv8WPKTQ88POSr8yX/8Stu98zXpsz2t3b1gJ0FaS1W3rrpjbspl21+5MIsCAKPiCiwAAACObjdN31HjWyarG5wz3FyIOrElLTNTfzTybIfrlqmHs3nixvT1ourqlGEeqUoyvuaSzEy/bcTplp02O31D2/j8dyf9d1fVk3MYRdi3Ul1VtbyiNk7Mt6eu/3D27x/ijjUAYLEpQAAAADj6bdraVWrbN64y+paqS9Ieyqat+zIz9ZmRZztc+6a/kA0TD1RySaqOf8zPt5aqwbPaxi0fy8z07CIkXF5mr70rM1M7s2niJZU8LTXsHWKPoatBKpdk3VNPyubnfTz79n5lQdYFABaMK7AAAABYDWZbP//poa5Cai3Vcm5a++7Rx3qc3rnrv/RpvzdUoZMkrU+X9rSRZlrm2u5dL2gtf5y+3T/0HJVvuWBLqtZX8uqaH/t3uexnzznyRQGAhaQAAQAA4OjX1f5U9zfDvfhuyWBwXFXOzw8Nmeb1AAAgAElEQVT+/FNHnu3x2rPr37RWw5U6SfpW94w40bLX9uz8kZb25vT9HQtWgnR1XFV+pNqaf5vLf37DkS8KACwUBQgAAABHv6uv/FJL+/jhnJhI2nOyZv7Fo4x1pFr6N6Yb6nbrlpb9o86zErQ9u/5N39p/aP38LekW8CRIZVv187+ey3ecdeSLAgALQQECAADA6tD3+9v8/OeHvgYr9ayqnD/6YEdgz643tLm5O4f4nSrv3PXhxYi0Ilyz602t8sut7z867Amab+lgCbK2kh+svl2Vy3/1mCNfFAA4UgoQAAAAVoduzS2p+tjQL7wPng44P5e/Zllfa9RavelbngKpSmvty4uXaIXYveuPWuq1bb6/bkHWay1JjVXy0urv+ssFWRMAOCIKEAAAAFaH3W/8WFpuTYYsQFpLkhem7zaPMtYRq7n/1ubm7nrUYqcqSb1vMSOtGLuv/EDr+8tb8jcLchIkLUlVVfei2rb9AwuwIABwBBQgAAAArBqt6nOtn58b7sMtNRg7qWs5d8SxjsyeN38qre161FMg3SCt73ctbqgV5F1vvr3t3vldbb7tPlQWHfmaraW67oX1QzuUIACwhBQgAAAArB5t7uNJmx36T/u3Pq3qu3L5FWePNtiRaVV/2ebnvvBPfq+qtLkDX8o7r/rrpUm2crRrdv5Q69tVSctCzQWp1Atr2/YP5PKfPunIFwQADpcCBAAAgNVjsOYjabV/6BfcfZ+09uLMD84caa4j9ZW1H0nLH36z36u1/teWINGK1Pbs3N5a+8209uCClSBVL6j5de/Iy5b3LBkAOBopQAAAAFg9rn7TZ1qyP/PzbdhHamzNoGuZHGWsI/aXv/FAq/Z3bb6/4+9f3FeX1tr7Mnj4D5Y23MrS9uz6xdbyG+nbl1ML8dqkqqp9R63p/q9c+nPLe54MABxlFCAAAACsLtWmWnJYp0BatZePNtQC6I55b9L+e1KHyo/5j7XM/3Ku/n/uWepoK03bs/N/79N+q/X9nUdegrSkukElL60a/Goufd34goQEAB7To0xIAwAAgKPUGS/4Yh3bXlJd98y0YQ6CtFTltLbhgv+a2eu/PPJ8j9e+ax/M+MST0toFSbu5Vf1Kdl/13qWOtWKtv/DDeWIlLedV152QDH1o6Js7WII8K5k/OZsv3Jt919+3MEEBgEejAAEAAGB1ufXar9amyUuq9ecnNdz34sFYqs+tbXb6uhGnOzLP3XJ35rvPpW/vzJ5d71nqOCva56/v85T112X9U+aS9tyq7oQjXrNqrFo7Nxl7YmbW/Xmyv1+ApADAo1CAAAAAsPps3LKmqp6f6p447COt2imZmX7rKGMdsY/vvT8zUzdmdvrWpY5yVNi/v8/M9LUZn/xKWrukum79Ea/ZdWOVbM74U4/LzNRfLUBKAOBRmAECAADA6nPNVXtay91Df771qeq2jDARy9meXW9pyS+01h4YenbMo2ktqTq2Kq/vLtu+fWECAgDfjAIEAACAVaq9N317IBnyhXZ1ycuv+KmRRmL52rPr7S31I+1ggXFkax1cY5DUzly64zsXJiAA8I8pQAAAAFiVWl9vTbV7h+0/0vrUoF490lAsb7uvfHf7el2ygCVIqtpfZNsV37EwAQGAR1KAAAAAsDq9c9dNreUzaW24zx/82IUjTMRK8O4rr22Vn2ytPbgQJUh13ZpK/X4uf+23L0xAAOAbDEEHAABg9dowsa66+q4kY8N8vKr6Nj55T2ampkecjOVs39RHs3HL1yp1Sbo69kiXq+pOSN9flPGtH8vM1O0LEREAUIAAAACwms1OT2XT5Ouqav2QTwzS2trMTr9tpLlY/manr82miXWVPDdVa490uUqdkuSsnDO5L5+cumMBEgLAqucKLAAAAFa3lmuH/mxVUhnPS3/6pBEmYoVoXbeztfZ76dv9R3wdVlddVXthjeUX84rt5y5MQgBY3ZwAAQAAYHXbNHFvdd2PDTULpCqVzLc1g7syMz01+nAsa/umvpbNl8ykcnK1fmOqW3NE61U3qORZqbRsvvC67Lv+4QVKCgCrkhMgAAAArG67d/1Zm5+/b6g/wd9aknZipX5g5LlYGa5+02datX/fkj9L3w4kR3ASpLWkan1SP5P5Y35s4UICwOqkAAEAAIDK7tSQX5Grq6SekW3bnznaUKwYV++8rc31v9CqPpgMcZLoW2kt1dUTKvk/8vLtL16QfACwSilAAAAAWPVan13phr8luiond317xQgjsdK86823t27s+1vLviOeB3KwBDmpBnnbwoQDgNVJAQIAAADX7LqhzT1829DXYFU9pXXdd48+GCvK1f/pwbZn53mt9Z8d+kTRo2ktNRh7Rl223awZAHicFCAAAACQpPV5W7phvyZXUnlqXn7FBSMNxYrUPrhuY+vn7zviEqSfTw3WTNSl23cuTDIAWF0UIAAAAJAkY4O/anPz/XAfbqm0szJWLx1tKFakO3/jgVbtx9P6rx7xdVjzc0lX27Nt++sWJhwArB4KEPj/2bv3MLvq+uz/9/1de3KGAOEYjuEQZoYESMhMIoLHqm1FYibioVbb2oqSBA+ttv39Wp/WPtZ6eKytyYAPv1ovH+ujNmQCqLUKFVAUmJ2IomZPQBA5iJWDnEIgmb0+vz8CiBLImr3XmlPerz+8NKz1XTfXtecys+79/X4AAAAAQJJ2PH6npKsK7QKJkJzNcXhR5bkwMW244EuSPqSIbe2WILZl66/Vt+Z15YQDAGDvUHzCGwAAAAAAk9nWzQ+oq+dwp+ylitjz9bakeExdS36sRv22quNh4okjTvyupk6d69DJstt6B2N5hqwT1NWzRY36T8vKCADAZMYOEAAAAAAAnhT5jdFs/qzwMHTpJMnLqo6FCeryz26LWvpIKL5axnKWTrL9LvWdf0QZ6wEAMNlRgAAAAAAA8KRcN8pxdbHh1SGnbLqlk7Ti7QdXng0T0xfX3hK5PhSRX1voeLXnYtckvUKKd5aSDQCASY4jsAAAAAAAeNLWTQ+pe+kJjnixin9pcB8p/VCNwa1VRsMENlS/Uwt671euxU5pTqEj1p6F7Q6FjlN374NqDH63xJQAAEw67AABAAAAAODpkgZDuqHQLpAIOaV5yequPhgmtPX9Gy1dpDy/r62h6BFy8iGWztWKVWeUFxAAgMmHHSAAAAAAADzdlsGfqKt3qZIXu+Aw9IiwunsH1Ri8t/qAmKiiMfgddfceZ2mB5Fo7azllc6Xo0IJl12jL4KNlZQQAYDJhBwgAAAAAAM90rZrNOwp9Uz/PJfulCi+oPhYmutiw7m0R8U2p9WOwJEl5U0q1NynP31JOMgAAJh8KEAAAAAAAflMel8jeIhU7qshOsuMsnXtuR8XJMAnEQP/LI9Ro6ygsSY5cDv2VVq7+3ZKiAQAwqVCAAAAAAADwmy7pvy+s7yvyRwqVIJFLij7d1zG/8myYFJL8DkXc3/Y8kCzbx/IHyksGAMDkQQECAAAAAMDuuPnvobit0CaQCDnr2MfhN1aeC5NCc2DtFXnEx1VkzsxzyXM5qy1S3+pPlpMMAIDJgwIEAAAAAIDdWX/hZsnfU8SOQtfnTUl6W6WZMLkM9H8gFP+uLGtvnWZTtv9QK1e9tZxgAABMDhQgAAAAAAA8iwh/RtK9hY4pipBrtQPSijXvqTwYJo1I6f3RHK4rtVOChGxPdfg9Oue8E0sLBwDABEcBAgAAAADAsxlYe0UoGoqC5xTlTUWKP604FSaT9Wu3WP5E5M172p4HYs9XM/tYeeEAAJjY2txjCQAAAADAJNfdu83hs5Q8pcjllmepqzdTY/DKqqNhcojG4I3q6pkj+4w2KhDJliMOi66e6WrU+fwBAPZ67AABAAAAAOC5bOjfEIqbC19vW9K51QXCpBQd/6w8NrZ1FFaElNI+VnqNVpz/wvLCAQAwMbEDBAAAAACAPelevNWR3iyr0Bf0bU1V95L5atQ3Vh0Nk8TQdY+ou+dh5XGykw9pZymndJAUh+mEBZdq6w07yooIAMBEQwECAAAAAMCeNDbfpq7eVzulw6QC40DszNKc6Fpyoxqbbq0+ICaFRv1mdfccJGmx7Wktr2PJ0ly5Y4qGBv+rvIAAAEwsHIEFAAAAAEABkfsvi18cUvgwO72jwkiYjDb0/50iLldEs+U1IiSnGXIs16tXn1ViOgAAJhR2gAAAAAAAUMTQ4C3q7HmFs3SkosAukGQrYn91L92pxuD11QfEpNG17A45nmf54NYXCTnLDpI0TV0916tRf7C0fAAATBAUIAAAAAAAFNXVe48V56jgiQpOaaakmers+b6G6ndXGw6TRmPwTnX1ZJJe5JQ62lnKEfNCukuN+nUlpQMAYMLgCCwAAAAAAIra7qsidJlSwe8ThqSIHjleU2kuTD4DF6yTPdDWGhFSyqbZfoeWv627pGQAAEwYFCAAAAAAABT11bUPhfLPR7P5kOwCN4ScsmmWX6e+NWdXng+TSjy+490RcXuxz9qzLZLLKc1zrfbX5SUDAGBi4AgsAAAAAABG4tgld7sjHe6stliRF7gh5JT2l0Kav2RQWzc9VHlGTA43bX5UXb0N1Tp+33mRz9qziJCVFkbXoivV2PzT8gICADC+sQMEAAAAAICR+MqFv4yIr0Rz562Fv5kfISm9QZlfWmk2TD4D676mnTu+oKzN77Dasmv/t5xQAABMDBQgAAAAAACM1ED/xggPhKLwLbZkp49o5fmLKkyGSSim5auiOfzzto/Ccna4V6y+oLxkAACMbxyBBQAAAABAK7qXbbPiJNtHFL3FKZupiHlacPTntWVL8fYEe7cfbHpMJy77pR3L21rHkhQL1bnkGg1t4igsAMCkxw4QAAAAAABaseET34nQ5Yr84cLfzM+bcq32cjUP7q82HCad2PGNkC6R23iVEyHb0+zsQ+UFAwBg/GIHCAAAAAAArepc/CM59Vg6rvA9eS6lbIlOXHKg5i+8Rltv2FFhQkwWWzc/oO6eYUmn29635XVsObR/dPVMV6N+ZXkBAQAYfyhAAAAAAABo1dCmbTqpJySfbntW0du86z9OU9ZxqBYs3qwtmx6uLiQmjdln3OZ9moc7dJrcxqkeyVMkHayunh+oUecoLADApEUBAgAAAABAO7bUf+CunhMcOkUu/nu27aTQQoUP1/FLb9BNgw9UGROTwJ3XDatr6cNSnOIsO1zR+hgZh2aHlKlRv7TEhAAAjCsUIAAAAAAAtGtezyZ16HetdPBIbnNy5lCnMs3Vgt7vagslCPagMXiHOpcebMWpsqe3vE5yJml/dfber6HB75cXEACA8YMCBAAAAACAdt1cf0QLen+sXG+0VXAi+hOSMym6lGt/dZ52rYY2basoJSaLQ5bcoBl+se157Sxjez9ZO3Riz5Uaqm8vKx4AAOMFBQgAAAAAAGXYUr/VXUtq7pjyQuX5iG61U5J0quSdatS/UU1ATBo/re/QiT3bbD1fbQ5EV+hwyT/X0OCmEhMCADAuUIAAAAAAAFCWRv1KnXjaq5xlc0c6n8G2JJ2prp671ahvriQfJo+hekNdS5ZZ7pRaH4juLJsuxTbNP+16bd30UIkJAQAYcy3/HyQAAAAAAHimGOhfEnn+I3lkJ2EpQnaSpXfonDULq0mHySSyx98u6c4Rf9aeLs+liOVyellpwQAAGCcoQAAAAAAAKFmk/Pcjjy0jvzGXah0nKddLKoiFyWb9p+7PIz6rPEZ25tqvCTmrTXPS7+jsNXPLCwcAwNijAAEAAAAAoGzrL/heRHNVhAYlNTWCuejOc1nxlurCYVIZ6H9fSDe1uwvE9ivVEaeWFwwAgLFHAQIAAAAAQBU2Xnh1NOMvQrpOMYJv6EcuZx0nq+/8ZRWmwyQS0t+OpGTb7QpZNt3hvrIyAQAwHlCAAAAAAABQlUv7r4qm/j6sxsi/oZ9TgKCYgXVfjObwd5TaeM2T57L1OvWtPrq8YAAAjC0KEAAAAAAAqnTJuq9G6P8o4t7CJUiErDi42mCYTCLL3h8RbSwQUlab5dAflZcKAICxRQECAAAAAEDVBtZ9JKQ7RnRPpHbONMLe5uK1X1ceA0pZ62vkTclaU14oAADGFgUIAAAAAACjIr6tiO2FLrUVKe6pOBAmmXB8KprN4ZbngUTIWW2OVpz3ynKTAQAwNihAAAAAAAAYBW7qdkk7Cr+czuOWSgNh8kk7vy3Fp9qaBRK5bP/P8kIBADB2KEAAAAAAAKja2WvmRuY/kNNsqeCchp3DN1QbCpPO+oseDOvyyJv3F54385tCstICnX3+onLDAQAw+ihAAAAAAAComGv5X1qapyJDqm3F8PA2ffmi26tPhknn8Z1XK3Rpy8dg7SroMtfyPysxFQAAY4ICBAAAAACAKq1cfZKclimlGYV2f9iS82urD4ZJ6csX3RuhwYj8vpZ3gSQn2S/S8nfuV244AABGFwUIAAAAAADVWu6I4wvt/pAkW450TbWRMKmFL1dosL1jsDRbafgd5QYDAGB0UYAAAAAAAFAhhxYqZfsXLkAilKfYXG0qTGqXrL0lnH9Xeb6ttaOwQpJmOekVJScDAGBUUYAAAAAAAFCVleefKfuYwtfbirx5q5q+o7JM2EtkXwvpppZ3gdiyfJRWrDmn3FwAAIweChAAAAAAACoTi6XoKjT7Q5KcJOkq7dxxV5WpsBfYsPZbyuNWRd7a/bt2LB3mFCvKjAUAwGiiAAEAAAAAoCIOHeGUzS56/FVIiogb9OWL7q02GfYGtr6u0M9a3wWSMoXma+XbF5WbDACA0UEBAgAAAABAFV5/3pGyjix8vS01mzcpvLXCVNiL5AP9F4X0i9bmgEiKkK0uqfbacpMBADA6KEAAAAAAAKjCznScFCcUPf1KTpL1LdUeYwA6ShOObyvy7S3eLaXaDCtO1TlvP7zcZAAAVI8CBAAAAACAKoSOlHRC4eOv8mYzQjdp/afurzYY9ioRn4nQL1s+BmvXDJFT1UxnlRkLAIDRQAECAAAAAEAV7EOcdexTaAC6kxTxPcnfrT4Y9ioDF9QVcVvRIu4ZIuRUO9T2Mr3pTTPLDQcAQLUoQAAAAAAAKNvZf76PI44s/tI5JPlHGlh7RZWxsHcK698kPdb6Arkkn6lts19aWigAAEYBBQgAAAAAAGVL2w6TfWKx3R9WRNwToe9VHwx7pYH+C0NxX+vHYIXsdJylZeUGAwCgWhQgAAAAAACUzXGwpFMK7QDZ9VL6JiV9teJU2IuFfEkJq7xKK9csaX8dAABGBwUIAAAAAAClyw52SocWKkCa+U5JQ9qwbqjyWNh7pZl/FXne+v2RyyktUOSnlRcKAIBqUYAAAAAAAFA2592FjhuyFdYd4fw/qg+Fvdr6Dz8oaaNSG6+CbNnpjTrnjw8oLRcAABWiAAEAAAAAoEznrJpl+0XFBqBbkn6hiy8YqDgVoLDeFylrfYE8l7PsTO2ccXx5qQAAqA4FCAAAAAAAZWp6juSXak/HDdlS5A84zy8dnWDY623o/5GGd17V1i6QCDnF+8oLBQBAdShAAAAAAAAoVfYCZ8W+ZR/S/flwx6crDgQ8JawL2logz6VadlZJcQAAqBQFCAAAAAAAJbLy1yoKDJvOI5fU0Jf++b8rDwU8yfkNkTdvlFt/JeSQ1Lemv7xQAABUgwIEAAAAAIAyWS9Tvqf5H5ak7RHxxVFIBPzK+gt+HLna+9xFLjveWFIiAAAqQwECAAAAAEBZlq861bWOqdIeChBLYT2ugf7Pjk4w4GmcXRuR3yy7tfsjZHm2Vq75QLnBAAAoFwUIAAAAAABlyfz6PQ4//5VGlVGAZ3Xfg9cq4qtP7ERqjS1Lry0vFAAA5aMAAQAAAACgJLbOLjT/I0KR65LqEwG7cfVnHovwNRH5T1rfBSJZmquVq95dbjgAAMpDAQIAAAAAQEkcmren06+euFLa1mT+B8bO/XO+JOna1oehhyTNdKTXlxcKAIByUYAAAAAAAFCG16w+S3Ztz/M/rFBs19cvvGN0ggG7cfX7H4vwNyNv3tXyLpBdx2AdnVaseXO54QAAKAcFCAAAAAAAJXD4txUFfs+2JcWV1ScC9mBg7f9W6HvtDENX8iFh/UG5wQAAKAcFCAAAAAAAZQidLhcpQJIi/J+jkAjYo5C+pjz/ecsliCQrjk19a36vxFgAAJSCAgQAAAAAgBLYOrzQS2RbitoV1ScCChhYtzYitrZ8f4RkHxPS2SWmAgCgFBQgAAAAAAC0a8WqMyRlha5tDksb/6lRbSCguAh9VREPtD4LJEnSQvWtoQQBAIwrFCAAAAAAALQrpdOkmLKn+eeyFZHfOiqZgKI2rvtwSLcq9vQBfhaRy1KnrZeUGwwAgPZQgAAAAAAA0CZHfoqkqdpTA7LrG/bfHYVIwAhYkccGRTwmtbgLJKUk6flaufpFZSYDAKAdFCAAAAAAALTNnZKn7Pkyy9IPRiEQMDIb+z8Y8l2t9h+KXA4tTtLppeYCAKANFCAAAAAAALTNs4vNT7Byxc2VxwFaENJFLR+DJUlZSiG9QstXnVpeKgAAWkcBAgAAAABAO85+54m2Ogpda0vK76w2ENCigXUfiYhftjwMPc8lpxfIPqXcYAAAtIYCBAAAAACAdnTk8xWaVuTS2LkzV157qOpIQKsi9/uVspbvty1neoNWnHtYibEAAGgJBQgAAAAAAG1IkR8nFyhAbElxq1J6tPpUQIsuWffPMTz8SFu7QLKOVyh1LCo3GAAAI0cBAgAAAABAG0I+StJ07XF0giX7TkVsH4VYQMus+LDc+isjRy5L7ywxEgAALaEAAQAAAACgHdZcSdO1pwbEkkL3KNPjoxELaFWu/P9Gc/gXbe0CSbWX6+y3LSk3GQAAI0MBAgAAAABAe+bILjA0wZLjXj2+7bHqIwFtGLjwVil9uq1dIAq51vG35YUCAGDkKEAAAAAAAGjPlF3bOwoI3afL/vXhauMA7YuIr0c+fFdbu0CsV2j5moXlJgMAoDgKEAAAAAAAWvWyN82UolboWku2fllxIqActR2bJV3W1i4Qu6YsPlBeKAAARoYCBAAAAACAVk2dMVdyR7GLLcmPVpoHKMv6ix6M8NWRN+9seReIpGSfoRXnLi4xGQAAhVGAAAAAAADQqilpjqQpha8PM/8DE8d0f1URVyu1+PooQgrtJ3f8TbnBAAAohgIEAAAAAIBWJe+rUIcUBa/XzmoDASX63NqHwr4mms2ft7wLJDkle7H6VvWUGw4AgD2jAAEAAAAAoEVZnu3rgjtAIm8qz4eHq84ElGrDuk8qdG3LBciuXSBzHX5fucEAANgzChAAAAAAAFrUVHOWrGIzQPLYqWR2gGDCCfnbyvN72tkF4uRuvWbN75SbDACA50YBAgAAAABAqyJNk6K25wstWcOKlFcfCijZQzP+JaQftXx/hCQd4zx+v7RMAAAUQAECAAAAAECrHNMkZ3u+TlLEsEIUIJh4rvjwgxH5VYr8wZZ3gThlkk5T3+oVpWYDAOA5UIAAAAAAANAyT5G05wJkl2GFm1WmadvZb9lHfWvOLjrTHXuRLLsgpJ+2fH/ksjTfNsdgAQBGDQUIAAAAAAAti0zFf7duKovxvQOkY8ZLLf2jVq766FhHwTizfu09Cl2uiO0tr5EyS3oRu0AAAKOFAgQAAAAAgJalTCM5EyiixfODRodD/8u17Dgrna2+839rrPNgfImdtY+G1PoxWJHL9gm2X6juc6aUmw4AgGeiAAEAAAAAoFXOU+FSw67J4/f3cK9cc7lTOk7NpmwdK+VvHOtMGGe+9M//rdBXlLe9k2mFTjroJaVkAgDgOYzbv3gBAAAAADDuhXK5wMSMkBSqKfe4/D3cr1n9cUu/pSffazvVbB+rc1YdOrbJMN7EQzP/LBQhtboLJOSUHeVmekG5yQAAeKZx+RcvAAAAAAAmhFAuFR0ZHuNyB0jqW7XGuVf/+rFGIYcO17BeOmbBMD5d8eEHJV+s1MZpbpFL1vnqW/P88oIBAPBM4+4vXgAAAAAATBj2sCIKFCAh2R1PDE0fP1aueXUovV/JHXr6v8au/3607SVjFQ3jV+y4b017C4ScZbMsv6mkSAAA7BYFCAAAAAAALYsdsocLXZpSJquj4kDFLV/9Ioc/5OQDtLsOJ8tqso/UOe+ePvrhMK59+fP3Rt78jlIbr5WaTcnxJzpnzcLyggEA8OsoQAAAAAAAaN3jUjSLXGgnpXCt6kCFrFi92Jn+1o4Td1t+SLuOKQrNV+zgGCw8Q+TxkXbXcMoyNfP3lZEHAIDdoQABAAAAAKBlabtUcAeIJCmmVJeloOXnHWn7nbae95yDrCNkq8uRekYvHCaM2tSvRzP/vtzGq6W8KSut1Mo1neUFAwDgVyhAAAAAAABoUSY9otDOwjdEmlphnEJSLb3J1nI5Tdnj/PaUalIs5ZgiPMP6j2+39Wm5jWHokpxSkuKDJaUCAODXUIAAAAAAANCiZopt4aIFSEjWrGoT7cGK818Z4fPkNPtZj756ujwk6QXKY3HV0TDx5M3mNdEcHmqvBAml8Eu14m2nlBYMAIAnUIAAAAAAANCqaD4oRbECJKSI2F86J6s41e4tf+cxdv5ep3SEIi94U8gpm+7QGTrr3AMrzYeJ55ILNyt8SaQ2PtIRkrWP3PE/ygsGAMAuFCAAAAAAALRq55T7JO94zlkaTxeao985dGa1oZ5Fbfh1TtkLi5cfT4hckl+jqdn8SnJhQgvrWjV33tbWLhDbybFUZ686vrxkAABQgAAAAAAA0Do/8N/FZ4CElOlATds5rdpQu/G7qw51+IN7nPmxOxFyrbaf8uzF5QfDhDew7jKFvtbWMPQIKXywa+l95QUDAIACBAAAAACA1l36mQdUdAZISIo4VLUpo16AeKoudJalQnM/didvyik/V+f88QHlJsNkEOHvRLN5Z1u7QFLqsKpp5ooAACAASURBVLVMK1Z1lZcMALC3owABAAAAAKA9xXeAhI+SPL3aOL/hnFXHq1Z7tfJm62tEyLWpR2l42svLC4ZJ4/58QPZ32lojQgodbvvcklIBAEABAgAAAABAWyJ+qTzf82CNXcOeD5d2jmoB4mb6iFvc+PFrmk3Z+tMSVsJkc/UFj0Tk10bEL1rfBRJSSjMlPZ9dIACAslCAAAAAAADQDsddkrYXujTrsIaz2RUn+pW+1UdLenlLsz9+U+RSVuvh5TR2K0ufU+jG9hYJ2Z4v+XXlhAIA7O0oQAAAAAAAaINDd0jaXuyb7yE5Dq8601Os99qa1vLsj2csF5L9d6Ushsll/dp7QrpcEfe1vAskQkpptpPZBQIAKAUFCAAAAAAAbcjt22Q9VuzqkCLmV5voVyy/THZW2oIRStbLtOLtB5e2JiaP7L8viNAtba2xq6xbJqVXlpIJALBXowABAAAAAKAdO2o3KwoWIBGyvbDiRLusWPVGhw4qdc0IKbyPUva+UtfF5LB+/SPhuFh5PNTOLhCnNMspXqzlb+suNyAAYG9DAQIAAAAAQDu+9M83ytpZ6Npd324/udI8T7DT6yXNLuv4q6ckpyS/qtxFMWls6P9oSD9va408l8KvUJadWVIqAMBeigIEAAAAAIA2RUShIeiKkLJ0fMVxpJe9aaaseUou//f+kBQ6MK1YxS4Q7FZEfFSR72hnDWcps/1mrXgXs0AAAC2jAAEAAAAAoF3Wj5RHoV0gTpm0ck1nlXHSrH3fYMUB1aweUkozI6XXVbM+JryN/f8S8s0tH4Ml7doFknWcrrTzrPKCAQD2NhQgAAAAAAC0yU39QNbjUoEXvhGS4uVV5gnpDIUPLP34q6c9wRGHpJWr/7SiB2CCi/C72v38OW/K8l9qxerFJcUCAOxlKEAAAAAAAGhTHvkNkh4v0n8ocll+caWBrGOUUkdl60dIKR0Y0lni3QJ2Z2DtFSFdp9TGxyNCTtkBSvrb0nIBAPYq/CUFAAAAAIB2XXrhFREaLnRthBRxemVZ+la/QPZ+u4Z1VM3ztWLNuaPwIExAofh/lOfFfi6eTd6UU+1VWrHq3SXFAgDsRShAAAAAAAAog+PeQp1DhGQfLJ1WzQ6NSKdaOqSStX/tOSHLh9t6ic76mxmVPw8Tz4b+q0KxXlnW1jKOXLb/X71mNfNAAAAjQgECAAAAAEAZQnUpL7TtwpK0fNkfVJIjNbsUcUh18z+expKsXnXc85rqH4aJKPLsAjWH725rIHqEnNKBDv+d+t7ZU146AMBkRwECAAAAAEAJInyl5Gaxqy1nXl5FDkeaoyxr423zCA7PipDto53SGVr27untPBOT1MZPXBOR/k+4zVdQEbK0yGpepJVr3lpOOADAZEcBAgAAAABAGW7fcbGiYHdgyVb532Rffn63HAe0fP+ub+nfExEbY2TDq1+huTt+u+XnYlIL6RI1m4NtDUR/gq1TrfiYV676plasfn0J8QAAkxgFCAAAAAAAZdh80aOhuKf4UT8xQ31rnl9qhjQ8T9JBLR9/FaGQhiR/TM34oYp8az9CTtlRlqsb7I6JbWDtdSFtiGZz5xMHwLXFTvtY6cyU/G9eufpur1y9TivOPayEpACASYYCBAAAAACAsiRvKFoaKDzNzv+o1Ofb8yTNbWOFxx3xVQ2s+3Y4/qvohhZFLjn+WH1rXtHGszGZDaz7iOwvKrVfgDyt4MvsdKhTbXWaMutn7ltzs1ae93b97qpD238IAGAyoAABAAAAAKAk0fSGwjtAkjuk9IKSI8y10oGt7QCxJDXzYf9IkpTHV5Tn3yu8CyTr2N/Wq1p4MPYSkfsL0Wz+sK2B6M9YNKS8KQ3vkJOPT9nUCz0tNdy35qNaseoMvXDVrPIeBgCYaChAAAAAAAAoy8a1V8fwcOHLLc9S35qzy3q87X3anLOQq0M3SZI29l8e0vXK853F7mxKEX+kV69+XjsBMIltXPuVkC5RxMOlliBPipCaw3Lyfs6y9zj5C57jv1ff6hV65Xn7l/9AAMB4RwECAAAAAECZrG8VPgZLcYCVv7qU577h3AOlNLvl+y1FKNeGdUNP/Vnknw/p5kIvqyPkrDbDye9sOQMmv4H+94V0hSKalT3jiV0hdjrcWe0dtv/JU7N/Ut/q83TWnx1Y2XMBAOMOBQgAAAAAACWytb7wLgx7quRF6vuTI9p+8I6OQ6R8jorO7di9X/za/9p44dVSfEcRjxe6O2/KjtdqxdsXtBMCk1vIHw9paM9XtvugJ4sQH+Use7Plv/XUx/5VK9e8T687/7jKnw8AGHMUIAAAAAAAlCi3/yuaOwu3ELYPl6e+oe0Hh+YofGB7/Udc/4w/cbogpJ8Vn21Ss1Ltf7WTApPchrXfCutjIT1SyVFYv+nJIiT5YKfaq5L0Zx6Oz3jl6nVauXpp9QEAAGOFAgQAAAAAgDI9vu0OydcUPwbLBzlcxtyMObIOaWcHSDi//Bl/uGHtDcr9n4p8R6FF8lxJerFe/Y6XthwEk9/F6z4dER8MW9IolCDSrwam27NtP9/yWyx/1itXf1HL17xidEIAAEYTBQgAAAAAAGW67F8fdvjS4sdgSXJ06jWrlrf13NAcRRy6q1RphaXrb/j33S792CN/E6GHin1bPyR7irLm37cYBHuLgf5/iLz555GsQoVhWSKeKB813fYJlvtSTf/mlWu+qb7zXzN6QQAAVaMAAQAAAACgZHnkN0ZzeHvR4eGSu6TU1o6JlGmWs9rU1u62Im8O687rtu/2H3/10/dI+sxIypUkdae+VX/YWh7sNTb0fzTynSsib96mrKZRORLr6XZ9pmuyD7R0ZnL+OfetvoUiBAAmBwoQAAAAAADK5tSQdFnRb7U7JTmPReo7b1nLz8w1q+WThGwptPm5LomB/vdErm2FSx2nfcL+8xYTYW+y4cJLYqB/Xj688wMR8YDsJ4qQUSxDnir3PMUpHZsyr3ffmrvSijVvH70QAICyZWMdAAAAAACASacx+JC6eg+T9TuFXuHu2gVyhCK7TUOD3xrx8845Z7o085V2el5LR2ClJEXzMjXq//Gcl3X15qrVfkuRF1jUsjRdXT2z1ahfMfJQ2Os06leqcf1Ho/M/Zkox19IUSR2jvitEkiLk5H2UZWepq+ePUlfvlOhccr+G6veOfhgAQKvYAQIAAAAAQBUcP1DEDYV3gWRZsmOpVr7jhBE/a3j//STNGfF9Tz3cCvmHe7os37juQzE8PIJZIGmWpLO08vxFLWfDXsa5Bta9Nzb0z8sj3hMR1yqPOyQ9KqfRPSLriaHpto9WSh92Sp9LK1e/VyvPO3n0QgAA2kEBAgAAAABAFTb0XyXFt6WCOzIilx0vVjRHfgxWdOwj+aDCz9q9HxW6yvHxwgPeI5fl46z8rW3kwt5qoP/CGOg/Pc/Tigh9KvLhQUXcLMXTypBRKEQinvj5TIskf8RK/6iVa95Z/YMBAO3iCCwAAAAAAKrSufQgSUucPLvQ9ak2VYod6nzBNzX0nW2Fn9PVe7Tt11ue21IJkpJim/5CPx58dI/XLlj6U+X5a+y0b8G1a1LMUnfP7WrUbxp5OOz1hq6/W43Br6pR/5foPO1WKd2viAek2K7QLGdpyujMC9n1s+VUO1Z5/nx19XbppN6d2sLnGgDGKwoQAAAAAACqsnDhHY7aEjt1FSomQrJ0bMTOqzRUv7Xwc05adrwj3mwXLFp+87F5M/SldX9R6OItgw+4q3eOU3ZmsXkjIUsHSmm7jll6lX48+HgrGQFJ0tCmm9UY/Joag59T19KfKOIOhW6X4iFJc5zVplTehUTIKU2V0ymOOEXdvcfo2CWbdPOmxyp+MgBghChAAAAAAACoypYbtqt76aGOWKTkWYXuSVmHIg5UY/BzhZ/TuaTb9lvdyu/5tqS4XY36PxW+p6t3WIoX2d6/2DOSJc1Vh25XY/DGEWcEdqcxeIuG6lepMXiJuk5rSGooj61S/qgUc5zVpu3aGdLW0XDPygrZ6WBLi1RLy9TZ+5iGBrdU8jAAQEsoQAAAAAAAqNLiExpqTv8tOx1TbBdIyPYJ0d1TV6N+c6FndPcuTLXa7xXbkfEbUpLyuEGN+mcK37PgmLudzzxSWW2ZIy90i51mKaKpBb2btGXwgZEHBZ5DY9OdatQH1Rj8mjqXfl+Kb0eurVLMtDRXKVNLPx9F2B2W5sl6gbp7jtEJC6/R1ht2VPMwAMBIMAQdAAAAAIAqfe5zDznXZYr8nl27LQqw5dAFRR+RkvdpfQaCJcVtI7pl/fodIX1TzeGfFP532vXyeaWG89NHGBAYmY3rvq+BCy7WwLr/EUq/lyteGXnzMxHKldVU+DNb1K7Ptm0fmuTz3DH9Gi1f/aJyHwIAaAUFCAAAAAAAFcs3rvt4hG4pfEPkcpYd7b7Vnyz2AB/U8jE/lkIuPm/kSQP9GyVdIRd9tRBySsnJ71Lf6qNH/DygFRs+cbM29P9HbFj3hzGwLsuHh98ReX6rUrarCLFV2gD1XUVIZqeTXfOVWrHmH8pZGADQKgoQAAAAAABGQVJ8RBHFd4HkIctv1co1b9/TpZHyw1ofc2ApfHsrd0boqsibI9gFksu1KUsUPqeV5wFtG1i3Ngb6j8vzx+ZHMy6KPH6miMeeOHtOpZQhEbKk1FH7S/etHlLfqp72FwUAtIIZIAAAAAAAjIJo1Ieiq/cFluYXvinZCj1f3b13Pevw8HNWzXKk37e9oLUZIFY0m/0aqv9kxPc2Bn+g7p4TLS1S0a0gEZLieepa9lk1Bh8a8TOBMjQ236+hwS+rMfiP0dlzi6RZkqZYsuyppRyTFbmcsgOl+AN39U7XgqX3aMvgL9pfGABQFAUIAAAAAACj5cSlg05xjpz2KXqLk6dLfp66lja1YOFN2nLD9l+7YH7vPrbfZvuoER+DZSvy5iNK6X+rMfizkd38hM7Fdyqlky0dVfixtdrUyJuHqlEfaOmZQJmG6j9Uo/45zT9tgzNvi1zTvetHaV+l5JaPl5MkheyUWTpToQXq7tmmRv1H5QQHAOwJBQgAAAAAAKNlaPCX0d07004vHslLVTvto4geq+NwdfXer8bgHU/9w4XLZll6j639RpzHSQr9UMPNz2vrpvtGfL8kDW3+b3X2dkjudfKsQvdESNZCdffW1ajf3NJzgbJt3fRQbKl/U43BT/nEpT+P5FwKWdpfTll7RYhkp6MlLXV37yHqXnS7GpvvLyc4AODZUIAAAAAAADCaGvWro3PJi53Vjil+ZFXIyTMcOlmKxe7q7VJX73Y16j/Vib3LLK1yK3M+k6WIb6pDl2pL/ZER3/+kRn2zTuo53BGLpVToXYOdpIhONeoXtfxcoCIxNPhDNQYvVlfvLZK2KWKmrYPaOxorZKfZVpyqSCfpxJ57NFS/pazMAIBnogABAAAAAGC0dS0ZktRne/qI7rMyZ9lcSyfLfr67el7rpD6ndGhLOVKSIi7Vxf2XtXT/05206DpFbZmlY4veYvvg6FoyS436FW0/H6hCY/AWNQb/Qyf13K5cj0hxrLNsekvzdiRJIdlTLB0v63mpe+nMaAxeU2pmAMBTKEAAAAAAABhtjU13qqtXsl824u+T73rx2mH7YDsdY/vgVl/Ghq2I5r+pUf9uSws83ZbNj6uz9/uSznZysRkndpJ8qDp7rtFQ/e62MwBV2VK/SQtP/o5cG1JThzhLR7e7pFN2gBQ96upZpkb9C2XEBAD8upFvjwUAAAAAAO0bnnGh8vi0slpr90dIkavlb6LbUjO/Q053trbAbmxc9/1Q/vvhgt+3jJAVxyrpb0rLAFRl/afu18X9X4hm/pY8z98VeZ4rtfFqLXLJnm3rbPet+pGWn99dXlgAgMQOEAAAAAAAxsbWb+/QiUvvlvKFTtkRrR+p06KUSZFfrsi/oMamX5a2bqN+m05css0dHS9Xnu/5eidbOiBO6tmpLfXrSssBVGVr/X41Bq/XCUu+qKRFrk05qr2fX9spHWTH77lryXA06teWlhUA9nIUIAAAAAAAjJWhwbvUteRBKZbaab/RfHTICsUXNXDBJaUvPjT4HZ24+GinbJFU4MVwymYqjznqXHathq7/Rel5gCps3XSfGvV/jfmn/VLWUkvT2xqSnjxd8svV1bNIXb3XqlF/sLywALB3ogABAAAAAGAsNepb1N2bJC2xPWNUnukk5fkWJX1WW+o3VfKMrt7vKbTEyUft8doI2TFXVocag1+qJA9QlaH69Tpx6VWyjnHocCW3eK7dLs6yTkW8QF0996tR31JWTADYG1GAAAAAAAAw1hr1a9XVM1vSybanVf/AkKxLtKH/Y5U9olF/UJ2n3SppiVM6eI/XO1nyHJ209F5tGfxBZbmAKgwN3qXG4Gejq2eGpLmWDmh5N0iEnNUOc+h0d/XuGwue/wNtuW57qXkBYC9BAQIAAAAAwHjQqH9DXT0HSrHQTlMre46TIvKtIX1SjfpQZc+RpKFNP1Vn7y9lnWZ7/z1HS/spz2dowembtOX6+yrNBlShUf+Gunpvk7SfQ0e2vBskQkppXymWKvKjNX/pVm0dvKfUrACwF6AAAQAAAABgvGjUv67upfsqdLKTyy9BbCnPHw770xrov6D09XdnqP5DdfcMSzrV9j7PeW2ELB9t5fdHo371qOQDytYY3KrjTt0YWTZdoUNdyw5obUh6SHaH7ZPl/BR1L7tXjcFqjqwDgEmKAgQAAAAAgPGkMfhf6u7ZIcVpTrUZrb043Q1bihgOeaOG9UFtHXy4nIULaNTr6l4yxeHTdg16fg4pZaGYr/lLrtPWTXeMUkKgXDdt3qnG4BXq7PmFQrOUfLzbGJDurHaU8+bi6O6ZpUb9mhKTAsCkRgECAAAAAMB406hfq66ldynyY1zrmKvI21tvV/mhCG2IyP9Ol/b/pJygI9CoX6Ou3pmWemV3PPuFIadsX8lHqTH42dELCFRgqP5DLXjeJufNxx0xX1mLpeauI7EOtLwounqOVaP+5fLDAsDkQwECAAAAAMB41Bj8gbp6blBEU9KpTim19OI0JUWEIuID2pF9SJetu6X0rEU1Bq9UV+9+lp4n6dm/Dh8hJx8XJy75mYbq3x29gEAFtlx/nxr1r0d3z53K4yhntcPV6sYue4YVJ0fX0qU65Yxr9MNrHyo1KwBMMq3vvQMAAAAAAKNj5erftfyXTulMyVLkes4yxN417DwlaefOb0fEO7Sxf9wUCV65eq2zjjVqDj/HRVbk+eMx0D9t9JIBFTvn7Ye7WfugrTfKKWt5d9eun4/N0dR7dGn/VaVmBIBJhAIEAAAAAICJYsWaU5zi3QqdbXm2JMlP+90+dn2vPKwHFPpy5PH3uqR/XA5N9orVa13L1igP6dm+Dp+Sotn8Zgz0v3BUwwEVSytWvz7sjzr5iCd+altYJCmazXvDfp82rPtk2RkBYDKgAAEAAAAAYCJafu5CeUqvM81TaKqVP5JHul25r9ela7eMdbwi3Hf+/2fHH8nOnnVHSyjPFX+tgf5/GN10QPXct/obtp8ne1pLR9zZijx2hvQhZTs+pvUXPVh+SgCYuChAAAAAAADAmHHf6k/afrPs6bt9AbzrqJ97I/R72th/+egnBKrlvtUfsv2Hsg9puQSxFXnzXyV/VBvWDZWfEgAmJoagAwAAAACAsXPcoutUy2Zb6pQ9dXeX2J4haZ7mL75SWzc/MMoJgWo16ldEV+9Niphv+SAlj/h9nSOkrGOR8/w4nbTkHm2p31JFVACYaChAAAAAAADA2Llp86M6ofd7yjTziRLkmUPPbVk6UE5T1aj/5xikBKrVGNyqE06/WkkHWHGYUpo50t0gjlzO0gnKY6G6lg6rMXhDRWkBYMKgAAEAAAAAAGNr6+DD6jz1+1LWodBJTrstQTqkOEJdSx/kxS4mpa3X36cFp34j8vSIIg61fag8wtPrI+SUDpV0qrqXzFSj/q1KsgLABEEBAgAAAAAAxt7Q5ke0YOF3FbXHFbHEKT2jBLG8rxwHqrPnJg3Vbx+LmECltmx+XI36depcerOsHYqY7yybOuLdIPZsyaeqq/dQNQa/VlFaABj3KEAAAAAAAMD4sOWG7WrUr1HXsp8r8pc6pWfMBLF8hOxhzX/eNdp6/WNjEROo3NDgT7Rg6XXKdaMiP8ZZ7XCNcD667ekKLVJX73zNW3Kdbq4/Uk1YABi/KEAAAAAAAMD40hj8nrpPu0ZKr7dTh57+5te2Ik6W4w4NDW4au5BAxbYMPqqhwS06YelXQvFzJb/cKWkku0GcXLN0ijrUra4l16mx6ZcVJgaAcWeEBwkCAAAAAACMlpBXnn+fnQ5Q5L/6Y1sR8fNQvEEb+q8as3jAaDrn/IMc+YCdnaGIERUhSpliuPmtaOZv0WUX/Li6kAAwvqSxDgAAAAAAALB7Vsx+9JjI8+9KiqcGQkfIKTvUof+hFe85eEwjAqNl/dp74uL+M/Nm/heR5/fq6T8Te5I35Y7ame7wZ7T8vCMrzQkA4whHYAEAAAAAgPHrhht2qPP0L0n5sQ7NU3JN0q5vv9c65il2WI3By8c4JTB6GoPfVlfv9bKOcmjuUz8TexK5nHUcKcfxatQ/X3FKABgXKEAAAAAAAMD4NnTdI+pcfJXkfSSd4OTpkuTIpeTTNb/nhxqqN8Y2JDCKGvWfan73ZZGm7KvQMbZnFbpvVwlyYnQuPlSN+lcqTgkAY44CBAAAAAAAjH9Dm7ZpqP5VdffWJM23va8k2UlSLFFn7zUaqt89tiGBUbT1+4+pUf9PndT7uBRH2qnYcXCRS+HF6uxJGqpfVW1IABhbFCAAAAAAAGDiaAx+S129D0k6wtJhkuTk/RVxvIbqn5M0gsnQwCSwZXBQnT0/kzTXWe3oIsPRnWwpFqh76cNqDG6qPiQAjA0KEAAAAAAAMLE0Bm9Q19JbJU1X8kmWJOtodfbM01D9kjFOB4y+ofpWdfbeKOXzndXmFSpB7BmKOFpdS25WY9Oto5ASAEYdBQgAAAAAAJh4GoO3akHvJoXukdNLbCcpjlPX0n3UGPyvsY4HjLqh+t1a0PN9NfV8Z+mQgiXIwVI6QMederlu2vzoKKQEgFFFAQIAAAAAACamLYMP7DoSq+cWRf7bzmqzFHGcunq2q1HnWB/sfbbUf66u3rsU0We7tsfrbTt0bGRphhr1/xyFhAAwqihAAAAAAADAxNYYvFHze78jxZmu1Y5Wnh+v7qV3qjE4NNbRgFHXGNzqrp6DnGVLi+wCUXKSdKI6e7ZrqH595fkAYBR5rAMAAAAAAACUYvmahc7iAtc6zojm8KZQvFcb+q8a61jAM7zwb2o6+O6Zemz6NE2LqdLwFO3IpihFh2qppmY+TXk+U1maIXm68pgma7qsDoVrcl6TlEn+1bu9iFyKHbIfc6RTnflPlOfF8qSkaOY/jpTeo4s/cWk1/9IAMPooQAAAAAAAwOTx6vN7neIfnGUvibz5jcjjvdrY/92xjoW9ktW3+iiF5sjpAKm5X5JmyT4gIh0s5wcpfIgcB0ueo4g5cpqtLNvDC7s97eqwFLkKlx9PyjLF8PCV4fxd2nDhjSO7GQDGJwoQAAAAAAAwuSxfvdSZ/6ey9DI18y9HllZr/SduH+tYmORevXq+kucp8qOSfWBYByo8V46jJB0t+XBnNUnxtA7jyf/+xB8UObKqQpHVpOHhL8bwjLfqso88PKZhAKAEex6GBAAAAAAAMJFc2n999K15v5t55pTOUjPfHtJrxzoWJplzVh2vZjpNjm6H5so6RIqjJc9Tlu1jWb9WcERIzeExDv3c3ByWsvS60KOPSnrLWOcBgHaxAwQAAAAAAExOy88/07X4O6fsRXlz+LMa6H/zWEfCBLdy9VKFXyjHKQ4fKusISUc7ZVOfKjmkMd/J0TYn5c3mX2lj/wfHOgrw/7N353FWl3X7wK/r/p4zG4jmvpX7glu5s2hmppUrDNJTWmqb5QzY8li/pxAQsN0sgwG1etKnMssYQFPbyxRQUFNzy8ylXDIXRIGBOed7X78/ZlA0VJRz5j5n5nq/wmXU873MM2fOua/v577N1ocLEDMzMzMzMzPrv0a1D2fGr5Hh0Jjnl2JOx2mpI1mdGdv2NuYcA/JAgFsR2grkZiB7io56LzvWJgQoz69TZ8c7UkcxM1sfLkDMzMzMzMzMrH8bc8Y+VHYhA4fHGC9BZ8eHU0eyOtDa1kayleCOADYGuCG4elurflh6AADZ8ysrQN2lX6pz+ntTRzIzWx8uQMzMzMzMzMys/xvTvieBGQTfEYHvYvaM01NHshp07OmbsqF4FohTCQwCOBgkX3JQeX9DAgw9Ux+l0hJIvyHxu8iwGLOn/zl1PDOz9eECxMzMzMzMzMwGhlHjd2KmC5gVjol5aTZmd5yYOpLVgFHjd2KIHwHwPpJvgVBAYOjfpUcAAgEQKpefBuKVCuxEDLfh6eeewnWXrkwd0cysElyAmJmZmZmZmdnA0jruO8yy8cjzu0VMwOwZc1NHsj40+vStoOL+zHAihGNYbNgUMQKK/W9rK66x9CcJQN77h3eT/Ensipfgmpn/SpTOzKzqXICYmZmZmZmZ2cAzpn0Swc8AoCK+iX90fxW3XFxKHcuqrLX9QwTPZrG4a78pPbiW5T1JkFaBWAWwW8JzgBYr8mrMnfGjvg9pZpaGCxAzMzMzMzMzG5jGjP8AoTMhvFXQd9HZ8anUkayKWtsmMxTOIdBTfNSLlxQca050RAFYCWElqJVQb9kBrALxL0h3CbgVq/Lf4+oLH+3r2GZmtcAFiJmZmZmZmZkNXCecuhGzDaYCOESRP0FsvhBXfv351LGswsa0H03gCjK01O7EB3tX6np/LwFSF4TnADwvagXElQC6AXT3fF2Pk3gM0j9i5D9Q0r3e0srM7EWF1AHMzMzMzMzMzJKZd+mzAs7EqDP2RSsYVAAAIABJREFUJwvHS6taALgA6WcofpRAU80dak72TngQivkKRD0M4N8gl0J6XsQTIB4NwCMqx0eAhscw74KH1nyIGvs3MjOrKS5AzMzMzMzMzMzmzrpFwC2pY1h1SPoLA48HGJJXBgw9pUeMUIz3g7wT0KMCH4d0DxDvQ+eFd675j9TRhl1mZjXFW2CZmZmZmZmZmVm/xzHj/kDyHX2+BdbqKQ8GqFwug7gN0i1i+DtQ/huEO9A564G+DWVmNjB4AsTMzMzMzMzMzPo9lfU/LIYbqz4B8kLh0bu1VV56GpHXSVoE6j6o8Aiauu/HZR1LqhvEzMw8AWJmZmZmZmZmZgMCW8fdxhDeClVoU6mXlx0kUCo9B+AmQX8CcQOQPYo8fwZzO56uzEXNzGxdeQLEzMzMzMzMzMwGBAV9lSH8BHllChDFeCuE+xlwV8y5GP9c+FvcckupIg9uZmbrzRMgZmZmZmZmZmY2YLC1vYshNFXgLBBF4VPonDG9ErnMzKzyQuoAZmZmZmZmZmZmfYb4PkIFlsRIEvrc+j+QmZlViwsQMzMzMzMzMzMbMJSH/1NeXtpzbsf6PJBAcnOcOO5rlUlmZmaVlqUOYGZmZmZmZmZm1me2GPo0m5s2ITFsvR+LLEDYDnsc9CDuWXRvBdKZmVkFuQAxMzMzMzMzM7OB4+Hbyxg6/Bko349ZtvX6ngVCYTCIbbHbwXfh3kWPViilmZlVgAsQMzMzMzMzMzMbWO656bGwx8HNkIaBbFqvxyJJYWsQG2PogYtwz+KlFUppZmbryQWImZmZmZmZmZkNONrtwPtB7ERyn/V+sMCMwq4gNsHu+y/EvTcvr0BEMzNbTy5AzMzMzMzMzMxs4Ll3cRf2GvYIpH0Z1n8rLARmkN5KZltgl3f8Dn+d312ZoGZm9ka5ADEzMzMzMzMzs4Hp7kWPYvcDQGA/kEPW9+FIkln2VrD7AOz+tt/i3luWVSKmmZm9MS5AzMzMzMzMzMxs4Lp38a0aetD2BPYBWFzvx5PAQrYTwBMx9ODFuGfRPyuQ0szM3gCmDmBmZmZmZmZmZpZc67h5gTgOlVovY4BivlIInwVwFTqnP1KRxzUzs3XmCRAzMzMzMzMzM7PtD74Gmd7JELatzAMKDKEA6BgCW2LPA5bh7sV/r8xjm5nZunABYmZmZmZmZmZmdv+iVdhz+N1QPIRZtul6H4reiyBI7A1gX+xx4IbY5eAH8NdFz1fkwc3M7FW5ADEzMzMzMzMzMwOAe276J4Ye9CiAd5JhEFCZEgQAyGxzAAcww57Y4+AVuGfRfRV7cDMzWysXIGZmZmZmZmZmZqvds/heDD2gC8AwMjRXrgQRSDYR2g3AMA49cCcctMcfcfvt5QpdwMzMXsaHoJuZAcCxp78FzYW3oIxNIG0QAhvBUASQxxxdCHgO4L/Rhb/j2ulPpo5r/diYT+yCyDcjK2yCHIMD0AgqQixFaTlCvhR5eAJ/e/Ju3H1Fd+q4ZmZmZmb91pj2zxKYRGYbQrGyj80AKK6Q8KCgiejsmFPZC5iZGeACxMwGmtGn7wcVRjCEt4HYC8KbSTSi5/UwQAigCHCN10cJYETPbT8RgBS1BOSfGTE/QtdibodHl+31a207nOA7AY4ANJRkQ89zT73PRRAv/qwWBIEQhAgiShLAJaDuhXC7GG/B7FlzU/4rmZmZmZn1K63tnyY4gSFsWvESBOx5ty8tE+JvNXvm6ApfwMxswHMBYmb92+gz30PGo0AdQXDv3gXkFxeVuZaXwbVNN6/t1bLnQLze3+hJANdK4UJ0Tr+xQumtP2od918UTicxDEQzXum5+EpT9q/8XOz5A1EinkXUHxjib2N3aQ6u+t4TFUpvZmZmZjbwjGn7OBXOYRa2Rqx0CYIXPwtISyGdFzs7zq38RczMBiYXIGbWP0xGwN1nboty3JkBRwI6jgx7ImQ9i8MSKn+3zhrInhHmEKBy9+MCZ6EbP8JVMx6s3kWtLhx51iAM6toHAacT/AALhUYovvi8rAbyxeckAJXLzwD6tcCroPhnxOLjmHfBs9W5uJn1N5OB0PoNNK9YNqSRpbxYLsYMUKGYK4tlZCyIZTSGDAohA0tRbOj9Z0vBnzdSiN2MDQ3LHjl4Cp5LnSWluyajYUkXGrPmIcWIvJCXlBWpEAp+XsYylBegQinkhSLz57GsvAzoPm4KVqTOVgsWT27csRwLg2Ko4OnXr0OIYFR5RXe26tHDp2Bligy2Fq3jRpL4NoEDesc2Kn8NsvczZfl+Bk2LS1tm4zfnLa/8hczMBo4B/8bPzOrc2HE7oMw9SL0D0PEoFHfl6rKjWovLr4UEQgaVy88J+g4irsHcjoVpwlgyHzprEJZ1jSDxIYTsQyTTPS/XKESUl7sAXkXEayJwL37esQhM8+HezGrLwsmN2+flsCnJjRG0AcAhEDYL5MZA3FjiJgQ2EjEYwGACgwW0AGgC2BgCilkAAtY+YGl9gyRWdMeVAfjk8KkrLk2dp9oWTmjeJitwsxK4sfK4UUYOEbiRpA1JbERqQ4gbCtoAZIuEBkIFMrCKt8bUrICe/Vwp5QS6BawEsBzC8wp4NgOfjdJzopYGhaWSniPjEig+szzv/ve7voKnE/8r9In5k1oWD24MB+QxzVukLBDLVuk25vmnRnxp5Z+ShLC1e/dnNkZL9yUh8F0gm6t3Q1MAFCXhKjH/AZ5a8Utcd6nLMDOzN8AfTcysPo1uG4oQDiPwLkjHs1AoIiYsPdamd9FZefwbpe9H6ErMmXlP6ljWB8aMP5TQKEgfZ1bYADFPnWgNPXeVAYDy/C8grlbkDZgz/erEwcysj13/hYY9CsVst6iwAwO2hLQ9hO0B7Jhl3KSQvfhjVXphz0essekeer/0kq9bWiQg6RmCZw6fuvzHqfNU0vVfwGZZaNoFWbYdEbcUsBmBbQXuKGCHAG7dUHzp8xbwc/TVsPc3qxcGVpeXq+9t7y5plYCHCD4I6mEKjwF8RkEPxVh68JBppbuSBK+yBZNars8CD8kTtWRZAPKoG6l41vBpK+enSWGvqnXc+YEYixC2rcqWWKuFDMrLT0m4HNJczJ35u+pdzMysf3IBYmb15bC2wdgUH6DCCYCOYJY1IQo1/ZGWAYhxpajfCPouZs+8KnUkq5bJBbQ+9RGCHyNxYO8qVOpQr4wBgCDpbwCuEfKfYfasBaljmVn1XD+xZf+MPATUzojaEeTuWcYdMwKxd2e+1b+3+tTfCpAbJjcdgpxvDYE7gdgCEduB3CkQW64u6dZ87lplrR4iXT3ZFQisKiMCug/gg1B8FAGPKeqeTPGWYed2/y115kpwAWLrZMwZH6SysxjCW3t+cFZve1uFAJTz2wT9DI81fBs3fqurOhczM+t/XICYWf0Y/cm9GArje873yLaq6pvMSuu9nU4x3iOiA7M7OhInskobe+ZbGDUO0IdIbllXq4c9I/ZlCbcK+j46Oy5OHcnMKmfxhKY3l5i1kjpAxPYAhmaBm5BAjF407m/6QwFywxcHHckCjqC0C4htBOxQCNw80GVHLSB6j75Dz/OtO1cZwEMEHib4mIRbUS79csRXuu9NHPUNcwFi62x0+34MOIfikQihqarnToYA5flKAL9QCD/Bz6d3Vu9iZmb9hwsQM6sPrW0HkuHrBIaDbKyrxeU1hQDF+C8KF8bOGVNSx7EKGTV+J2Y6h8AJYNigqh98qokBivExEJdr9oz/Th3HzNbPgglNbxd5GkPYC8CbSWyZEcg94dGv1WsBcuMXi/vEQuH9EA8EsTWE7YoFDnLhUfuIF6dD8p6j+J4g8c8oPULGzhFTV/4wdcbXywWIvS7vHb8Zm/V5Eu9HyLat6va3L95Y91cBV6CzY2L1LmZm1j+4ADGz2nd8284scA7JvWp+S6F10XO3/XNS7FDnzC+mjmPr6biPbcGGpgsJHQ2Ghn7y/Fwh6HLN7vho6jhm9votOLv5RJFnkNgB4DaFgIboBeQBo94KkIWTm94nhQ9C2APEZoEcQnortnoWerfNyiMA4XEQ/yL0JxbLHcMm1scWWS5A7HU77LACNtv7JArjyXBA1XcrICHF5yFeLcWpPmvSzOyVhdQBzMxeCwu8qvfu1f7xSVgRIIcQ4awwZtxZqePY+mGxaSahE/pF+QGsfn62UDyNre1fSh3HzNbdgkmDPrRgUssiBH6X5DsDuQOBhrK3ubIaNH9Sy4cXTGr+CxQuInh0lnEnkkOiehbO+8OP1IFq9X9DAAgBWwViX4GfiN3F6+ZParls4dmDh6ZNaFYF111Xxs9n/J/K8eOK8aeQyqunNapCAhk2IDGWIfwYJ457b/UuZmZW31yAmFlN4+j2ucyy3fvdp2AJCCxC+BpGtR2VOo69MRw97tsMobX3FqzUcSqn5/kZCHwWY9qOSx3HzF7dgglNb58/qWUBoR8QPJDkRkDvHfSpw5m9zILJzaMWTGr5exC/S4a9QG4kIHPp0T+tnj4j0RQCtiL4fjH+eeHZzT9Knc2sKubNvE2dM94PxE9J8XmEKi679bxoZiT3ZdRPMbrtlOpdzMysfrkAMbPadWLbKcyyExDr9DyF17J6kTlwDsaO3yN1HHudxoz7IBuKn6rb8z5eiwSE0ESFi3H6/sXUcczsPy2eXNxrwcSWKxubsusKgcMBZoIXka02LZzc8p75k5r/XAhhTha4I4hM3uZqwFjjHBcysLFQDCcvOmeQFk5u/kriaGZVETtnztTsjiHK4yIAqPo0SAgbsNhwKVrHnV+9C5mZ1ScXIGZWsxj5tX5/72rPm9UW5vGnOOmMN6WOY+uote1AQt9HXk6dpLokENiETw37QeooZvaiGyY3bz1/UvP4UizeXCzwuFWl3i2DUgczW4sFE5sPXDCx+VKJ84pZeFs59/N1oJOAUu/zoJiF/1kwqeXBhRMHnTR/8qDNU2czqzR1zjhYil+BtKznK1UqQiQwLyMUi59ha9s1GDNu9+pcyMys/rgAMbOaxNFtXyGx8YC4LVACiV25Mvtm6ii2DsaeviHBi4l+cubHawkskjwEY84YkTqKmQE3TR70zhA5vakQvsPAxlKeOpHZ2t08GS3zz24eD/D7DYVwComGsp+vtgYB6C4DWeD2IC4JMX5twYQmv9+wfkedM78YoeMk3QJoBVjFpbhyCcyK76XwM58LYmbWwwWImdUmhuPB0JA6Rp9haCDxboxqPzV1FHt1zItTSQ6cwzt79ifZgjH4uWmW2MJJLR/NpRlZxtZVZW8dZLXrhs9j6261nM/AaYUC9+7O/Xy1V5ZHAEQRDKchC99eOHnQSakzmVXc7I4/Kj7/bknfk+LDAKq3LVbMwcC9GTUTY9o+Xp2LmJnVDxcgZlZ7WsedRGLT1DH6VM+qwNYMOBnHnvmW1HHsFYwefwyA0SAbB9TmHSFrQuA+GP1Jb01hlsDPxiJbMKnlCwKnBXJo3k+PHrL+4cazG3YJTc3fC+QnArmhpz5sXawuyLLAAyV9af7Els/fPBktaVOZVdjc/3tanR2fEvR5SXMkPV21aZCerZa3JzgVY8ZNwLGT/f1kZgOWCxAzqzmEjobwpgF3qyAJggegMfqutxrFoA+T3HrAPTchENgCCEemTmI20Oh0FLfdvXkShP8OAVvFgfbyY3VlweSmETEUflAshPeucei12ToReqZBCoHbEzirW81np85kVhWzO34m5Z+UdK5i/K0kVaUIkUCGLQl8FsWnzsGo9k0qfxEzs9rnAsTMahB3QmAxdYo+JwEhvInAOzC6beBssVQvWttOA3AgyCx1lD4nAcLWIA9IHcVsoFmwZctnQZ4ZMm4SPflhNWzBhKa3Q9n0LHBkqTyg5iStwsoRyDJuBnHcwknNX02dx6wq5lz4b3R2fFt5/JzEz0vxRmWFym+LJYHkxiHwk8xwDsZ+dOPKXsDMrPa5ADGz2jK6fT9Qg1PHSEeAcAjId6dOYi9F8iiSbxl40x+9stBIcJvUMcwGkhsmDTqZwP+EwI1cflgtmz+5uBey7LxA7Oct2qwS8giEwA2A8OkbJjR/OnUes6qZN/M2zJlxnqLaVc7PUsRfK16ESAC5AcGPM28+r3IPbGZWH1yAmFmt2ZXCwC1AJDALgwgeiPeP2zp1HOt14rixgKcfAAzG2LYtU4cwGwhumlh8K6WvZy4/rMZNnowCYuHbJA4cqPcIWHVEASQasyx886YJzX4fZv3bnI5b0Tn9m8rCCSp3n6UYH0Ili5CeEqSRxIfZOu7HlXlQM7P64ALEzGpKAHYEuUHqHEn1rB4ci1V6e+oo1iviHQjZLgN2+gNYvZfJRihxh8RJzAaEnMVvNRS4te+mt1p3lFr+L4RwRM8Qq1ll9ZYgIQ/87R8moyl1HrOqu+KCv6Jz5jfV2bEDYv5JxfgAwN4iZD3LkN7PMiwUTuKY9p+uf1gzs/rgAsTMaorAzQE0D+yFZoGFwhASw3HkWYNSxxnwWse9m8ChHMjPSQC9y1qDUYAPTzSrshsmNn+6pSEcXspTJzF7dQsmtUwkcCzh8sOqJwpg4IaNarkudRazvhR/Pv0idXbsBOHDku6BtBzk+k+F5GUwK76Pre0/wmGTC5VJa2ZWu1yAmFltId4E+e4uxBwAW7HBqr1TRxnwqOHIwt6Qb8MG0ILIIalDmPV3BL/cVfJystW2GyYNOhLgmELGDaKfrtYXxL0XTBr05dQxzPpa7Jx+iWbP2APSxxTj7YjxKQDrV4TkZTCEk7np0z/AcR/bokJRzcxqkgsQM6spIgYh0K9NElAobBvgbbCSGtv2NoLvoRd2ehANAJpTxzDrzxZOapnZUGBzPQ6drb4p1b/S/goECISo9d0r5ZUt+sIGmwTG9xUyvLXsSSXrAxIQMjQD+q+bJg4+NHUesxTinI7L1dnxtgh9TsJvIf0DQsR6fHym8F9saJqG4z7lEsTM+i2PuplZTaFUQAgY0Ftg9WLMIejDOP30b+Hii0up8wxIOQ8ieXAtTH8I673rbyVSFEAWU6cw66/+MBlbSvhAOf1Lzqt6YaEd6NmWHD1b1MSoZRK6KnVeq70xeUQA8AzFldW6RrmhfCjEUbHGn6uvJawujoAXnssDhXp/I/S87a6HKZ6et2N8cxnxdADXJ45jlk7nzEsEXKLWcScROA6K+xHYBQx8XZ9bJCCwyKiTUIzLddIZU3HZrCXVC25mloYLEDOrMTUx/FEW8CDJtIdeS2BW2F1P43gAs9MFGaBGtW9C4v0ITL4qIBKI+Z0I2V5pn5MMoLJ0Acz6twa0fA7gkFo8TCELPYvFAlAq63kS/4zCYwh4BpErIrSS0BNBYWkcWOvINYcCQXaVgLuq8fh/mLzhRkD36IYCN+0uV+MK1RN6J2RCALrLQIx4HMTjAJ4GtAxEF8VVEsSAWAP3P1QMe+4vIoQMUAOAJpAbEHiTgK0AbFPMetZDc9XmvUgCkAUUY8RB8yc1nzByate81JnMkuqccZmAyzCmfQyII6F4GBl272k31/GbuKcEGQTFD6O7sAzAxKpmNjNLwAWImdlLEIC6EHUZioXJyFN/shconiUXIH0vxH2J7HCkvr2VBGL8K8BfgWEvKOFeI5QXNc2qKAjHgAi1svBIAFkGQEAecXsu3IKARwL4JGP8R5l8uGnliocO+BqWps5qfaeI7p0hnliqk62viN4CLwClsp7MoxbnOe8n8EQEHkPEY4F8vJjjqQO+vOLx1Hn7yo1fHLSFMmwuYvMIbRuArcs5toC0SwSHNzXwTeUcyGusBIoRELhzEI4G4ALEDABmd8wWMBuj204AORyM/8WsuD1ivm5FiAQybIioMzRm3FOYPeOC6oc2M+s7LkDMzNZEAEIuhWtQLp3BEDZPegtcjGDgMLW2b4fOjofTBRl4iNCGkPUeSJ9QyEDpEkSfjWPWny2c1HycgM0CUBMDIFkA8hwql3G1GK9hrrsKsXjXQV95/unU2SwtCqMaCmyp9ekPAihkQDkCea7fx8grCT1URrj/kGnLqzIdU0+GfXn5EwCeePnXb5hY3JNs3H1VdxwK4NgQeHBgz/+PtUAACgGhHLHXDROahx3ypa4bU2cyqxlzZs4TMA+j2/4Ild4N8lRm2ZuQr8PnGQkM3ARRn9fotn9izszO6gc2M+sbLkDMzF5OCJg7fRHGtF+DEE5bpzeM1USCwJcFnJw2yAATwujk5QcJ5aXHlYffB+JdacOYWTVFYVQgB9XC9EdDAegu6z4GfCOHrjlkStdjPX+lakdKWB2h+JFaP/i8EIByLpVyzI3QD4qKdx48bdWDqXPVg0Omle4CSncBwMLJjZdL2chcHJcFHFArZ4XkAgC+jcRhAFyAmL3cnJm/1P6n/w7bF+ehHD9C4iSEkL3mZHtPCbI1YviKxpxxP2bPuqNvApuZVZcLEDOzl+vd5EfCQpTzVgYOSX4WCDm6Bj5vDhhsbesgA5JuNwX07NeR62eYO30RWscflTaMmVUTgf1DQGPq7WYKAegu60ZIZw6f2rU4bRqrNfMnF/dqKnCrlaXUSdaOBDIC5RhvJXn28Kkrrk2dqZ4Nn7LqfgD3A7h0/sSmzxI8O8vCm1K/TklAMUNLSdpZkxE4BTUyn2JWQ265uIRb8EcBf9SJbT9irnMZwoEAXn1bLAnMwq6IuEh7jD0Md1/R3UeJzcyqxttpmJn9h95zDrL8alC/BhMfe9DzBrWBreO+kzbIAEJ+ohbO/lCePyloQdogZlZt879Y3Itkc+qiu2ebG92JPP6/EdNcfth/Igqn1sIEwNqQAKRlpbIuGjG1a3+XH5U1ctrK85/drGurco4/Ay/cL5RMFABy6EI0DUscxaz2/Xzmr9XZcVAs69OQHgGAV/2MGyOYFYZx6OYX9VFCM7OqcgFiZvZKrrjwUQm3Ks+fT16CkBmI0WlDDAxsbfsGwSz5Lvw9z7lfoXvVdWmDmFm1sdCwr8BBKV92SCBGPS9o3ogvrfxTuiRWyyQcm/ru/7UhAUn/lvC1keeu+GTqPP3V0Wdi1chpy/eT4u9TvzXuLeL2hLKd0iYxqyNzZ1wQHy3uKukaSEsRXmVJMC8DhYbT0Nr2ib4LaGZWHS5AzMxejTQXwK3J73MTQGAjtLafnTbIAEB+oAYKLyiPSxS1GFd97z8OKDWz/ibuAmlw8hvryQdGTu3yzxl7RQR3Tz0g+XKhp/x4FohfHzFtxbmp8wwEI6d1HRGlG7OEqwkSUCxwI0lbpUthVodu/FaXOjuOQY7JiPkDAF5xGoR5GSTPx5hxo/oyoplZpbkAMTN7NXNm3iNwMaTlaUsQAeBggsclDNH/tbZNJrhx0jNfgJ4PIdRi5LombRAz6xPCm0E2p5oAIQBFrIrS9WkSWD24cWJxf5Kp5yP/AwkI6hgxdeU3U2cZSEIsn1KOuj9lCUIAJLZceD6a06Uwq09x7owLYh7fJ+mXkJ4D1/LNLIEMLRS+htHjW/s+pZlZZbgAMTN7LTFcLumB9FMBAIHtPIZcPWQ4AUj8IZoE8vicgBtx5cz7k2Yxsz7CTUk0JFtYJgBqeRb0w1QRrPZFFg5IneHlihkQI37jyaW+N+zc7r8x8tt5RHeqt8hRAIRt9HTT5mkSmNW5ubNuUcQHBcyU8gdeuQTBrmScgtFtJ/d9SDOz9ecCxMzstcz9zi0gFkFxVdIcEkBsQfC9SXP0V63tnyawXfKiC4SI+xCzKxIHMbM+IqAlS/jSw55fq4ZP6VqULoXVPu6WOsGaSKCUawUVJ6bOMlDl5fK1RPxNIdGqggQI2IohG5ImgVk/MLfjac2e8QVFTJDyP0GIa/s8RHIvMkzAmPZTE6Q0M1svLkDMzNaBcn0fwL+TL46TIDnU+7BWHsljAKTf/kqxC8IizPnOnWmDmFlfCUx70FTPTdR6PGUGqwPCdqkjrKkQAEReMWxa102pswxUh3511QMSflsqI6Z4ERMAEpuFGAcluLxZ/zKn43JFfEbQdyF1rW0ahMRQihMxyiWImdUXFyBmZutibsdCSbdCypPmkABoVwBHJ83R35zYdgqBXdMXXAEQHlVR308bxMz6khK/J+/50YJnUmawOkDU1DZDAoAszk2dY6Aj9GcQt4QUr2ICIG4UEZoSXN2s/5nTcatWxS9ExTbF+DTW8o1NYidm+BJGtX0gQUIzszfEBYiZ2ToS8m8AWJZ+kTwDoT3ResawtEH6kRiOBfmWGpj+yEXcjp923Jo2iJn1FR2GgoBQAwdLl1IHsNomaKPUGVYLASjluheRD6fOMtAVu5tvg3BPSPD2WABADYpUQ99f3ayfunrWEnTOvESlbE/l5T8jK/zH30KGbZiFmRjTdlyChGZmr5sLEDOzddV54XxJt9XAIjkAjgCC33BWwonjWwOxd+oYvcXak4qlaamjmFnf+c2xaPQbcqsHBBtTZ1gtI0Dh1hj0ROosA90BX1uylNSTyQKIDSHzuoZZxV11wRPqnLmf8tI3JOElNwFKILkRFeZi9Lix6UKama0bv1EwM3sdBEwCUE6dgyGAwH4Y075n6iz1jjEeBXL39MWWIOgOzLno9rRBzMzM1kIopo6wJhKPZxt2LUmdwwAJz5bKWNXnQyACQGQx97qGWbVodsfnRZwo6R8vOSBdAgMDA36GMeN9Y56Z1TS/UTAzez06O/4k4C9rOxSuT0WB4KEQRqYNUudGj3sngAOQ9vxh9F6/S8BXEgcxMzNbqxrYpu0Fvetvzw//LLoSRzEAILsArUz+dsrMqmN2x2zleauoX0Ja9pIShAGUvps2oJnZq3MBYmb2OgXhnLUdCNe3BGTZIIIjMbZty8Rh6lZgPJTEfj3biiVEQMLtmN3xx7RBzMzM6oOIPHUG68GICCDxmykzq6q5s25RednJUfqOpH+88HVFMHALjG7/ZsJ0ZmavKvUKnplZ3ck7Z1ypcvmB5IehKwLQ0cizvdIGqVNj294m8p1nwKpDAAAgAElEQVQIWfL7FcUAieemzmFmZlY3vNxeM6JXFcwGhnmXPovOjglSnCzojjX/EgPfByj55yozs7XxWxUzszeAxHcUsrQhJLBQ2JRB70wbpE7FbD+CIxBTT38QiOV7MWf61WmDmJmZmZmZvYbOmZeImCBh4eqbAilsitHjPp84mZnZWrkAMTN7A2LAlcjL/0g+BRIjEHUqRn96q7RB6szo07eidAJCVkgdBVkBgs5PHcPMzMzMzGyd/LzjFwI/K+lmMABEE4ETU8cyM1sbFyBmZm/EFTMeBPV/qIUpkKywNVg+Om2QOhMbdwZ0HGLi7cNJqNz9KJqyn6YNYmZmZmZm9jp0Tr9RwIcU87uQFcCAt4TR7e9PHcvM7OVcgJiZvUGK4Trl5SeTT4EogtDn0oaoLyzgNGaF9HvUhgwSLsSPpz+XOoqZmZmZmdnrMnvGverGccrLN6PQsLkCP5Y6kpnZy7kAMTN7o7pXLQBwGZj4pVQCiw27YdQZ+6cNUjcykB+piemPvPwksuzatEHMzMzMzMzeoKtmPKjZMw6Mpe6LIL01jB43MXUkM7M1pd/73MysXv3i4hVqHbcIeflphrAJpHRZYg5m2VcFHJkuRJ1obT+PgUDi/gMMgPIfomvlPYmT1K6xbYNR5q4gBoMhzTeYIiEuxZwZtye5/kC0/+lFvKV4Ksh9keo7lQiQHkXGy3HFjAeTZDAzMzOrJ50dn9SJbVewjO1SRzEzW5MLEDOz9VHGH1HEr0F+IG0BEgHpCBz7iV3wi4v+li5I7SP4ccSYOAShmD8jxvn4xcUr0oapYeWwEwO+DeEASOUECdjzP80X8J4E1x+YNh7SQK4cxWLxmGTfqyRULt+nyBsAuAAxMzMzWxc/n/m7xJ+0zMz+gwsQM7P1ceWMx9Tavgh5fC8DN0pZgpAkGouTBHwoWYhaN6Z9EslBScsqACCBGK/FynhT2iA1rtS9BI0NDcxCc8r/ZooalOziA9FGeURZZcQcKQsQUCUI/gxvZmZmZmZWx3wGiJnZ+oq4BsTNyQ9D77n+u3DMJ7dJG6R2UTg1dYae6Y/4rIiFuPrCR1PHqWmF4nJAOQRASveLqRszsz6Q+EeYmZmZmZlZNbgAMTNbX3M77pOwEHl8LukKkgQCb0Jj+O90IWpYa/unSW5TE9Mf0E0I8bdpg9SB+/79vO/AN+sj8ucCMzMzMzPrf/xBx8ysEhR+JuJ+hORTII0kjwDGNqQNUnsIfBBAY/IUMX9eETfiill/TZulDtx9RTdIT1+Y9QGBiV8fzczMzMzMKs8FiJlZJcz5zp0Ab0KMXamjENwWo7c4M3WOWhJOaDuN5PbJtykLhMC7ETU3bZC64gLErMpIgMS2qXOYmZmZmZlVmgsQM7MKUTm/GMBjYMKXVgkgNwZ1dLoQtUdZ+BCATZJvfxXzboi3Yd7M29IGqSNK/R/NrP/rrYaHpE1hZmZmZmZWeS5AzMwqZd7M26R4KxTLqaMEcscwetwpqXPUgqy17USSOyaf/mCAxPuleHHaIHXGW2CZVV3vN1lxwaTGI9ImMTMzMzMzqywXIGZmFaRi+BKAp5IutvdMgWwn6rh0IWpHBE8CsH3y6Q/FsqQ7Mafj1rRBzKyWFJchT50BAgi2SFlr6ihmZmZmZmaV5ALEzKySfjrj9ijdlnyxHQSI3XFi+7GJg6Q1evwxAHdLP/1BCHoCMZ+RNoiZ1ZrDp2ClgJjyVUoASDQG4rCEMczMzMzMzCrOBYiZWaXl4cuQVr6wq3oKiqC4ByMG9HYmpI4msRsU0wZRFMQ7Me/C69MGqUfeAsv6P6oGpkAACNhiwaTm9tQ5zMzMzMzMKsUFiJlZpc2bfr3AW5JPHWQhADgArWcMSxskkTHjDwWxP0LIkuYgIXGFIi5ImqNuJS6vzPpABJ4rJ36qRwEANwU45sYvDtoibRozMzMzM7PKcAFiZlYFkqYoJC5AYgTBAwOz4WmDpBGgtxPaF7EGFtCp2zF3xrWpY9StxN9KZtUWyL8Cei51bx4IQNgvFqKnQMzMzMzMrF9wAWJmVg1zOn6DculuMPHLbJY1SjgUo8bvlDZIHzth3N4CDkXIGlJHAQgJ56VOYWY1LMZFEJem7vqigBC4IcBTFkxsOSVxHDMzMzMzs/XmAsTMrEqkcB6ytLsv9Uw/6N0IcZ+0QfpYxv0BHZ58+oOEYn4fOjvmpA1iZrVs+LldnaCeTz0BAvSUICS3A3D2grObR6XOY2ZmZmZmtj5cgJiZVUt3Plel7ofTngUiMCu0EDocx57ekjBI3xnbtiVDfBdDIf30R1aAoK+njmFmdUC8OUZ010AHAvWUILso8KL5E1tOS53HzMzMzMzsjXIBYmZWLVfPWiKGDiQ+gxuKAMKpyBq3Txukj5Sz3SC+HzFPm4OESt1L0Dnz+2mDmFk9YFjVoRo4B2Q1AQjk5oWMP1gwucVTbGZmZmZmVpcKqQOYmfVrefn3QnyUDNtASpNBAguFIWJ5NIC704ToO0Q8iaGQJS9AQoCkL6cNYWb1YviU8qIFE4s3R/A9qbOsJgG5gGLGUYunDFIp14/F/H8D8EDeterpQ76O51NnNDMzMzMzezUuQMzMqmlV4U60xMtAfi5ZAQIAMQehMwR8KV2IPnDCp7ZHyE+tibM/8vwZBF6TNoiZ1ZOgrjMjWxaR3Cjlj4yXK/X2ycWMJwuFk/NcD4TG5t/Pn4Q7GLPHEbQkSM9C5ecKsbCsK65YWW5E1+FTsAo9wyRmZmZmZmZJuAAxM6uma6evUmv7QuTxCQZukXYKpGEbjWl/H2Z3/CxNiD6Q5aczKzQiL6fNwQAo/yFQeDBtEDOrJ8POxd9uOBs/bCxifCnxENvarM4UyB0LGXcMBLpzIUY8GoFHwMIT3QUtKaBlRRaxasFElknkiSvpVxUAgJCAyJ4z4COkcgC6c7FExJVgeJ6Iz+a5liBkS5YtW/74e76FZ1JnNzMzMzOz1+YCxMys2kqrFqDY9CuQpySdAslzUPi8gH5bgJA4PfnWVyQU82eE+Dtc8a2utGHMrN4ccu6KM+dPaj68IQt71WIJAvS2BGtkywK2IbkNCRAvHmJSK+eZvH49wRmBPLIb0LMCnwkZnwGwdMgGLc8snIylkpZG4TGSDxZL5b8d9JXu+9LmNjMzMzOzl3MBYmZWbVd97wm1ti1AxHtJbpZuCiQC5P444YwRmDdrQZoQVTSmvZ1Ztgny1AVIAGL5l8jirWmDmFndYvzvUpk/yjJuVtPjE72i0G83uiLYQGJzEJsTPdUIe5udUpkK1JMA/1UuFp5cMKnwHIXHo3BzlpVuGTaldEfS8GZmZmZm5gLEzKxP5PmvUODxYDg65RQISSALEwQckyxElVA8sybO/ojlpSKvxxUXPpo2jJnVq5FTVv16wcSW8/NcE0NgS+yn5UI9EHoOg19rwUMwkJuT2JwgSKA7R5nEMVENzyyYVHyGwl2B+PXBU1dc3cfRzczMzMwMvdvemplZlc276CEJCxHjs6n3BCE5DMd/arekISosjG47hcAOSbcYA3rP/uACAH9MG8TM6t2vpq34uoRZuVAOdbuVVP8XBeQRKMeeM1ICUAjEdlnAvoE8QsTHcnHWgkktf1k4qfl/b/hi45GpM5uZmZmZDSQuQMzM+kqmyyXck7QA6SkIhqBQ+n/pQlSeyDNBFNOmIBDzLgA3Y/aMe9NmMbN6NwWI6l4xhZBLkDoivFiKRAEkW0LAmwO5lxBODoXs8gWTWh6cf3ZLv/o5bGZmZmZWq1yAmJn1lStm3g/EmxFjF5BwJYssBPKwdAEq7MT2Y0lun3qyBoGQcJukuWmDmFl/ccjX8fyIqSvOpDQjRnRnfuded6TeQ+MFEGgguXEgt2fglxdManlu/sTmSxdOwDapc5qZmZmZ9Vf+GGVm1oeUF8+XcH/K/qNnH3Nuztb2ryZMUTGMOAvAJsm3v8pjSdStmNPhw8/NrKJGTFvxGSH/Qh7xRGDSCt3Ww+rzRHrLkEByg4ZCOAXZoEfmT2z+1fyzG4+a7M9nZmZmZmYV5TfYZmZ9ad4FD0m6FYrd6UIIYBgM8qh0GSpkVPuxJHdIPv1BQsC9AH6YNkg/5QOgzTBy2srzidLHo+LdAuQtserb6jKklPf8eUMhHMVQ+NVRk1o6F05qHr3wM9g4aUAzMzMzs37CBYiZWV8r6NsSn0i7aC8Q2ia0tn86YYj1xgwnAdg6+fSHVAZ1J2Z33JQ2SH/ktypmqw2f2n3V8MVd+0m4OkpLCpmnQfoDoacIIYCGjCdI/IkGN39j/qSWY1JnMzMzMzOrd15VMDPra1fMvA3AzYiKyTJIAMPmAt+VLMP6am07HMDeYCgkzdEz/fEvRfwgaQ4zGxB4LVaNnLb8OAhfL+e6E0Dus0H6hxeKkMDGxmL4CIXpCyc2T1t4dsPQ1NnMzMzMzOqVPy6ZmSUg5ueJWJF+6yYNxei2k9OGeKN4PMVdkLBHAoCeIkt3YE7Hb9IGMbOBZMS0FV+FcIqAH+VRf88C4G2x+gcJWFUGsow7CGGCQvGb8ye2nJY6l5mZmZlZPXIBYmaWwuxZCwAtTJpBAsEdifD2pDneiDHjDiB4ILLQmDQHCVDLRV2cNEe/Ji/pmr2CEdNW/HnE1OWnBfHsmOtHUXiskLkI6S/yCDCAJN5L4pyFk5rPvWsyBqfOZWZmZmZWT1yAmJklIuTTlHr3dgaA2h8nth2RNsjrFHUUiP0Qk5/9AUXcjZ/PnJc2iJkNZMOmLb88K6/4dFT+uVIevxujniy6COkXpJ5fgdxO4JlLY8tF3hLLzMzMzGzduQAxM0tl9oXXI8ZbwYQvxYoAuT/yMCJdiNdpVPuuJA9mCM09O6anJcZvpc5gZnbQV/D0IdNWXta9vOuLEj5YLscpUXiouYEoBB+WXu9iTwmyAcj3gYUZf/picZ/UmczMzMzM6oELEDOzhKQ4FVmWNANDAKkRGNO+Z9Ig64ocCeLI5NMfJBTxD3TO+mnaIGZmLzr8m3hq5Lkrfj18Wtc5RZaPWLFKHyjn+A0JNBaBLCD58VP2xkQBJAoIfGchK1xy0+TmbVNnMjMzMzOrdS5AzMxSmjNznkqlvyddjYoRIN8D4OB0IdbRcR/bgkFvZ8jST3+EDIr5F9KGMDN7ZQdOWfXAyGnLLx8xbflRB09ZHlaV4rhyxM1RKBM9RUhg73FGqcPaOlm9JVahEPYtR/7+pvEYkjqTmZmZmVktcwFiZpaYhPOSboMFgCEDhSNxdNuWSYO8lobG/QGcCMW0OUioXHoW82ZdljaImdm6IaARU7s6Rk5dfuDIqcuL5bI+qohfSnpK0nMCVgJACC5F6kE5BxqL3CV/U8tvUmcxMzMzM6tlLkDMzJKL1ynmD9fAFMgJaEFNb4PFyKOYFQdDqac/AkielzbEACF5DdasCg798or/HTFt+XuHT12xWUQ+KiJ+C9IfY9QDEv6pqKcFdJE922ZlvcWIy5Ha0V0GGgo8aP7E5ktTZzEzMzMzq1WF1AHMzAa8OTPv0ZhxPyI5Id3CvsCs0IxS93ECfpcoxKsbe8ZuiDgJMU+bg4TK5SVC/EnaIGZmlXHI1FV/APCH1X8+f2LTcIr7hYC98qhdRQ4G2ASoheAgQYMgDsoyZC9094l76ddLvb+g3j+us/yrlXIgkB+8YeKgvxwybbmLeTMzMzOzl3EBYmZWC4TrlcdHGLhtslWYmAPkyTjmjCm4etaSNCFeWcjDWBQKmyEvpw3CACj+GPts/hA600YxM6uGkdNWLgSwcM2vLTy7YSiR7VKm3hJC2AqKW0ZxI0UWCQT1TJYHCSR7ZhpVixNcBCFkIFoADAE4BNKGWcZBgS+WIS/8Sp33NUgAyUBg/E0Tmm84+EtdN6bOZGZmZmZWS1yAmJnVgqZ8EVZl14Lh41CiCQcJLBQ3JfMPReA7aUK8MgHtrIXpj7y8RAHXYsqUxAeRDBC1t3xqNiANP7f7HgD3vNbft/B8NIelKHb/G1njRgihu7a+i7MGsCs0tURwq0KGbaK0hYDNyzk2C4EtiBoiYlMIbwa5XUMBIUYgVw1PiQigsE058L8BjE0dx8zMzMyslrgAMTOrBZfNWqIx7fMRy8eRYcuUUyBS/AxqrAAJreNOQqGwZU1Mf0DXooTb0gYZSFIejmNmr9fwz6ILQFfqHK9uJQA8vLa/csPk5q0LEW/OGbYP0narytia0p4gRzQU2FLOgVhjRYgAhIAsFw66cXLz8cOmdF2ZOpOZmZmZWa1wAWJmViti6dcIDSeAYXTSKZCQba8T247Cz2f+Ok2I/yRoUvLpDxDI8+VC/BOunPlY4jBmZlYFh0zpegzAYwBuWv21GyYW31pA486rSvneJE9uKnLn7nJtFSESQHDbKL0fgAsQMzMzM7NeIXUAMzPrNefixwkuRIzPpL3pXWDOqQkDvFTruHeT3Dn53iMhQNR1YLgubRAzM+tLh0wr3T5s6rLZI6d1nVMmx3SVdE6MWlrMUid7kQBkAUHiztdNLO6dOo+ZmZmZWa1wAWJmVkNiST+WdFvSAkQAA/fB2La3pQvxIiJOBZh8mUl5XhJwE2bPuDd1lgHGW2CZWc14+5Tld4ycumIKYjy6lMcFxax2XqQkIJDbFlA4PHUWMzMzM7Na4QLEzKyWXDnjMSHehJg/n64EEQA1MeeURAFeNGr8UUTYPfnqEgNAzEcsz0ucxMzMasCIL61cQBaP6y7rF2BtlCBRQCC2IrBv6ixmZmZmZrXCBYiZWa2J2fcl3Jc0AwNJDsPxZ+yWNobOBDA4+fZXMZYk3YE5F92eNoiZmdWK4VOee6as8mch/UGojRIkBIDg4NQ5zMzMzMxqhQsQM7NaM3f630UuRowrk2WQAGkIC9mZyTKMHX8YiX0QmPZnFQME3AtgdtIcA9HYsQ2QamFN0cxsrQ47t/tvUXEygDtq4Uz0ngxsWTyh6c2Jo5iZmZmZ1QQXIGZmNSmbJfLxpGeBhNAE6u044YwkiyiM8TQAm9fA9EcZxO3o7PhT2iAD0bY1tLu+mdnajZy28vqMugDQspQ/tgEAAgQ1lBk9BWJmZmZmBhcgZma1afYFd0BaCKmcMgbBbRHCR/v8wqPGHwRxfzA09vm110QCxGOK+eVJcwxYj2SgGxAzq30HT1nxvwBuRS2MgRAZMxVTxzAzMzMzqwUuQMzMapRiPF/CimRTIBJAbsTAkTj+Ixv06bUZ/4vEzumnPxQl3IU5s65OG2SAatjS71PMrH5IP5XSVyAEUI4uj83MzMzMABcgZma1a+6sWwD9KXkJAA1FseXkPrvc6LahDNwPDM1IuY7UM/2xVIj/my7EAPdsOUsdwcxsXcXu8nUgfHCRmZmZmVkNcQFiZlbDlMVzkp4DIoEM21A6pM+uSY4CcEDS8gMAJEh6EJ0zf542yABWDAFeSzSzOlH6WumvqTOYmZmZmdlLuQAxM6tlV8y6RYo3gYlfrsm3oXXc8VW/zvEf2ZrAfgxhcPrJF5QlnZ86xIDG3BMgZlY3DgeSnttlZmZmZmb/yQWImVmNU/j/7N15nFxVnffx7+/cql7DDoIijisuuAzKQNIJPDLjhisEmUdnfFxm3CCgMyCPIumO3R2VQR8dCImKOrhvQMKiorggkO6A4KgIggqjrLIEAiRdvdS95/f8Ud3QhABZunNudX/er1dDL1X3flNVffvU+Z0lW6SQ8HLtLoVsP3n8+2k/V6XtDZK9Knnxw0wuv1WrVnwzbZBZbjQEecopUAAAAAAAoJlRAAGAsjv79F95nt+QchaIucuCzdURx0zfUlhvfe/upnCQVbId0xdAgkzqTRsCqqSs/AEAAAAAgGZHxwIANAE3/5RSjoP3KJMdJNNB03aOkewgmQ5TjNN2is1iJo/FvfHc5V9NGwSqWJAlfeUDAAAAAIAmRgEEAJqBj17sRfxT0g3RQ5DJXqGjjnn2lB/7qKMyC+F/WZbtlXz2R8hkrmVpQ6AhsgcIAAAAAADYahRAAKAZrPzSbeb6etLN0KPLzA5VYS+a8mPne+wr11tKMfsjz9dF2ZfTBoEkqT4aJGcGCAAAAAAA2CoUQACgSUTZZR6LP6ebBeJSyFrN9EYdddSUjswPwQ6zrLJP+tkfQZK+rZXLbksbBJKkLASxAhYAAAAAANhKldQBAACbqT56lVpavq8QjpMXaTI0Zmj8b2nPPkl/nqrDuus48xLM/iiKDS5dkDYIHpJZkLMLCAAgrUuWaE6bOj7g0XYKinnqPBNcIcjiHfP6hlm6EwAA4DFQAAGAZvH9M2t+xKJBxXyhWdg7zWwJl2WVdhX5O11aMiWHPPKYN1ioPF0xUVFnggUpFhdoJP42bRA8pB4CLRUAQGqH9mrDFYv9Wg9+ZlTYyaTEjZYGl0wKGljSfsD83uF3pM4DAABQRiyBBQDNJG74kWSXji/VlChDlKTjp+pw5lqafOkrSV7khUs/1w9X3Jk6C8ZVM2P+BwCgDOYuHb4gmr9Z7lmWqVOW/sNMHcHUkSm8faCn45zUjxEAAEAZUQABgGZy/lfv9+iDXhT3JNsLxF2WVefoiGP+eZuPdfiieRYqL1bq5a9CkMwuVBYvTRsEj+SZ2AQEAFASC3pHVnf111ryPN5rktzTf8Tx/1eCHTnQ3bE69WMEAABQNhRAAKDZVGrfk+vKpP3CsZBZ6NnWw1iwpVIZZn/Eusd4pc5ecWPqLJgkGO0UAEDpVIK9MEa/XlKy8SiTuRoTdLNg8wd6Oq5a3d3xktSZAAAAyoKOBQBoNmefdY+bXyUvHkg6C0R6tg5f9PqtPsaRiw4y09wpTLV1QpBMaxTCT1NHwUZyBbmXoGsJAICHHdhbuzOqfpTkq92Vl6UI4i5lZgdkZl9Zs6TjNakzAQAAlAEFEABoRkX4psuuT5rBFCzTv2313d1OkNSafP+PGMdculrnnnF12iB4lJAHWRm6lQAAeKQF/fXr5PqATD9y10gowV8rV2NJrBD0t3J9enVP57YvVwoAANDkKIAAQDM6b9lNcq1R9KFkS2GZSW4v1ZEf6Nri+x6x6KUyzZNZNg3JNp8FuewGFfGHSXNg00IL7RQAQGl19dd+HaSTTX5udNXKUASRpCJKWWb7BfnHBrvbj0mdBwAAICU6FgCgSbnHL7rpjmRbgbjLTDuYimO39K4W7P0m7V6C2R+53H+j81b8LG0QbFKRB7EJOgBgU8x2/NPpak0dY27v0DUW815z/0p0L00RJC+kSrBnS+Gjg90dH5nOcwVJspn19zqmDiBJPrMeUwAAUqEAAgDNatWK6yW/XB7HkmUwq8jtZXrT+16w2fd5/bHPk+tAmbVNY7InZibJb3OPK5PmwGMzYw8QACgJa6ywVArRJXd/5l23t+2ZOoskzV069icrrE/mny7cS7EcliTlUcoy7S3TiYM9nadO13kKV5ass36azhtcefKn0ayaR6+mjgEAQLOjAAIATczz8P8k25BuM3TJTHurWnnPZt+nRe8y07OSd6O4u5v+qFUrzk+cBI8liD1AAKAsTEXqCBNilEw60FvsyamzTJj7iaG7unqHl7j7v0f3vCxFkCJKIdiuko4b6OlYMR3nMHmHzNq3e9vOJDcVIZv6CRsuSzfASBPVRm8LFbWkzAEAwExAAQQAmtn5y37vUZfJU60l5ZKFTnMdqMOO2/EJb/7aY/Yy6QBZmJN0IKmZ5H6vR52VLgSeUGHj7ZTU1TIAgLvXU2eYEF1qqdo+VVcpZoBMtqB/+PNS8RpvbEZeCjFKwdRmsvcMdLd/e6qPH0w7VjO1pPhrbe71OA0rVgX5g0kXoHJJst1M1SduXwMAgMdVkiYZAGBreTF8oqR6uq0SXObaV23x6Ce8abu9w6T9k3dou+Su27Rq+XfSBsHjMgsSS2ABQBmY2QOpM2zMzP42dYZN6eob/Zn72Etj4Q+WpgjSmLVbMQtvGezuvHiqjnvJEs2R2W5TdbwtZhqLhU15AcSktSkbILFRQNszepHusQUAYIYoSXMMALDVLvjyjR79cqVaa8Fdyiq7m+kQaUnlMW932HF7mGyusmyXtJufmyQfNvmnE4bA5oh5kJdhCSzLUycAUH5Xntx+QAkuWHJJlTD1Iw3M/d6pPua2KKJUmF539XtVyj0Suvrrv5b08hj9RlO6YSqTeaMIohD0ysHujtWDJ8153rYes02dB8j1wpigaWeS5NqQeTHly1VF6fbULZBKkILbHmlTAADQ/CiAAMAM4MpPSBsgysz208J73vaYt2nz18v9IPmUD9LbMo1dXG+Lq1Z8M20QPCGzcrRTXCw/AeAJ1TMtlGTJF+1zFV7YlC9XFd1um+pjbosiStWKHVh/cvv+qbM8lq7+2q/N4zvd/SqXYuoOdalRBHGXsszmqxK/ckVP66HbdkDt766XxQTNO2tUlu63io1M+cGj3Zz6+YouufSywZPb/iZtEgAAmls5OhYAANtm1Rd+60X8jVL1F7tLFv7GFBZs8udHvXcnM823rPLktLM/JMlkrv9MHAKbw1WXJX7BmEmmvZJmANAUzG2hLP1AfzOrK7PhqT5ukG6a6mNuM5ei7MTUMR7PvP6RAVc8Qe6XeFS9DJujuxoFpEpmB0WFTw/0tB+5NccZWNz6LPf4ikolXeHPXPcrhil/vVsobkm9YmsRJZNe7pXsWWmTAADQ3CiAAMAM4WanKvVQNfO5Ovzowx71fW/pkvk/pJ/9YfJY3BlXnrEibRBslhgekGws9cIhJmvTkcdu8zIhAGau1d0di80s/Shtk9x9dN19o/dN9aGLUFybukN4Y3khWbQjB09uOyR1lsczv3/k8kJ+suQXumu0DEUQScqjVMnCS03WN9jd8S9ben+z6qtl4VVFoubd+AyQu8c83zDVxy6UrR3LfUPKprW71Fq1nYP74elSAADQ/CiAAMBMUR/6vsf8unSzQKJMtl8I2dIeIdgAACAASURBVIEb/cQUfYGF7OnJZ3+ETO46M20IbLYxu1nSaNIMjddshzy+PWkOAKV1RU/nK4Pp7WZqS/1nziRZ0Mhrl+nBqT72gr7RixqT4srDJWWZzEMo/b5eB/cPX5mF0C3pWzF6KWaCSI0iUjWzF8jUPdDdefzm3u+qJa3PlMUPZkGVVK97k+TSnTtmo+um+tgxFg+69JvUz9NYIbn09quWtHWlTQIAQPOiAAIAM8UF/7Xe3M/ylNsmhCCXv0JvOuZvH/rem459oZkdlbz4YSYv8g2q15elDYLNdtGyB+VeU/ohx+0me1XqEADK5/KTWl7g0omSPSv9pUqq53KPun+6jh/d70892XRjRZTM7O8Guju+nTrLEzmod8PvWy0uluy0IrqX5bGsF1Il2NPN/KSB7vaPbc59xjycVcls31SzP6TxVSpdd+/fO/Wv+aIyco+kq7LEPSbuUiWznUajMXsZAICtRAEEAGaQGLPLFfM/JlsKK0aZ2QJVwgsf+l5F8y2E5yQvgIQgKX5D3z9zbdog2DL2J7lP+dreW5hBJnueFh77qbQ5AJTJ5UtanxkqlY+76+/NFFLXPxp/+n2tZNO2V4fJB0IJ30E2ZqbYEYPdnV9OneWJvLR3+I55lw19RGYnBFPy1Usn5FHKgu1uZscPLu74zOPddqCn47zMwiF5sb3SPZpJGsslN7t3Oo5/aK9GXPpd6uarNDFLJ7xksKf94tRZAABoRiVsvgIAttp5y34pt1UKWboMIZO5v0lv+uDOkmSuY9KPijV5kRfuVvrRoXgkD/qFpHvT9hC5FKzTTEfqiGP+OWEQACWxprv6oixmXzCzN1lQVoZO0tDYD+HO3PJfT9c5LNr5WUk67CdzlyyoVaa3DfZ0fCt1nidil6qY3zf02Xr0d5rGn7sSKKIUzHZQsPev6en8yqZuM9jd/pMge0Pql7yZJPebTfGO6TpH8Pg/9cL/VIbnJ0ZJCq8c6OkYvOYj2iV1HgAAmgkFEACYYTzYGs/zW9PNAimkEN6sSr633nTcwVapvCj55uchSLJvK+q6tEGwxc4542x3fyD5qvPuMgvPsGAna+HRb0wbBkBKV/Z0vtXVclEI9gqTrAzFD2liFoTWHtI3+rPpOsfcpbUvlmXGwsbcJTO1hGBvHezpuHKgu+3g1JmeyIK+2ldjEY+I0Wupl1qaEBuPY7uktw12d6ya+P5Ad9vBgz0dfwghvEJSSP26D0GyYNdlHv44XefI6yPXSPp5JeG4ogkTD3cWbN6Gls7rB3s6P5g0EAAATaSSOgAAYIqdc9oFOvK418js/amWnTILcvf3WBYPUEzfU+IxL9zj93Xe56ZlmQRMM7Mfy+MzJbUnzeFRFrLnq7Az/chFT1d9+Cxd8F/rk2YCsF2sXtL+FHnczzzrbmnRwaP1RkdxWZhJeeEb3PxX032u4bpfVg12SJ54bMOmuD+0Z8KBeR5+OtDT8eVg+tLuu9Wue84HNJo636Z0LR0+74qezsPzqC8F09Pk6Xe+Gi8mZcHs8IGejkvlusXM/rES1FKW573RuvQbD+yvTdvgloNP0brV3f6b0dxGgqktddFHaswECaY9K5n+c6C742gzX2ax+HnIxm4/qFcPps4HAEAZUQABgBnH3P3YqxWLO83CXkmKILGQub9PIbSVYvZHEX+gGKZtSRBMLw/xUxbDm2X2tOR7ycQoC7anXKep0rHAjzjmO6q0XqmzP3t72mAAptLAks4nBflTi8KfWgn2/Og6vLVSmVtEaXgsdbpHM0lRur2q/JvTfa4Q9bWQ6ZDpPs+2yAvJgrW0Zjp6JPe3rL2n49trevynZuGmub1D16TOt7G5fUM/GVjccbQH+6SkF5mln1nk44WYSrBDzBrLY5Wm+GFSvfD7gvu07XczIYTiF+b6WWbhdXkJCiBSo/g6lkuVzJ5bzeyM4brd4TG7eKDbBoLrtsL0V89rdxz8Sd2TOisAAGVAAQQAZiLPL5Sy18nsiFTjCM2sLXlntSQvirrLL9N5K6ZtiQRMs7NX3BmPWPSDEHR06iiSGsthSVKWHaXCX6eifp4vXHSV3G+Q8t9q1Zl/TR2xqW24IartGekvHtvJJUs0R9KcrN5hUi11nM3WVpXXpaih1Em2XLVToVDrnErMdhhTnGMWOlw+R7IdTbarTDsG194uPc+CvaxSsbYiSqN56uSbZpKiKzfXbw/sq/9mus+XZ/nlXlRvC6anlmkWzMbcG89ZZrZLpaJjRut2jLn/YnBJ59Xu8RZJt5jbLZW8dsuBn1TyGaLzl9Z+uLqndTgoW+Ju80xqKcPDW5Sk6DFZZlIedY0rv2S6z9XVO3bDmsUda3L3l1uwzhI0bR9SxMZHZvaULLN3BtM7R+t+b5B+Z5X2G9f0hLskf8BdD7jFB0x+fzAbqscwrDwfDpmN5lLMMiuyfKSou0r4bM8EHQpVtwW9w0+4X82ak9v3rvvwNj0PLeqMcz8xdNfk712yRBVJO+9Q76jWHtHW6JDNqeUHf3Tzi2Wr/0M76N72HWJleNJvQ4ckabSo1V75H3pgW/IDwHSgAAIAM9Gqz9/tC4+9wjweIrPdylCISCIEKcYrJK1OHQXbaNXyY3zholdaCM8uzes5FrIQOmThnxSLf5Lsd7Lq9Tpy0d0uu1Put0h2t1x3atTvV8v6DTrva8k72UrvootGtXDRrGmjtnr7YXK9Vpk6zDpK8uJ+YrlLweUx7cJ0W6Vo1DDb6tIcs9ApWYdJc1zaOZh2rWSNzvPoJo2PtC4zMym67rYYT9se51ugsRuv8OwbWRY+EovtccZtMzFaPpiUBXt5CHr5WG65pP+RdEts6bh7sEfr3TWqYA8q+nozH5WUe1Tcnrtmmtuom6826Vkye2rytbBKyCTlhdcVdO283vrvts9Zw0opHmrSP5TxKYne2IJPkizYbsH08mD28sbMHVNR+JB5uE/m64poQxVp2CvZiJvVq1I0V/SsI1ZFAWQ6uMvkZlcep3cftOzxlymLmS2vqmNkq88lheh+r/TIQUPVouVZIau+vZ75vlXrKCbf3kc61rpqx9pmPv9hqPNfvM0Prqrjob+O42OD8pC1Xy4Nf35r8wPAdJk1by4BYPbx77rs9SY7OP1q0okUsS7pSq1cfmXqKNh2LvVJ+lr6XWUmcZe8aMwICfYiWXiRJKmIQzK7W+4PKNh6tdmItGOuIxflkhWSvFHIscYvp8kf+lxxE7+yNg2/xP7ED2XjH7b59/PH2q1+o/s8chflR/7M3Ux6SWkKXdPMXC92s39sqVhHmUfTb0qpfhe3gE/6ZOJzd5Pr4c7yZjE++8Mlv7Dr4yOD2+WcvYqXnxx/7IW9OQv27DLOENgU1/gSTlEyWcVM+4agfc2kbPzn9UK5SUOS1eVWBNvOHcImNf5G+C6z5BK4xRorm+rGTMWF2+uc85ZuuH6gu/OC6P6iYPakMl+r3aXCpcm1SQvWaVKnme0jTVy7rXkv4k3G1CjAjuyqY6XHL4Ds2BbeNFzf+hdYMGms7vdoowJIJQt7RNdhLS22/+RrdjBpLPcHr+zuHFT/0Dee6PhrlnS8VO5vbqvagslL4pmkeiGZWS6JAgiA0qEAAgAz1crlN2vhMavleonMdpx1RRALchXXe+E/SR0FU2Tl8q/7wmNfYZXK21WUsIdyYvddSWbWKdMzZOPFgy0aQZxNebSptR16TCY9ljNdlApz1evFrPknYwqFIBWF39ARah/Znuf96cdHL3tNd/s5RWEfNpuWCu20ck3M8nnk94NUUbCdpI3rtNuP6eGCHB7JJBVRYy6/4qDe0Yu357nn9w+dPtDdMS9KR5qp2kzX64n9XHhRpROCNLYZMyzyKBWbmFn3WE/dxpepGCQ3q298u9g4d54Xm1rWzuZExbdKesICiLsdLPcXjeaPbLOM56ibVMIGOgBs4dtxAEBz8Xr4ostvT/YuPqUYo2TX6LwV2/UNMqZZ0bLYi/qgQtmLBOMd+B4bH5GPLfpopp4lIJHx2R+SFf++f6/u357n7pWiCjtb5pdVyn453gIThZGJ4kiqD66AmxaCJPktwfIzUpzfpVPkfuMsbFVjO3H3xnVo0kejXrGpq0Jj05ZH3P6h/2y+EBRk9pzLu9sPerzbrfmM2l1xv0rFdqKZBqDZUAABgJnswjP+LNMvFIutXku2KZnJzf/i7itTR8EUO/8zt7p5r8fipvGeEACYldpaJC/8o119oz9Ocf55n6j9t0vfrBd+W8blGNPMTIrRh+T68rze+n+nyLCgv/ZbM51QRF8fqIJgGozW4xuj/LWTP4Llh0r+ZUnDpodmW4y56TvBi5c/4vaFv05e/J/NOdfE+LhG0URPzYK97XFvf3/rXJMOoPgBoBmxBBYAzHDu+g8zO0Jme82yUdV/1srlq1KHwDQ4Z8XFfsSixVLxWQvZXopNsgA9AEyR9hZTbaw4a/7S4U+mzDG/r/bFgZ6O/YtC77bQXMsCoQm5D3T1D5+SMsK8vtpFa5a0Hm9W+WJjubKUaTDTzOsb3uTeNmu621/tNr7TmkvWeOndN69/5NKtOY+Z5B7vDBb2ii5lmbUX0V983TGas98KbdjUfaLCC7IQJu0h4p5usUAA2DKM1QGAmW7l8ptd8aeKPjt6iRst+juCZctSR8E0WrX8O+5+nMf4Z957AZgtzKQsSCOj8Zw5OwwflzqPJM3vqx0j8++7s6cypkcWpOh+w7z+4VenziJJ83pHv5TnOj4zun+x3Tyq787i1vfnVTPJPJ4Uo9fNJgp59twHdmt/96Zuf8mS9qe624KJmU9ZkOT6heTr+B0A0AwogADALOB50S3z9bPiXZq7PMabinNOPz91FEyzlSvOcS9Oco/XNr4xC17fAGat0Bj5WxTRV+X14sMvOVFDqTNN6OqrLZT8UokrMaZWFqQ8xrvn99WenzrLZPOXDn22KHSqXGMsh4VmY5Jkmcvsa5XQ2HuokmlPmXVt6vYtRdxX0qvz2Cj6FdHvd9OlLhvm5Q+gGVAAAYDZ4Pwv/CW6fjLjuyUaBZ4HQrDTUkfBdrLyc9/1qOPd/VLJi1lR5AMw6wSTomtY0reyWJxw8Cmj/5M608aKeu0odx8wm/GtDWwHpkbxoyj8ZnN7Teo8mzKvf+jDrvgf0X0d++CgCVWymH9rYhm38f8/f01P+xs2vmEWKvu3t9gu7uOzP2RrgvnvjD5FAE2CixUAzBb1yrHyojbTO4jddUVx7vJzU+fAdrRq+U9cekd0/657fEBG8wbAzBEamz/fI/nnZdm/HbR09M+pM23KwZ/UPS2hdniM8achsDQQtp6Z5JKKqGtM4R1d/bVfp870WLr6hnvc/WNF9D8bS2KhiZgUxvLRX+eFX58FKUbJZC+IHh4xC+TKJdrR5UfWi0ZhMs/lkq6VdJuodwNoEvQQAMBsceFpd0W3ryhkqZNMDzO5+wbPtTh1FCSwcvnNWrn8n931affiGmUZvRAAmprZQzM/fiv5J7r6asfP633wvtS5Hs8BvVrb1T/8yjz6+R5VD7zbxBbKguSuESn+WFYcPa9/w1Zt8rw9ze8fPj16/Ii7r/aoOktioSmY7OBTtM7NV1ZCo+iYZQpm2n9Nd+eLJm42FtufL9m8OL78lcxvVIy/LOhPBNBEuGABwGzSOrbE8/ymGTlCPmRy6UxdcMbVqaMgoZXLl7qFEz3PvyOP62dswQ/AjFYJkkd5jPqayU/q6h/+z9SZtsTYzbW3uPxzsdBdVS7D2AwmqZJJMeqvcv+85+FDXb0jg6lzba4F/SPfi4Wf6PIvxuj3VmZgUxszS3Q3ScqifjlS9/WNvT0kyedH+csmbhdk/1itNAokwSST/7Fr6fA5Fr2aKDoAbDH+LAPAbPLtM9e66dPuMXWSqWVBntf/qHPPOCF1FJTAOcsu9tF4THQ72Yv8Usk0I4t+AGacYFJbVcqjrnHXCXPqlX+b11e7KHWuLXXoVzUyv7/2wWDeXY/+y0o2vok7sAnZ+OjzvPCfScWJo6HWPf8TQ9emzrWlFnx8+IqxUDs5SscXhf+8kknMgkLZ1bPiBpMuHZ99pWpmc0LQ312yZKedJcmkd+RFY/ZHHv3BKP1Gkiyw/BWA5sGfYwCYbeod33T5f3lWSZ1kipjcY+HuJ6VOghL5wefWaeUZy9yLY6PiCR7j7xVYFgtAOZlJLRXJ3e8frcf/5168f/7Soc+++JQH1qXOti3m9tW+GKKOyQv/grtvYDYIJjOTWitSHv2W4PGD9RiOm9c38s1De7UhdbatdWiv7l/QX/taIftAnvv7YuG3tlWNAiBK6+DesT/K9MuJr4soueuNbRrb9/Lujpe1tthu0ceL2K6bM9eFCeMCwFaZKb1fAIDNdcGp63XkojNV1PdTqBykWKROtE08y+T1+lKtWrEydRaU0KrPXyvpWn/T0We74htMdqJVqk9XjNJMmwkFoOmYNZa7qheKo3X/nsW4rOvjzbPsz+aY21/71SVL9NuWonVlXVlfJbOD3CeWWsFsFEyqVqTRuo+N1tVfCf6Vg/qGb0udayot6B+6TtJ1A4tbfzYypqPM/IS2arZ7vfBGEyR1QGCSGP23hfSHEOy5MUotFXtqvW7PzszfOHGtjlGS7La5/bUrU2YFgK1BAQQAZqNzl1/pRx57ioriUxbCs5u2IzhkUpF/WZX6Z1NHQcmd/7lbJa1waYUvPPoVZlm/mc2Ve6MH0iW6IwBsD6aHLzvuGs5z/0GR5ycf/MmxP6bONl0O7VUujV4s6eLBxS2HK1Q+Y2bPmPi5c/mdNYJJMer2kTE/fX5/7dTUeabb/KWjN0k6RdIpg93tx0j6N7PwnMkTUnn9I7VsaPgnPqfzyorpuVHjs0BMH5b0wrxo/N666043Pzt1VgDYGiyBBQCz1blnnOemU93jrc23LFAjrxfFDzyvf0Znn/lA4kBoJis/91M/94x5cdSf6e5fctdfJd8gqZAZy2QBmBbBHtoHYzS63+sevxlt6Hnz+mtHzeTix8a6lo6d19VXe2aM+bui+41yDZnkjc11MdOZSQr6nckvSZ1le+vqH17R1T+8r3J/rUf/qdzXumt44tpA8wOpzPushiW/vl74honN0EPQiydvohfla+f31c5KmRMAthYzQABgNjv3jC/6wmPbJP93k57xxHcoATPJPXf3iz1mS3T+F36fOhKa1IVn/Nml90iSH7HoLRb0j3LtZ66dZNpZFlofmhXC8EwAW2GiUzNGFdH9Xkn3u+v78/trJ6TOltr8/tGvSPrKwOKOd5np7S57jku7ZaY2SYpcdmekIkotFb1mLIY9Bnra++f3DZ+fOtP2Nu8TtYskXfTbD+lJQ+0d743yN5vCLi7f2WQ7hvHNqN2Zm4rtyX8m2RsyU1fuE0teNQrT0TUm14xanhHA7EIBBABmu5VnLPMjjt0g80Vm9rLxAkPqVJtmJncflvv5blqq806/LnUkzBCrln/Hpe9Ikh953FvNi1dK/lzJdjJpN0m7K4TKI5bKKuvvCYBkJpa3CiblUR5dd8l1t8tvknQho2cfbf7S2lmSzhpc0naIefgnd73E3faWaZ9KaBRCKIbMLGO5VK3oZXlhp67u6ZyzoG/om6kzpfCST+tuqbZU0tLVJ7cfoExvDO5zo4c95NrVXXtmmVpNUtTDRRFgOnT1D1812NP5pzyqa/L3G28Nfb1H/2KqbACwrSiAAACkVWec5Qs/8BePxSILeq2F0P7QsJ+yCEEe483u8WwV1Y/r/NPuTx0JM9S5y77t0rclSUctmmeFHRAVX2KF9pJ8J5ntZu57uNnuFjI9XBCRKI4As8vEqnlBUgjSWO5j7vpLdN3u7rcH0y9zK358cO/sWeJqa3X1jlwm6bIb/q92uLel480K/vdFtL3d9XSZPaOaPVwM4RLb/OqFVMlsXy/0ycHF7Tt3LR1enjpTSgs+Pny1pKslaWBx67NCyBYo6IAYtY9Lu8i1h6SnZJntNL4fw8Q+QswUwZQx99Uy+3sz7RMnNWldunH8NQoATYkCCACgYeXpl0i6xI9Y9DF5PEwhHGiSkm+QHjJ5LArFeJ57/L5WrvhK2kCYVc5eviZKa6TxzoUjF+2nGJ/rwZ4u930Uix0k20GKO8ttZ8l2knxnyXdSCG1mbLe2VWKROgHwCGYPz+6Y+Nwl5YVvcNetUXaLou5097+6wq81Vlyx4D9Gbkkcuyk971StlxqzQq5e0va0MQ8vd/lL64WeIulpkp6dBdstPLyRPEWRcRN7SNj4fya2lJj8tWt8g+MSPF55IWVB+xQKiwe6O3ab31/rS52pDMY3Tr9J0lclafXiludmnr3AM3teHn0fk3aU+26msIdLe0l6UrWiqk0qjGhygWTS18DjGQm1c1q9413BbB/5Q9eMaNG/njobAGwLCiAAysViVaFFybbBNEm5V9OcvCRWLf+YL1z0c4vFa93sH0w6QCFrFEK217tls8aMjyIfU5H/3GWXKNc3dMGKO7ZPgPJxjxULCV+aJlnuVTfP0oUogXOXXyfpoaXXXJJe/97d1Zo9RaruJhWNQkiwHVXEToXYIldVpqosVOWxIimTLBP7/W6KS16R9DaTtaQOs124KjK1VLNydEjikRsRT3QYj+Vec+kOue5w190m3enye810j0u3Kbeb5n9i6NpUmWeqA3pHbpH0NUlfu3rJnN3rMd8vWtg3Fv7kKO3p0tNkerqkfduq1jK5EOJN2AFsk4sWj1XM2Oj1OfHJWC65a9jkQ4VUs6ghMw25VDP5kMtGzDXkpqpcbwyZtZdhsm8RJTPtJemDa3o6dpzXV/tQ6kxls2Dp2B8k/WHia3eFX36s5XmxiE8JVtnLTXvkue+gYJ3R4y5y28XMd5G0i2Q7S9pZ0s4tFQsT17RJx8J2EEwaGtFWt6FdIZiUBZNkUlGo4o3Jh5vFokymkI3fIwST2aPboYf26v41PfpVEfXSLKjNTMoLr21qhpZFmZtnIVijEB2VbUkmANieKIAAKBU3+5Hq+VrJ0wz/NTdZGE5y7jJZufwyly7TwuPmuvylFvMFcnu1VbJdH+pN0BQOt3xoSG1jOKfH4s+q5z9y2RWK9avZ6Fzy4L9SPvYNuepJApiZTA8oGB18G/v+mWslrd3Ujx71G3LYca2qDrXIdsjUsoE3iRsb9bqsuptVKkfKrGVW9MwEXeWus8bq6jArff/sjOQul3ld0pik3MxHPdqQZBtkcdhlY2a+Pnp4oOJ+Xz0U6/a6b/T25yzTaOrss8kBvRvWSrp0/EMXf0idO7S1PC2Ptmc1sz3H6mFHSbu69OTo2tNMe0i2q7t2M/MdJZtTzVTJSnrlrRdSHn3EXOtletDc17tsg9w3uGyDyTfIbEhuQyYfkmlYZsMefSyY6tGtbmajUXEsmI2abDQWxWgIYTQoHylCGFURhmNl2DPv+H2MfnwWbKeiBEUQd8nMdpX7+9Ys6Wif11tblDpTmZkpSmO/l/R7bXQZuuYj2uWB1tZdQj3uGLKsM3rsNIUOhdBeL7zV3Vvlod3kHdG8w2QdbmoNURWXVTbVKY5t51JozVXb2vubir+6smuL6O2S5GZjFnXb5p8/1Ex+42hdc8xU1Ea9NSjct+kbx+9K4fl51FNNCnJdvKmbhWBDhev3eeF7SHKT1V2bnwkAticKIADKZci+6ju3fFvDI2k6gfI6jf7JVi67QtIV/oZ3n6uWylO88Gea+1xZOEiuA6xabX+4g3Ly0MrHevo2Gs4oNTY2r4+tlelXHnWFXFfLsr9oxG/RRcsenKZ/WfOZM/QTr+14heqJxmvmY6b2zqgN+VCS888UFy0b1ca9FXiko45rU+E+W7pgws7DF2f37LB6qMWtc8wogCRSbVlfDA2raGtX0f575fudrbHUmfD4XvVpDUlj10u6fvL3L1miOe15Z6dX8/aiaGmNMbZapqoUK0XuFQsyi+W7wlhQYW51yXI3q8cir5ss98zqsW71oprVO7RhbNd1Gt324lutb6C7bUNRhI9UMtsjL08RZI673jvY097a1Tf87tSZmtGLT9E6aXRd46vHHzPjkv3kQ+qwTJU22ym0WixpebD5jcrDwadq/dbeP4bsGyb7YTHWWFu1ksmzzNdt9vlD7fqOovWkkFXbYyH3zLPqSMut0qOb9fP6RwYGFre+vxKqrfXoVg9216aO+SQNX3uPtbxnVC0VjTUytbZH9mgEUEqla/gBAJrIq/91V83p2E9ePCu49nGz3WW2q6Q58tjaWPLHXaa6XKOSrZd0r7vuVdDNKvwm3Vq/Wr86M82sBgDl84YP7mnV/A8Wwk7JZoCYyT1e527v08ozBtKEAIDptfrkjneEYL1Zpr8pw0wQqTEZOAtSnsfvWdTx8z4+fHvqTAAAoLlRAAEAAEB5UAABgO1mdU/HYUH6VDDbz0u0T0pb1TQ65her8JPmfaL236nzAACA5sUURwAAAAAAZqEFfbWL5P6u6H6VVJ4RkiN1V0tVr/JMKy5f0vry1HkAAEDzogACAAAAAMAs1dU/fJVa4lHu8Rdm5SmCjOZSS9UOyjxbPri44/Wp8wAAgOZEAQQAAAAAgFmsa/HIzV39w4fG6N+XNfbiKIOxXKpk9gIFfXZNT8e/ps4DAACaDwUQAAAAlEtJOt4AYLbp6q+9Ibp/2115KMm1OC+kYPZsl31szeKOE1PnAQAAzYUCCAAAAEpkSHIrUqcAgNlqTq32Hsm/EN1rWUl6DKJLZnqqB31ocEl7b+o8AACgeZSkOQMAAABIamuPMh9OHQMAZquXfFpDcaR2kuSnFdHXlaUI4i6Z2ZMU7YODPZ2nps4DAACaQ0maMgAAAICk4VGXq546BgDMZgtO1fquvuGPynVqUfg9lZL0HLhLFmwnyT+4prvjtNR5AABA+ZWkGQMAAABIqlRdJk8dQ5LLijLkAIBkuvprp7j00Tzqr6Uqgpi1LbTB7AAADqRJREFUhMw+MNjT/qXvHaUsdSYAAFBeJWnCAAAAAJKqIcjVmTaESbIRhUqeNgcApDe/v/YlKf8/eeE3lWVjdHepiFJ7S/av+zy/8/w1S1qfnjoTAAAoJwogAAAAKBFrVwhPkieefOE+oshSXAAgSV19oz/zYIcXHq8N1igTl8HwmKulqtfFWPnW6u7qfqnzAACA8qEAAgAAgPLwuJ+FxKuZmCTZesViJG0QACiP+b1D18b24UPc/QorURFktC61VjUvWOXrVy5ufVXqPAAAoFwogAAAAKA8or81+ewPmSRfq7H4YOIgAFAqB5+kdfP6avNi9EtckpWkCjKWS1kI+xchO22gu/NtqfMAAIDyoAACAACA0ghmR8hj6hiSbK067r0ndQoAKKP2UFvo7ud6VL0s+4IUUTKz55l538Di9uNS5wEAAOVAAQQAAADlsPDYrypkc9LPAJHMba3OPnssdQ4AKKP9e3V/Ueg4WfxajD6UlaRnwV0ys2eYhZMGF3eclDoPAABIryTNFAAAAMxqRx77oSC9WTHx7A8zecwfiOZ3pQ0CAOV2yCdqf3ULH3XpC0X0dWUqgoSgJyvoQ4Pd7b2p8wAAgLRK0kQBAADArLXw2OOC9CEF65BSz/4wye0P8uLGxEEAoPTm9w7d3Rpq3XJ9JkZfW5YiSHQpmO3qZv93oKf9lNR5AABAOiVpngAAAGBWWrjolGDqk9meZVj6qrGjr/9B9eKq1FEAoBkc0KtaV39tqUdfXES/r1KSXobxIkhbZuHDgz0dZ6TOAwAA0ijJdmUAAACYVQ4/+jALodey7O/krlIUPyS5fMyjPqlVyz+WOgsANJsrlrQtiB6+E4LtnXpFwwkmqa1qGqnH8+f11Q5PnQcAAGxfFEAAAAAw/Y46qkVje7xAWXiBSf8k6XWWBSXf82MyC3IvrnTF43Xu5wZTxwGAZnTlYj0jDx0XV4I9O3WWyVqrpqHReLm7Hb2gf+i61HkAAMD2QQEEAAAA0+PwRfsq2DMk/xuTP0cKr1QWXmJSuQofE9w9yr6ilWf8S+ooANDs1vR0/trlbUq/udNkLeb62bz+2vtSBwEAANtHJXUAAACAx3TE+58kZU9VUFUhlKkDBZPVJZnPkWkPmfYy9yfJwi7y+BTJ95XZ8y1UGstclbHwIUlmctdNMl2QOgoAzATz+ob2T53hsVz9XlUPOFP11DkAAMD0owACAABKrLrAzN8h066KJdkkAo+WSZLa5NpF8j0shJ1kQZLpof09YpE24xOJXpf8Sp27/LzUUQAA04viBwAAswcFEAAAUFrBfG+ZFsiyXcu1ggY2yVwPFz1KXvCYzEyueKtH/3zqKAAAAACAqUMBBAAAlJd7lFkuj41OdWCqmUnRR9z0Va1asTp1HAAAAADA1AmpAwAAAAApufwXOnd5X+ocAAAAAICpRQEEAAAAs5MFefQ7fe//OTx1FAAAAADA1GMJLAAAAMw+ZvJYyFcuf3LqKAAAAACA6cEMEAAAAMwuZvIYRzwr/iF1FAAAAADA9KEAAgAAgNmjUfxY52bv0dmf/3nqOAAAAACA6UMBBAAAALODmdz9FpedqHPP+EbqOAAAAACA6cUeIAAAAJjZzKTo0T1e47JPaeUZ30odCQAAAAAw/SiAAAAAYOYyk9xHXf5Dj/55nbf84tSRAAAAAADbBwUQAAAAzEwhyIt4l0mfc7Pv6rzlN6SOBAAAAADYfiiAAAAAYGYxk4dMyuur3MOXfdWyH6SOBAAAAADY/iiAAAAAYGYwk0JFXtRv8bF6j4rKj3ThaXeljgUAAAAASIMCCAAAAJqbWWPWR1Gs9Tj2Ga1/8HT95OtDqWMBAAAAANKiAAIAAIDm09jcXHLV3ePt7vZfWrW8P3UsAAAAAEB5UAABAABAczCTZFKMdSmuc9dtbvqqzl1+eupoAAAAAIDyoQACAACA8hpf3kpFjFK8S7L7XP4bt+wsnXv6z1LHAwAAAACUFwUQAAAAlMfELA+TVMTc5bfK9VfJbzH3X8S881u64NT1qWMCAAAAAMqPAggAAADSmFzskMndpRhvleLNku50s9sV9d+KY5fp/C/8xdOmBQAAAAA0GQogAAAAmD5mE588VOiQSYpRHuNayW6R6Ta5/9Xl90n6o+Q3aOXnrkiWGQAAAAAwI1AAAQAA5eVWkdSqkEli/H+52aO+40UueXxAbvdI8Q7J7pDpLpPukWudy+5V4XepYndq5fIbEoQGAAAAAMxgFEAAAEBpxcwuk+LJIc87ozkVkFIKUnRX8DHJxuQ2EkIciYUPy8KITKMyH1Ye1ivTg6oPPeAX/Bd7eAAAAAAAAAAAAAAAAAAAAAAAAAAAAAAAAAAAAAAAAAAAAAAAAAAAAAAAAAAAAAAAAAAAAAAAAAAAAAAAAAAAAAAAAAAAAAAAAAAAAAAAAAAAAAAAAAAAAAAAAAAAAAAAAAAAAAAAAAAAAAAAAAAAAAAAAAAAAAAAAAAAAAAAAAAAAAAAAAAAAAAAAAAAAAAAAAAAAAAAAAAAAAAAAAAAAAAAAAAAAAAAAAAAAAAAAAAAAAAAAAAAAAAAAAAAAAAAAAAAAAAAAAAAAAAAAAAAAAAAAAAAAAAAAAAAAAAAAAAAAAAAAAAAAAAAAAAAAAAAAAAAAAAAAAAAAAAAAAAAAAAAAAAAAAAAAAAAAAAAAAAAAAAAAAAAAAAAAAAAAAAAAAAAAAAAAAAAAAAAAAAAAAAAAAAAAAAAAAAAAAAAAAAAAAAAAAAAAAAAAAAAAAAAAAAAAAAAAAAAAAAAAAAAAAAAAAAAAAAAAAAAAAAAAAAAAAAAAAAAAAAAAAAAAAAAAAAAAAAAAAAAAAAAAAAAAAAAAAAAAAAAAAAAAAAAAAAAAAAAAAAAAAAAAAAAAAAAAAAAAAAAAAAAAAAAAAAAAAAAAAAAAAAAAAAAAAAAAAAAAAAAAAAAAAAAAAAAAAAAAAAAAAAAAAAAAAAAAAAAAAAAAAAAAAAAAAAAAAAAAAAAAAAAAAAAAAAAAAAAAAAAAAAAAAAAAAAAAAAAAAAAAAAAAAAAAAAAAAAAAAAAAAAAAAAAAAAAAAAAAAAAAAAAAAAAAAAAAAAAAAAAAAAAAAAAAAAAAAAAAAAAAAAAAAAAAAAAAAAAAAAAAAAAAAAAAAAAAAAAAAAAAAAAAAAAAAAAAAAAAAAAAAAAAAAAAAAAAAAAAAAAAAAAAAAAAAAAAAAAAAAAAAAAAAAAAAAAAAAAAAAAAAAAAAAAAAAAAAAAAAAAAAAAAAAAAAAAAAAAAAAAAAAAAAAAAAAAAAAAAAAAAAAAAAAAAAAAAAAAAAAAAAAAAAAAAAAAAAAAAAAAAAAAAAAAAAAAAAAAAAAAAAAAAAAAAAAAAAAAAAAAAAAAAAAAAAAAAAAAAAAAAAAAAAAAAAAAAAAAAAAAAAAAAAAAAAAAAAAAAAAAAAAAAAAAAAAAAAAAAAAAAAAAAAAAAAAAAAAAAAAAAAAAAAAAAAAAAAAAAAAAAAAAAAAAAAAAAAAAAAAAAAAAAAAAAAAAAAAAAAAAAAAAAAAAAAAAAAAAAAAAAPz/9uBAAAAAAECQv/UEG1QAAAAAAAAAAAAAAAAAAAAAAAAAAAAAAAAAAAAAAAAAAAAAAAAAAAAAAAAAAAAAAAAAAAAAAAAAAAAAAAAAAAAAAAAAAAAAAAAAAAAAAAAAAAAAAAAAAAAAAAAAAAAAAAAAAAAAAAAAAAAAAAAAAAAAAAAAAAAAAAAAAAAAAAAAAAAAAAAAAAAAAAAAAAAAAAAAAAAAAAAAAAAAAAAAAAAAAAAAAAAAAAAAAAAAAAAAAAAAAAAAAAAAAAAAAAAAAAAAAAAAAAAAAAAAAAAAAAAAAAAAAAAAAAAAAAAAAAAAAAAAAAAAAAAAAAAAAAAAAAAAAAAAAAAAAAAAAAAAAAAAAAAAAAAAAAAAAAAAAAAAAAAAAAAAAAAAAAAAAAAAAAAAAAAAAAAAAAAAAAAAAAAAAAAAAAAAAAAAAAAAAAAAAAAAAAAAAAAAAAAAAAAAAAAAAAAAAAAAAAAAAAAAAAAAAAAAAAAAAAAAAAAAAAAAAAAAAAAAAAAAAAAAAAAAAAAAAAAAAAAAAAAAAAAAAAAAAAAAAAAAAAAAAAAAAAAAAAAAAAAAAAAAAAAAAAAAAAAAAAAAAAAAAAAAAAAAAAAAAAAAAAAAAAAAAAAAAAAAAAAAAAAAAAAAAAAAAAAAAAAAAAAAAAAAAAAAAAAAAAAAAAAAAAAAAAAAAAAAAAAAAAAAAAAAAAAAAAAAAAAAAAAAAAAAAAAAAAAAAAAAAAAAAAAAAAAAAAAAAAAAAAAAAAAAAAAAAAAAAAAAAAAAAAAAAAAAAAAAAAAAAAAAAAAAAAAAAAAAAAAAAAAAAAAAAAAAAAAAAAAAAAAAAAAAAAAAAAAAAAAAAAAAAAAAAAAAAAAAAAAAAAAAAAAAAAAAAAAAAAAAAAAAAAAAAAAAAAAAAAAAAAAAAAAAAAAAAAAAAAAAAAAAAAAAAAAAAAAAAAAAAAAAAAAAAAAAAAAAAAAAAAAAAAAAAAAAAAAAAAAAAAAAAAAAAAAAAAAAAAAAAAAAAAAAAAAAAAAAAAAAAAAAAAAAAAAAAAAAAAAAAAAAAAAAAAAAAAAAAAAAAAAAAAAAAAAAAAAAAAAAAAAAAAAAAAAAAAAAAAAAAAAAAAAAAAAAAAAAAAAAAAAAAAAAAAAAAAAAAAAAAAAAAAAAAAAAAAAAAAAAAAAAAAAAAAAAAAAAAAAAAAAAAAAAAAAAAAAAAAAAAAAAAAAAAAAAAAAAAAAAAAAAAAAAAAAAAAAAAAAAAAAAAAAAAAAAAAAAAAAAAAAAAAAAAAAAAAAAAAAAAAAAAAAAAAAAAAAAAAAAAAAAAAAAAAAAAAAAAAAAAAAAAAAAAAAAAAAAAAAAAAAAAAAAAAAAAAAAAAAAAAAAAAAAAAAAAAAAAAAAAAAAAAAAAAAAAAAAAAAAAAAAAAArK9b8+OCudfIAAAAASUVORK5CYII=;" parent="1" vertex="1"><mxGeometry x="667.53" y="170" width="134.95" height="90" as="geometry"/></mxCell><mxCell id="swFpSeQePxX08vtrjXuF-8" value="&lt;b style=&quot;font-size: 16px;&quot;&gt;JDBC&lt;/b&gt;" style="ellipse;whiteSpace=wrap;html=1;" parent="1" vertex="1"><mxGeometry x="402.5" y="55" width="110" height="80" as="geometry"/></mxCell><mxCell id="swFpSeQePxX08vtrjXuF-11" value="&lt;div style=&quot;&quot;&gt;&lt;span style=&quot;font-size: 12px;&quot;&gt;&lt;b&gt;Java Database Connectivity &lt;/b&gt;es (conectividad de&amp;nbsp;&lt;/span&gt;&lt;/div&gt;&lt;div style=&quot;&quot;&gt;&lt;span style=&quot;font-size: 12px;&quot;&gt;Base de Datos)&lt;/span&gt;&lt;span style=&quot;background-color: initial; font-size: 12px;&quot;&gt;&amp;nbsp;para el&lt;/span&gt;&lt;span style=&quot;background-color: initial; font-size: 12px;&quot;&gt;&amp;nbsp;lenguaje&amp;nbsp;&lt;/span&gt;&lt;span style=&quot;background-color: initial; font-size: 12px;&quot;&gt;Java&amp;nbsp;&lt;/span&gt;&lt;span style=&quot;background-color: initial; font-size: 12px;&quot;&gt;que define&lt;/span&gt;&lt;/div&gt;&lt;div style=&quot;&quot;&gt;&lt;span style=&quot;background-color: initial; font-size: 12px;&quot;&gt;cómo un cliente&lt;/span&gt;&lt;span style=&quot;background-color: initial; font-size: 12px;&quot;&gt;&amp;nbsp;puede acceder&amp;nbsp;&lt;/span&gt;&lt;span style=&quot;background-color: initial; font-size: 12px;&quot;&gt;a una base de datos.&lt;/span&gt;&lt;/div&gt;" style="text;html=1;align=left;verticalAlign=middle;resizable=0;points=[];autosize=1;strokeColor=none;fillColor=none;fontSize=16;" parent="1" vertex="1"><mxGeometry x="70" y="70.00000000000001" width="310" height="70" as="geometry"/></mxCell><mxCell id="swFpSeQePxX08vtrjXuF-12" value="&lt;b&gt;JDBCTemplate&lt;/b&gt;" style="ellipse;whiteSpace=wrap;html=1;fontSize=16;" parent="1" vertex="1"><mxGeometry x="390" y="215" width="135" height="80" as="geometry"/></mxCell><mxCell id="swFpSeQePxX08vtrjXuF-13" value="&lt;div&gt;&lt;span style=&quot;font-size: 12px;&quot;&gt;Ayuda a simplificar el uso de JDBC y ayuda&amp;nbsp;&lt;/span&gt;&lt;span style=&quot;font-size: 12px; background-color: initial;&quot;&gt;para evitar&lt;/span&gt;&lt;/div&gt;&lt;div&gt;&lt;span style=&quot;font-size: 12px; background-color: initial;&quot;&gt;errores. Es&amp;nbsp;&lt;/span&gt;&lt;span style=&quot;background-color: initial; font-size: 12px;&quot;&gt;el núcleo de la &lt;b&gt;API&lt;/b&gt; para&amp;nbsp;&lt;/span&gt;&lt;span style=&quot;background-color: initial; font-size: 12px;&quot;&gt;proporciona SQL y&lt;/span&gt;&lt;/div&gt;&lt;div&gt;&lt;span style=&quot;background-color: initial; font-size: 12px;&quot;&gt;&amp;nbsp;extrae &lt;b&gt;datos&lt;/b&gt;.&lt;/span&gt;&lt;/div&gt;&lt;div&gt;&lt;span style=&quot;background-color: initial; font-size: 12px;&quot;&gt;&lt;br&gt;&lt;/span&gt;&lt;/div&gt;&lt;b style=&quot;&quot;&gt;&lt;font style=&quot;font-size: 14px;&quot;&gt;SELECT * FROM ingredients;&lt;/font&gt;&lt;/b&gt;" style="text;html=1;align=left;verticalAlign=middle;resizable=0;points=[];autosize=1;strokeColor=none;fillColor=none;fontSize=16;" parent="1" vertex="1"><mxGeometry x="69.99999999999999" y="180" width="320" height="110" as="geometry"/></mxCell><mxCell id="swFpSeQePxX08vtrjXuF-19" value="" style="endArrow=classic;html=1;rounded=0;fontSize=14;entryX=0.5;entryY=1;entryDx=0;entryDy=0;exitX=0.5;exitY=0;exitDx=0;exitDy=0;" parent="1" source="07knTB4zI7Xbk9It-fin-7" target="07knTB4zI7Xbk9It-fin-1" edge="1"><mxGeometry width="50" height="50" relative="1" as="geometry"><mxPoint x="94.52000000000001" y="590" as="sourcePoint"/><mxPoint x="94.52000000000001" y="550" as="targetPoint"/></mxGeometry></mxCell><mxCell id="swFpSeQePxX08vtrjXuF-20" value="" style="endArrow=classic;html=1;rounded=0;fontSize=14;entryX=0.5;entryY=1;entryDx=0;entryDy=0;exitX=0.5;exitY=0;exitDx=0;exitDy=0;" parent="1" source="07knTB4zI7Xbk9It-fin-9" target="07knTB4zI7Xbk9It-fin-2" edge="1"><mxGeometry width="50" height="50" relative="1" as="geometry"><mxPoint x="284.09000000000003" y="590" as="sourcePoint"/><mxPoint x="284.09000000000003" y="550" as="targetPoint"/></mxGeometry></mxCell><mxCell id="swFpSeQePxX08vtrjXuF-21" value="" style="endArrow=classic;html=1;rounded=0;fontSize=14;entryX=0.5;entryY=1;entryDx=0;entryDy=0;exitX=0.5;exitY=0;exitDx=0;exitDy=0;" parent="1" source="07knTB4zI7Xbk9It-fin-10" target="07knTB4zI7Xbk9It-fin-3" edge="1"><mxGeometry width="50" height="50" relative="1" as="geometry"><mxPoint x="454.0899999999999" y="590" as="sourcePoint"/><mxPoint x="454.0899999999999" y="550" as="targetPoint"/></mxGeometry></mxCell><mxCell id="swFpSeQePxX08vtrjXuF-22" value="" style="endArrow=classic;html=1;rounded=0;fontSize=14;exitX=0.5;exitY=0;exitDx=0;exitDy=0;entryX=0.5;entryY=1;entryDx=0;entryDy=0;" parent="1" source="07knTB4zI7Xbk9It-fin-12" target="07knTB4zI7Xbk9It-fin-4" edge="1"><mxGeometry width="50" height="50" relative="1" as="geometry"><mxPoint x="628.6099999999999" y="590" as="sourcePoint"/><mxPoint x="628.6099999999999" y="550" as="targetPoint"/></mxGeometry></mxCell><mxCell id="swFpSeQePxX08vtrjXuF-23" value="" style="endArrow=classic;html=1;rounded=0;fontSize=14;entryX=0;entryY=0.5;entryDx=0;entryDy=0;exitX=0.5;exitY=0;exitDx=0;exitDy=0;" parent="1" source="07knTB4zI7Xbk9It-fin-14" target="07knTB4zI7Xbk9It-fin-5" edge="1"><mxGeometry width="50" height="50" relative="1" as="geometry"><mxPoint x="656.6899999999999" y="950" as="sourcePoint"/><mxPoint x="656.3199999999998" y="930" as="targetPoint"/><Array as="points"><mxPoint x="515" y="840"/></Array></mxGeometry></mxCell><mxCell id="swFpSeQePxX08vtrjXuF-27" value="" style="endArrow=classic;html=1;rounded=0;fontSize=14;entryX=0.5;entryY=1;entryDx=0;entryDy=0;exitX=0.5;exitY=0;exitDx=0;exitDy=0;" parent="1" source="swFpSeQePxX08vtrjXuF-12" target="swFpSeQePxX08vtrjXuF-8" edge="1"><mxGeometry width="50" height="50" relative="1" as="geometry"><mxPoint x="414.85" y="120" as="sourcePoint"/><mxPoint x="414.85" y="70" as="targetPoint"/></mxGeometry></mxCell><mxCell id="2" value="" style="rounded=1;whiteSpace=wrap;html=1;" parent="1" vertex="1"><mxGeometry x="42.66" y="320" width="124.68" height="70" as="geometry"/></mxCell><mxCell id="6" value="" style="endArrow=classic;startArrow=classic;html=1;rounded=0;exitX=0.5;exitY=0;exitDx=0;exitDy=0;entryX=0.5;entryY=1;entryDx=0;entryDy=0;" parent="1" source="07knTB4zI7Xbk9It-fin-4" target="swFpSeQePxX08vtrjXuF-6" edge="1"><mxGeometry width="50" height="50" relative="1" as="geometry"><mxPoint x="700" y="350" as="sourcePoint"/><mxPoint x="670" y="300" as="targetPoint"/><Array as="points"/></mxGeometry></mxCell><mxCell id="7" value="" style="endArrow=classic;startArrow=classic;html=1;rounded=0;entryX=0.5;entryY=1;entryDx=0;entryDy=0;exitX=0.5;exitY=0;exitDx=0;exitDy=0;" parent="1" source="07knTB4zI7Xbk9It-fin-5" target="07knTB4zI7Xbk9It-fin-12" edge="1"><mxGeometry width="50" height="50" relative="1" as="geometry"><mxPoint x="552.28" y="780" as="sourcePoint"/><mxPoint x="602.28" y="730" as="targetPoint"/></mxGeometry></mxCell><mxCell id="9" value="" style="endArrow=classic;startArrow=classic;html=1;rounded=0;exitX=1;exitY=0.5;exitDx=0;exitDy=0;entryX=0;entryY=0.5;entryDx=0;entryDy=0;" parent="1" source="07knTB4zI7Xbk9It-fin-3" target="07knTB4zI7Xbk9It-fin-4" edge="1"><mxGeometry width="50" height="50" relative="1" as="geometry"><mxPoint x="531.5899999999999" y="490" as="sourcePoint"/><mxPoint x="581.5899999999999" y="440" as="targetPoint"/></mxGeometry></mxCell><mxCell id="10" value="" style="endArrow=classic;startArrow=classic;html=1;rounded=0;exitX=1;exitY=0.5;exitDx=0;exitDy=0;entryX=0;entryY=0.5;entryDx=0;entryDy=0;" parent="1" source="07knTB4zI7Xbk9It-fin-2" target="07knTB4zI7Xbk9It-fin-3" edge="1"><mxGeometry width="50" height="50" relative="1" as="geometry"><mxPoint x="368.77" y="500" as="sourcePoint"/><mxPoint x="418.77" y="450" as="targetPoint"/></mxGeometry></mxCell><mxCell id="11" value="" style="endArrow=classic;startArrow=classic;html=1;rounded=0;exitX=1;exitY=0.5;exitDx=0;exitDy=0;entryX=0;entryY=0.5;entryDx=0;entryDy=0;" parent="1" source="07knTB4zI7Xbk9It-fin-1" target="07knTB4zI7Xbk9It-fin-2" edge="1"><mxGeometry width="50" height="50" relative="1" as="geometry"><mxPoint x="150" y="490" as="sourcePoint"/><mxPoint x="200" y="440" as="targetPoint"/></mxGeometry></mxCell><mxCell id="14" value="" style="endArrow=none;dashed=1;html=1;rounded=0;entryX=0.5;entryY=1;entryDx=0;entryDy=0;" parent="1" target="swFpSeQePxX08vtrjXuF-12" edge="1"><mxGeometry width="50" height="50" relative="1" as="geometry"><mxPoint x="458" y="415" as="sourcePoint"/><mxPoint x="455" y="295" as="targetPoint"/></mxGeometry></mxCell><mxCell id="15" value="" style="endArrow=classic;startArrow=classic;html=1;rounded=0;exitX=0.5;exitY=0;exitDx=0;exitDy=0;entryX=0.5;entryY=1;entryDx=0;entryDy=0;" parent="1" source="07knTB4zI7Xbk9It-fin-2" target="swFpSeQePxX08vtrjXuF-6" edge="1"><mxGeometry width="50" height="50" relative="1" as="geometry"><mxPoint x="331" y="500" as="sourcePoint"/><mxPoint x="660" y="300" as="targetPoint"/><Array as="points"/></mxGeometry></mxCell><mxCell id="16" value="" style="endArrow=classic;startArrow=none;html=1;rounded=0;entryX=0.5;entryY=1;entryDx=0;entryDy=0;exitX=0.5;exitY=0;exitDx=0;exitDy=0;" parent="1" source="3" target="2" edge="1"><mxGeometry width="50" height="50" relative="1" as="geometry"><mxPoint x="120" y="440" as="sourcePoint"/><mxPoint x="170" y="390" as="targetPoint"/></mxGeometry></mxCell><mxCell id="17" value="" style="endArrow=classic;html=1;rounded=0;entryX=1;entryY=0.5;entryDx=0;entryDy=0;exitX=0;exitY=0.5;exitDx=0;exitDy=0;" parent="1" source="07knTB4zI7Xbk9It-fin-6" target="07knTB4zI7Xbk9It-fin-5" edge="1"><mxGeometry relative="1" as="geometry"><mxPoint x="729.63" y="930" as="sourcePoint"/><mxPoint x="829.63" y="930" as="targetPoint"/></mxGeometry></mxCell><mxCell id="lTdUe9vieq3jcJyIEDaX-19" value="" style="shape=image;verticalLabelPosition=bottom;labelBackgroundColor=default;verticalAlign=top;aspect=fixed;imageAspect=0;image=data:image/png,iVBORw0KGgoAAAANSUhEUgAAAMoAAADKCAYAAADkZd+oAAAACXBIWXMAABcRAAAXEQHKJvM/AAAAB3RJTUUH5AoOEQgK3oY29wAAFo1JREFUeNrtXXl0FFW+LsX1OY64PD3PN+/N4804Z5QZDjMZ6lYnEYPggsuAA/GNjm9Ej0aSupWFkLBDAEFAEFAUFBRcAFHZFJF9UdA8NgFBkEUW2WIgQiB7wvf+uGmrA93pru6q6uqq3++c73BO0t2h7v2+/t17f8uVJDIyMrJ4GjT2K3AlDZw9AY3lQ2PjwdksqGwVONsEzvaCs2Pg7Aw4QxCcB2dl4MohcLYDnBWDsyXg7G1wNhJc0cDlrlAVhjzfDTTiZM4WRG7Sv0GVH4LKBoOz2eBsMzg7G4L81kFjpeBsHbgyDVwuhMruQWbq9TRDZPaLoijtMqiyDyrrB84WgrMjtgvCOPaCs1ngch6yWRKKpEtpJsnMF0f2X/4ATS4AZ59CZeUJIIxwKANX5kGTObKU22mGyaITRnp6C2SxVGjyKHC2ywXCaB4qOwCVTYSmdEJR2mXEALLQ4pCkS5DFUqGyKeDslOvFERrHocmvIduXTKwg0wWS5fstVDYcKjvgYXGEwh5wNghq8q+JKV5dWmnKw9Dkz8BZAwkiLBrA2VKo8kN0EOAFgWQkXQdV6QPODhL5o4W8D1zOQ0bSdcQotwmkZ/LNIkDHThPRTTsAKAdXRqNn8s3EsEQXCE+5FVx+GZxVErktQ4XIOEi5lRiXaALJTL2+8Wi3gohs25KsGlx5iVJpEkEgeb6rG/cgZUTceAYzWW9ona8kRjpymSV3pSNepwUxlUeJmU6Kg3D2KZHTsVgN7vs9MTVeAilqfQU0NlSsjYmQDkcVuDyElmN2i0RV/gyNbSMCJhx2IatdO2Kw9QHDyxs36zVEuoRFHTR5FIpaX0GMtsSLyL8Dl7cQ0VyDTdDYHcRsM0Wise4UVXfp3kVTniWGxyqQ3m2uAWdvEaFcf5T8JvJ8VxPjo4uLtAJnW4lIHoHGtiGb3UbMN7QfadcenJUQgTwY1VfbdSQFRORJWA44qyPSeBa10OTnSAkhA4jSpY2ZvkQWAsDZBKSntyBlNDnV6nwlOHufyEG4YN+yAD3SriKFSJKE3LYtwdlaIgYhxInYKhSmXOv1SPtNdLJFiADFUOUbvSmSnsk3gyvfEAkIEWI7MpJu8pZIctgtJBJCVLEWr3gW5LBboLLdNPGEKLHZ9Y3HkZF0HSU2EkzARtdu8JHnuxpcXkOTTDDtNMxthWBIT28Bzj6iCSaYjNmu6lwJjU2iSSVY5FnGuEQkMqcJJVh7GpbguWHQ2L2U4EiwJ5HSd1diiiRLuZ2qEj2Aod2Bd4cBi6cBaz8A1s0DlkwH5o4Hxj8H5KTa9X8pQVa7/0gskYjKxB1EJJdiwIPAoteBU8cQ1moqga2rgfEZ9sRYEqlSElyZQYRyIXq1BxZPBWqrEZV9vx144R/+KLtVm/spCbIvUZ4lUrkQwx8FThxEzFZXC8ydYPXm/jGHexLfH+mKBRdiYhZQdQ6mWH0dMLSb1f/n0+ByK4dWKLa+glLmXYgXnwKqK0wSST0wrLv43PwOwLwJVi7Dih15wzHEjVZELDehz73AmVLzPElRN10k+7eJn3/wooVLMGWgs0Siyj5wVk/kchk2LTNRJH+7WCQAUFOl/8581ID7/uigZEe2h4jlMox92nyR9L5bnHxdaJtXWJtp7IQlGDgbRsRyIb75wh6RAMD5BmBYupX5YP3iK5Jsdhs4qyJiuTCgeP58jMfAdcCQCETit2XvWPlMlXE9BYOmrCBiuRCzR8UukkBPcuCb8O85fsDi51LmxSsr+DEilUuxZUWMnuQR8TkFHSMTid/63W/tc2X57rdXJD3SrgJXDhGpXIoje60VybF9wOCuIkIfaBMzrX6272y9wAic9SVCuRiVZ631JJuWidflpAKV5frPZwy24/ly7GoQcROlz7scNVUximRH86+vKAc0Rbx+55f6z2eNsKPlUSk09ksbgotsIpHJ5TCS11VXCwzpGrlIAHGilpMi3vP1Krs9CsCVIqsrFn9F11V7AMf2Ry6UUf9sFEkn4ODOyN5zcKf+t374Tv/5K9yuZzyLHHaLhXsTupbBEwj8lg9n/voSI0LxC2Jwl6bxmn6d7WxKMdbCNqiUQu8JfPRS5EKpqdAJXtAxMrH4Xx8oyJKDdj/nOUvas0JlY4lEHsHgrsY285Xn9BhIQSfg0LfNv/7kUWDPpqY/WzkzHs86yFyRZKZeD87OEok8hAuJHM6qAsXSMfJlmH9zP+zROLQ5YqXo3eYaMzfx+UQej+EVbjyWEuhZCjsBh3dF9r6vV8WxJ5iSbVLlonQpONtP5HFTk4g0YEJPcRz77jDgZRXITwv8phX/7lhnXCxVF4pld/Ovr622NnM4PPaa0pYVXO5K5HIBclKEML7bKGIfF23Kq4DiReIkyv+efvcD5WXGxRK4wS+8p3mxfDjOCW1Z7zEjXWU5ES2RBZIqcqpOR1jSW1stvMzPjSUyo2tPVHUO6Hu/LpbAeInfihf5A4DxHqf5sXqTVuDsPBEuQTGtL1B6JHJylxwEPp0KTO7V1LO8woHamtjE0ufepmLZuESPzscfdTF1mQSXhxDhEgmN38wDH26aQxVJGsqc0UC2L9TpkCjmOnk0drEc3i2a6Gk+p43dgFiWXd8R+RIMb/YHKs5ETuTqCtEj2L/J/3iyaHTXUC/2J5uWASP+Ln6fmwqsniNKfKMVy89iVJw2druibLLNUol4CYSCTsC2NcYIXF0BvPSseH//B0JvumtrgKl99L81LB1Y/T5w9qfwf6OhQdTfT9KcP4bZLCmaSPwUIqDD4U9VH/1PY3uRi0TyYPh2qdWVwKC/XnxQMO4Z0bn+87nC+2xdDXy5UHS3n5IvjogTZ0wnRBM7OUFkTIT69heCH/eG6zA/oWfjEXDnyLOFV7zn9vE8biimAk2+k0jocOSmiuNVo2bUkwTagR3uH9dsX7IRoYwjMjpxqcV0ghtp2mCGSADgyB4PjLE8yshpF6WsOHU/Mup/gbLjsYukJIorHP5vsRfGelekCZB3EDGdGkDsZ7ye3SyRAPoxstuhyr+L5LYsjUjpQHw4TrQejUUkA2IQycpZjbGW9l4Y75xIPMoCIqaTllw+YM2c6MhtlkiWvyOWftk+oN8DXhj35nO/kJ7eApyVEUEddLK1eUX8RNLQoN9fovmA9QuAvDu9MPanmj0mRla7dkRQh6DvfeEbW0caJzn+vfHPqK0R6TB+wW5a2rR7ivs9+Z+aicYrvYikDkD/B4Gj++InknOndW9U2AnYu8UrAccAyHnNHQu/T0SNM4Y/Gt3x74Ui6f9AdCIpPaJXHA55pGms5cWnPORR5DkUP3EqRj8ZWaJhRCI5YPwzDuwQSz7OhCjKT8WznVC8sT/UFXM3UJFWHAOJEzOjv6LaDJFsWwP0ukt8xqTsi28C/nCs1+bmfNC+X+DyfUTcOBVaTe1jPLHRTJGsmaMXUr33vKhFCbTyMl1E3voS6xRMKIVE3Djkbb014GJi2iWS8+dF6a/fs306NfjrFkzy5hypSp9g+5O3iMA2Y8bg+ImkrhaYPlCvK9nwWfDXlR33pjcR3VmmB7srfj2R10bMGhFdSooZIqk4o78/vwPw7VehXzutr3fnSJXXB/MoJ4nANu1JZo+KTST+K9wGPgz8+IOx9588Ko6g/RH7YG2E/LaruOky0Xs4FezEi4hsB+ZOiP5q6lhFcnCn3phu5ONA2YnmG0IM6kLzFXjyBVVhRGIbsGBS9LftxiqSXcVimeXv0xXuKHr2KJov4U2VwGVXNxoUi7EwjiL56mMgO1m8/91h4dsNffOFHt8hoXSnGhS7sHhafEQSePzrF2u4Zd+p46IFKs2bf1+pBXqUF2hALMLS6fERSX2tfnlodjKwbn5kGcOjn6Q5a4qRgcVa79CAWJCasvp9c0Qy6K/GRFJZrr83Py3y9qqzRtK8XexRZgR6lKU0ICaLZO2H5onESHO706XAC0/o6frh7ifxVuOIaLAkUCjFNCCm9YWKrt+WGSI5uk/v5jjiscjT9Y/sEX2Haf6aDzqCs500KCZhzJPxEcnuDUDvuxszkbPE8itSD3Rhq1RCILYHCuUwDYgJyy0tIBvYTpEUL9LvGnmzf+R3mVRX6Ms0Qih8HyiUn2hAYhTJ5x+JeIU/Xf31fHtEsuwdXaBGWhrV14m6k8DUGkKwOEppoFBqaVBiFElgcO9nsfS2TiQN9aJBt39f9PlcY/GV94bT3EWGykCh1NOAmCASv325UBfLlALzRVJdCUzOa2xIlyYi6UZs8VSauyiF0kADYpJIIhVLtCI5UyruQ/Gn2B/61phI1i+g9JQYhEK18maKJJhYXi+IXSTH9usZvUO7Gc/5+nqlWKZpNIckFKeIJJRYohXJnk3i+jnOxC1XRru1bP/cSbfw0h7F9SJZN8/40e+6efpyx0/2QV0iF8mWFXor02l9jd/7vnuDV1qhWoGKwPsay2lATBZJQwNwbJ/wKLNGAgUd9M/KSY78KuqlM3SRzX/ZeGXk99tFvhfNYbQoCfQoR2lAYhTJmVLRG+vj10RkPL9D8585NL35lPeGBr14KtsHrP3AuCc7vAso6EjzFxv20n3ykWLNBSStqQL2bQVWzhSR8EhLZov+Ju5x9wf5hj8aXCw1leJGXc7EkimajvY/fAf0uZfmLmbIWwKFsokGpBkULxKYM1pcDeevFjSCwV305daqWQHi6d5ULOWngDE9xO/63CsEGY1IqPjKLKwNFMpKGhALMajLxXuSL+bqe4+hjZ7lxx+Aod1171NyKLrlFonEzHqUTwJLgWfSgNgokmCnYYO66kulaI5/abllFd4IPPUaSwNiAQZ3FTXoQTf/J4Fta4ERjzdNTHyjMLoLTQ/vJk9ijUcpCiwFzqcBMRl97wNOHdPbl36/HVg1W7QxHdwldIO8GYNJJI468ZSfC2zQ/TgNisko6ATMGQOMfVr09g32mvwOoh5k9ijgg9G6WN4daixOQkfAVoYGHg5YerVrT4NiMXJSgKJuonv9hsXBl1crA07D3hoUXiR7t4SP1xBiLO1mSQEeJeVWGhSTl12jnwRezRGR9VMGrpqLVCw7vwLy2tNYW43cti0vbNJ9hgYmxqXW6tnGqhMjEsvA4J0cKXfLDhwL1s2ego5WHAGbLZbNyykL2D6sDiaUWTQwDhFJKLFsXBJdVgAh2qPhyRcLRVMG0sAYxJBHjO0/orHl7+inYVSZaHNPL5YbxKMonWlwHCYSQKTVj3uGxjsuQmnXPohHufNfaXAcJpLqCj2LmGA3GlCYcm3wu+apEZ6xLGAr7acSvYkEIR7YIYUycDafBiiMJymzwZPs3wb0u5/GO777k+nNCIXumo+7J1k3P3TKC8FOoaihhaL5ZBqkEJWJVnuS6gqR3kLj7ZDUlb/8IbRQ0tNbgPoQ2+9JThwU1zTQeDumoQQk6RKpOQNni2igbPQkxYvobhLnYbYUzqAqvWigbBBJRbloTEFj7cD9ifJMeKFo7A5abnXRi66ssD2bxOWlREqndl5pJUVi4GyPtz3JCWsEUl8rrrD2t1glOBHbpUgNmjyOPInJdmSPaHVERHQ6hhkQiu8u8iQmWV2taHpHWb+JV9EYVihFaZdBY6XkSciLeAyHwx4LB9mnvEqeJNrgYSUwbyJ5kcSLxk+UjBqyfckkkihs29qA66ipfsS1y64LvIp7m3cP7mrucut0KTCtH5EtcbFTitbAlSLXepKfSsw78l3xHkXXE75/l1wQg1DkVnDbRahmepLdGyhHyx2oB0+5VYrFXJX7NbSbOZ6k5BAwuRcRzD1YKMVqUNkDJJJGqzoHzH+F6kXcVxvfMXahSNIlCZ/SEqtI6utEQVX/B4hULtzEG46dNJMome9JkZw/D2xdDQxLJ0K5N1M4UzLLUJhyLTgrSzyRdAd++jE6kRzYAUzoSURyN8qQlfYLyUwDZ8M8IZJj+8RlPkQiDyDgkiDThKLKN4Kzs64VyaljwOwXxFXVRCIv4AzyfDdIVhg0Nt51Ijl1HJg5gvKyvIeRklWGnsk3Q2Xljn343h0jF0nFGeCDsXTU602cQ8/kmyUrDVx+3rlpCEzUoUdiY5+mxEXvnnSNkKy2xhOwEselpSydLkpsNQa82a95kTTUU2d479bD/4iMpOskO8xRcZVBXfRbrr76WBfL1D7Ni4VytLya/Mgluww90q4Cl/c5SiR+CxTLG4WhhTJnNJHGe9iDjKTLJTsNqvyQ40QSTCyTewV/zeblRBzvLbu6SvEwcOUTx4kkUrGcOUnE8RYWS/EyZLb7b3BW5TiRBBVL3sW/H9qdCOQNVETc1M66jb2Ndz9GU3T15cLQYpk1gkjkjSVXoRRvQ0bS5eBss6MrE/1i4QyYErAM2/AZkcj92Gr7Bj70Eoy1AWc1lj7w1tWxFV0FiuW1Rs9ybD8Ryd2epBqZrI3kJAOXh1j60AWdgBefAl7NAaYPBOaMAT6ZDKycCXz1CbBtDbB3C3B0n0hjqalqXixjelAavfsj8H0kpxkyki6Hpmxw1EDl3Qn0fxB4/u/A+Axxw27/B4lA3sCXSE9vITnRGk/BTtMkEeLrSVg5stltkpMNXE6nySLEGU9IiWDQ5Kk0WYQ4ZZBPkhLFkOe72pYjYwKhKTZC63yllEiGnKT/dFw6PsHd6fO5yn9JiWiNHfFraBIJFqMWXEmTEtnA5Z40kQRrT7nkJyU3GDh7kSaUYFEh1ijJLSbasiozaGIJJvflmoki6VLJTdaYPLmEJpdgEpahqPUVkhsNGvslONtIk0yIMVbyBTKS/kVysyEz9XqKsRBiwGbbuqjEXSy5bVuCs0006QTDIlHlGyUvGTKSbgJn22nyCRGiGLltW0petMbG38VEAkLYlHmvLLdCiqV3m2ugyZ8RGQghsByFKddKZJKEotZXQJPnECkIF+Btx9S7O0Ys6ektwJWXiByExiTH5027W9GdsRblWZHkRmTxbEMIjT1NSogoN0xJAZd/JNJ4MFVe891FCjDkWZJ/A86+JvJ4JdqubEBP378T86MRS4+0q8DZG0Qk12cAv4YeaVcR42Pft/wDiXLRKsEIToMr/0MMN3Xf4vu94/qGEWIptloPNfnXxGxL4i1pl0FV+lB5cUKjClwpoviILakvyp/B2Q4iXQLma2UptxOD7Y7mc2UAOKskAjoe56DJBY5tceqNvYvcCpx9SmR0bLnuJwnbRsidgmHdwNl+IqZjsAua0omY6dTlmMpywdlJImrccAIqU2mzngiCyW3bElwZDc4qiLi24Qw4G4SstF8QAxNNMDnsFqhsDAUrrRaIMhoZSTcR4xL+OFm+ESobDrq7xUyUgCsDPFue62rBFKZcC5WpUNluInrU+BacZbm+XRCZv3OlfB84WwTOGoj8YVEHlX2IbNaBiqm8KhqN/Qqc9W38piRRNMUOqKwfpb+TXSAanwyuvALOfvCwOI5Ck8dB8/2JGEEWwQFAu9bgSpFHGvXth8omIouluq7pNZmdnib5N+AsA5y975IS5ZPgyjxoSjayfL+lGSaz5iAgk7WBJnNw9nbj3sbJBwLnwdkecDYbnOUgk7Uhr0EWv2NnrqRBZblQ2RRwthqcHY9Dl/dScLYOnL0FTS4Al++mOAeZ8wWU27YlslkSNOVhcLknNDYUXJkmjqXlNY37n/0ieMfKgkKQfz842wpVXi+6aiozwOXnwRUNqvwIVIUhz3cDjTgZGVlc7f8BEbPJjkKu8uIAAAAASUVORK5CYII=;" parent="1" vertex="1"><mxGeometry x="75.00000000000001" y="325" width="60" height="60" as="geometry"/></mxCell><mxCell id="3" value="HTTP&lt;br&gt;request" style="text;html=1;align=center;verticalAlign=middle;resizable=0;points=[];autosize=1;strokeColor=none;fillColor=none;" parent="1" vertex="1"><mxGeometry x="75" y="430" width="60" height="30" as="geometry"/></mxCell><mxCell id="lTdUe9vieq3jcJyIEDaX-20" value="" style="endArrow=none;startArrow=classic;html=1;rounded=0;entryX=0.5;entryY=1;entryDx=0;entryDy=0;exitX=0.5;exitY=0;exitDx=0;exitDy=0;" parent="1" source="07knTB4zI7Xbk9It-fin-1" target="3" edge="1"><mxGeometry width="50" height="50" relative="1" as="geometry"><mxPoint x="105" y="500" as="sourcePoint"/><mxPoint x="105" y="390" as="targetPoint"/></mxGeometry></mxCell></root></mxGraphModel></diagram></mxfile>